<?xml version="1.0" encoding="UTF-8"?>
<svg width="126px" height="97px" viewBox="0 0 126 97" version="1.1" xmlns="http://www.w3.org/2000/svg" xmlns:xlink="http://www.w3.org/1999/xlink">
    <!-- Generator: sketchtool 52.3 (67297) - http://www.bohemiancoding.com/sketch -->
    <title>4470A946-C650-45FB-868A-DCFFF633F318</title>
    <desc>Created with sketchtool.</desc>
    <g id="Page-1" stroke="none" stroke-width="1" fill="none" fill-rule="evenodd">
        <g id="WHERE-YOU-CAN-FIND-US?" transform="translate(-1207.000000, -574.000000)" fill="#F8AACE">
            <g id="Group-3" transform="translate(438.000000, 265.000000)">
                <g id="mapa-sÌwiata">
                    <g id="Group" transform="translate(769.446594, 114.449653)">
                        <path d="M24.020185,272.830365 C22.4108326,273.134497 18.3994617,273.342587 17.9911186,273.542674 C17.5827754,273.750764 13.8035997,273.950851 12.7787384,274.359028 C11.7538772,274.767205 9.19973087,275.575556 7.97470143,275.83967 C6.5815307,276.143802 3.63505467,277.320313 2.35397813,276.712049 C1.385164,276.247847 0.312262405,273.238542 0.512430614,272.830365 C0.712598823,272.422188 3.27475189,270.989566 3.4749201,270.581389 C3.68309504,270.173212 4.68393608,264.554774 4.69994954,262.505885 C4.70795627,261.217326 4.18751892,258.216024 3.98735071,257.39967 C3.77917578,256.583316 3.49894029,252.293455 3.88326325,250.652743 C4.1795122,249.388194 6.05308663,247.251267 6.13315391,245.954705 C6.22122792,244.562101 4.6038688,241.360712 4.39569386,240.640399 C4.18751892,239.92809 5.18035324,235.005955 6.34132885,233.58934 C7.29412952,232.420833 10.1765517,231.156285 11.553709,230.52401 C13.7155257,229.53158 18.2873675,228.195 20.5452649,227.458681 C22.4268461,226.842413 26.3021026,225.922014 28.1116232,225.10566 C29.5047939,224.481389 32.2671152,223.03276 33.3240034,221.936285 C34.3408579,220.879826 35.4617998,218.094618 36.1824054,216.830069 C36.5347014,216.213802 36.9270311,214.57309 37.6156098,214.381007 C38.4483095,214.140903 39.8895206,216.373872 40.6821867,216.013715 C41.5709336,215.613542 41.0745164,213.052431 41.6029605,212.236076 C41.851169,211.85191 42.6358284,211.323681 43.0361648,211.11559 C43.6286627,210.803455 45.0698738,210.715417 45.5903112,210.299236 C46.4470311,209.602934 47.5359462,206.929774 48.0403701,206.617639 C48.5528007,206.313507 50.2262069,204.368663 51.2110345,204.168576 C52.1718419,203.96849 54.1414971,204.696806 54.9902103,205.193021 C55.8389235,205.681233 57.2401009,207.441997 57.8486123,207.850174 C58.4651304,208.258351 61.0192767,209.17875 61.0192767,208.666528 C61.0192767,208.154306 61.4276198,203.864444 62.4524811,203.456267 C63.4773423,203.04809 67.9691169,201.311337 68.9939781,200.494983 C70.0188394,199.678628 72.4688982,197.021476 73.0854163,196.813385 C73.7019344,196.605295 77.2729352,196.813385 77.5851976,196.813385 C77.8894533,196.813385 81.4684609,199.262448 81.5725484,199.574583 C81.6766358,199.878715 81.8607906,202.303767 81.5725484,203.152135 C81.3323465,203.864444 80.0432632,204.880885 79.8350883,205.601198 C79.5308326,206.657656 80.0432632,208.97066 80.7558621,209.891059 C81.4684609,210.811458 83.822439,212.548212 84.943381,213.572656 C86.064323,214.597101 91.3807906,216.021719 92.1974769,217.046163 C93.0141632,218.070608 95.2640538,217.758472 95.672397,216.942118 C96.0807401,216.125764 97.5139445,213.364566 98.2265433,211.931944 C98.9391421,210.499323 99.6597477,210.299236 99.3474853,207.337951 C99.0432296,204.376667 100.060084,200.214861 101.29312,198.246007 C101.797544,197.437656 103.022574,195.236701 103.951354,195.484809 C105.272464,195.836962 104.880135,199.486545 105.280471,200.799115 C105.680807,202.103681 106.609588,204.480712 108.042792,205.497153 C109.475997,206.521597 110.901194,208.97066 110.901194,209.274792 C110.901194,209.578924 110.444811,212.372135 110.901194,213.260521 C111.077342,213.60467 111.926056,213.97283 111.717881,214.589097 C111.509706,215.205365 110.316703,216.333854 110.188595,217.03816 C109.996434,218.070608 111.213457,220.815799 111.213457,221.127934 C111.213457,221.432066 113.43132,223.360903 114.071859,224.193264 C115.473036,226.010052 117.955122,231.140278 118.259378,232.364809 C118.563633,233.58934 119.628528,237.318958 120.613356,238.695556 C121.309941,239.679983 123.623886,240.832483 124.256417,241.864931 C124.832902,242.80934 125.233238,245.050313 125.313305,246.154792 C125.417393,247.507378 125.05709,250.236563 124.800875,251.573142 C124.456585,253.349913 123.503785,256.871441 122.759159,258.520156 C122.222708,259.70467 120.533288,261.729549 119.996838,262.914063 C119.444373,264.13059 118.563633,267.716146 118.467553,268.020278 C118.363465,268.32441 115.128747,269.861076 113.967771,270.373299 C113.111051,270.749462 111.245484,271.245677 110.492851,271.80592 C108.811438,273.046458 106.449453,276.583993 105.176384,278.240712 C104.583886,279.009045 103.607065,280.713785 102.926493,281.410087 C102.157847,282.202431 99.651741,283.859149 99.5556602,284.267326 C99.4515728,284.675503 98.883095,286.628351 98.2265433,287.028524 C97.4819176,287.476719 95.6163499,286.940486 94.7516232,287.028524 C93.430513,287.164583 90.2518419,287.948924 89.6433305,288.461146 C89.0268124,288.973368 87.9058705,290.574063 87.0891842,290.910208 C86.4726661,291.166319 85.0474685,291.166319 84.4309504,290.910208 C83.7984188,290.646094 83.1098402,289.25349 82.4853154,288.965365 C81.876804,288.685243 80.4756266,288.597205 79.8270816,288.757274 C79.2666106,288.893333 78.4499243,289.885764 77.8814466,289.981806 C76.6724306,290.197899 74.1823381,289.493594 73.0774096,288.957361 C72.092582,288.485156 70.0268461,287.236615 69.706577,286.196163 C69.4423549,285.331788 70.4592094,283.587031 70.7314382,282.722656 C70.9075862,282.170417 71.3479563,280.881858 71.2438688,280.473681 C71.1397813,280.065503 70.4512027,278.264722 69.9147519,277.712483 C69.5064087,277.296302 68.3774601,276.880122 67.8730362,276.591997 C67.5607738,276.407917 66.6960471,276.183819 66.6480067,275.823663 C66.5038856,274.743194 68.9859714,273.502656 69.6104962,272.606267 C70.0268461,272.01401 71.3319428,270.65342 70.9396131,270.05316 C70.3070816,269.092743 67.288545,269.70901 66.3437511,270.357292 C65.7112195,270.789479 65.6311522,271.885955 64.5022035,272.806354 C63.3812616,273.726753 62.3804205,276.127795 61.3315391,275.823663 C60.2666442,275.511528 60.8671489,272.494219 60.4107653,271.477778 C60.0904962,270.781476 59.1056686,269.572951 58.5692178,269.028715 C57.4803028,267.924236 55.1583516,265.659253 53.6610934,265.251076 C51.4512363,264.650816 46.8473675,266.20349 44.56545,266.371563 C42.5237342,266.523628 38.3202019,265.907361 36.3905803,266.579653 C35.2135913,266.98783 33.4921447,268.940677 32.4032296,269.540938 C30.4335744,270.65342 26.2300421,272.414184 24.020185,272.830365 Z" id="Path"></path>
                    </g>
                </g>
            </g>
        </g>
    </g>
</svg>