<?xml version="1.0" encoding="UTF-8"?>
<svg width="36px" height="116px" viewBox="0 0 36 116" version="1.1" xmlns="http://www.w3.org/2000/svg" xmlns:xlink="http://www.w3.org/1999/xlink">
    <!-- Generator: sketchtool 52.3 (67297) - http://www.bohemiancoding.com/sketch -->
    <title>CA897D45-05DB-4329-B455-2BEEC3F139F9</title>
    <desc>Created with sketchtool.</desc>
    <g id="Page-1" stroke="none" stroke-width="1" fill="none" fill-rule="evenodd">
        <g id="WHERE-YOU-CAN-FIND-US?" transform="translate(-638.000000, -601.000000)" fill="#F8AACE" fill-rule="nonzero">
            <g id="Group-3" transform="translate(438.000000, 265.000000)">
                <path d="M200,336 L202.173334,336 L204.000214,336.854184 L204.781416,337.736052 L207.106331,341.759062 L207.988662,344.632583 L208.880915,346.524091 L210.207152,348.041585 C209.712546,351.767038 209.465243,353.629765 209.465243,353.629765 C209.465243,353.629765 209.712546,354.697072 210.207152,356.831685 C210.656964,359.315593 210.88187,360.557547 210.88187,360.557547 C210.88187,360.557547 210.949062,364.074125 210.207152,364.804525 C209.465243,365.534925 208.296586,368.655252 208.880915,370.396112 C209.465243,372.136972 207.09641,375.961656 207.988662,376.971315 C208.880915,377.980973 209.532435,379.107 210.207152,381.554044 C210.88187,384.001088 211.977111,385.882355 211.977111,388.811568 C211.977111,391.74078 210.88187,397.089579 210.88187,397.585789 C210.88187,398.081999 209.786629,397.396406 210.88187,399.983089 C211.977111,402.569772 213.029208,403.282944 213.029208,403.807005 C213.029208,404.331066 210.925014,404.159985 211.977111,407.146491 C212.678509,409.137496 213.481419,411.572029 214.385842,414.450091 C214.009888,415.638443 214.009888,416.586401 214.385842,417.293963 C214.761796,418.001526 215.519037,419.155689 216.657564,420.756452 C217.451867,422.211643 217.849018,423.186044 217.849018,423.679655 C217.849018,424.420071 219.859973,426.149713 219.859973,427.023949 C219.859973,427.898186 222.230083,431.624708 222.230083,433.351545 C222.230083,434.50277 222.230083,436.431919 222.230083,439.138992 C221.187544,437.914806 220.926909,437.914806 221.448179,439.138992 C222.230083,440.975271 221.670551,442.682075 222.230083,442.682075 C222.789615,442.682075 223.139415,443.537881 224.338625,444.294725 C225.537835,445.051568 226.468765,445.79519 226.468765,445.79519 C226.468765,445.79519 228.332537,447.194289 228.332537,447.194289 C228.332537,447.194289 228.96726,447.740787 229.849952,447.740787 C230.438413,447.740787 231.466287,447.920415 232.933575,448.279672 L234.975325,447.194289 L236,448.279672 L234.975325,450.435743 L233.960826,451.716701 C233.028716,451.905567 232.562661,452 232.562661,452 C232.562661,452 230.969637,451.324339 230.56457,451.324339 C230.294525,451.324339 229.755815,451.172824 228.948438,450.869793 L228.117211,451.025257 L226.99527,451.025257 L225.646785,450.275994 L224.467798,449.245933 L223.11359,447.55102 L220.386363,444.638989 L218.249147,440.972999 L216.779141,435.788113 L215.247319,433.240375 L213.658553,431.970867 L211.719874,430.669218 L211.381855,429.918735 L213.560532,429.335914 L214.292582,428.398558 L214.714392,426.83703 L214.142629,423.57577 L212.890034,421.647143 L211.719874,419.8186 L211.719874,417.844291 L211.136093,416.636444 L210.564935,415.429939 L208.568114,412.417274 L207.455305,411.418318 C207.341421,411.302804 207.225096,411.18735 207.106331,411.071956 C206.987567,410.956561 206.750864,410.777495 206.396223,410.534755 L205.8846,408.959199 L206.105969,407.607904 L206.242345,406.252583 L205.249171,402.228155 L204.000214,399.005562 L204.781416,393.136734 L205.155534,389.702262 L204.900132,385.747423 L204.490211,382.949383 L202.034884,378.654158 L201.339424,374.328439 L201.029662,366.284583 L201.615039,361.308283 L203.10544,360.031273 L203.311953,358.787259 L202.87919,357.163643 L201.773699,356.27392 L201.029662,353.629765 C201.69981,352.356242 202.034884,351.643993 202.034884,351.493018 C202.034884,351.342043 201.947822,349.685734 201.773699,346.524091 L200.618043,339.220347 L200,336 Z" id="Path-6"></path>
            </g>
        </g>
    </g>
</svg>