<?xml version="1.0" encoding="UTF-8"?>
<svg width="80px" height="80px" viewBox="0 0 80 80" version="1.1" xmlns="http://www.w3.org/2000/svg" xmlns:xlink="http://www.w3.org/1999/xlink">
    <!-- Generator: sketchtool 52.3 (67297) - http://www.bohemiancoding.com/sketch -->
    <title>38262E76-52A4-42B2-8961-D6A55FD1C432</title>
    <desc>Created with sketchtool.</desc>
    <defs>
        <polygon id="path-1" points="0.271458449 0.313163776 28.7538682 0.313163776 28.7538682 22 0.271458449 22"></polygon>
    </defs>
    <g id="Page-1" stroke="none" stroke-width="1" fill="none" fill-rule="evenodd">
        <g id="home" transform="translate(-427.000000, -2228.000000)">
            <g id="Group-16" transform="translate(427.000000, 2228.000000)">
                <circle id="Oval" fill="#F5F6FA" fill-rule="nonzero" cx="40" cy="40" r="40"></circle>
                <g id="Group-7" transform="translate(18.000000, 12.000000)">
                    <path d="M8.65502639,1.58108717 C7.09461627,1.58108717 5.50462293,2.15515746 3.90004633,3.3016268 C2.12505377,4.57009652 1.25797407,6.15317682 1.25005744,8.14236798 C1.21339092,17.3676023 19.5403974,31.4598999 22.3874688,33.5928175 C25.2499568,31.4339957 43.8027957,17.0780603 43.7498793,7.77970931 C43.7386293,5.79803872 42.8773829,4.22331462 41.1173903,2.96570794 C38.4682347,1.07261297 35.9632452,0.751735257 33.4611724,1.98385555 C27.1032824,5.11408453 23.1791322,17.3751229 23.1337157,18.4860784 C23.1324657,18.8307713 22.8528835,19.1098681 22.5087183,19.1098681 C22.1670531,19.1098681 21.8891376,18.8345316 21.8837209,18.4931812 L21.8837209,18.4910922 L21.8837209,18.4885853 L21.8837209,18.4864963 L21.8837209,18.4831538 C21.8412211,17.4102189 17.9504041,5.40696901 11.6454305,2.30473327 C10.6646013,1.82216327 9.66585549,1.58108717 8.65502639,1.58108717 M22.3887188,35 C22.260386,35 22.1316366,34.9607259 22.0220537,34.8809243 C21.1212241,34.2262168 -0.0420204791,18.7250655 6.26778545e-05,8.13735427 C0.00964597101,5.74957282 1.07755816,3.77918309 3.1746327,2.28091813 C6.28170301,0.0606782993 9.37335672,-0.280672084 12.3645942,1.26438755 C17.6629053,4.00229338 21.1516407,11.9636539 22.502885,16.0606941 C23.8537127,11.8934619 27.3791146,3.71442261 32.7453421,0.941838592 C35.7078296,-0.589851134 38.7686501,-0.251843227 41.8428039,1.94499927 C43.9240452,3.43240118 44.9861241,5.39318129 44.999874,7.77302436 C45.0598738,18.4351057 23.6678801,34.2132647 22.7574673,34.8796709 C22.6478844,34.9603081 22.5183016,35 22.3887188,35" id="Fill-14" fill="#020303"></path>
                    <g id="Group-18" transform="translate(7.000000, 34.000000)">
                        <mask id="mask-2" fill="white">
                            <use xlink:href="#path-1"></use>
                        </mask>
                        <g id="Clip-17"></g>
                        <path d="M14.3801057,1.58366154 C13.7644771,1.58366154 10.5910486,1.69789231 8.41356286,3.95077692 C8.11113429,4.26385385 7.76603429,4.60950769 7.39483429,4.98181538 C4.78027714,7.60446923 0.404177143,11.9938923 1.77380571,14.4963923 L2.11062,15.1149308 C3.71390571,18.0663154 5.21693429,20.8548154 7.60819143,20.7262 C10.3188629,20.5806615 14.0735343,17.3597769 14.1112343,17.3272 C14.3424057,17.1262385 14.68212,17.1262385 14.91412,17.3272 C14.95182,17.3593538 18.7114629,20.5810846 21.4171629,20.7262 C23.7988914,20.8582 25.3114486,18.0658923 26.9147343,15.1149308 L27.2515486,14.4963923 C28.6211771,11.9938923 24.2446629,7.60404615 21.6301057,4.98139231 C21.2589057,4.60908462 20.9138057,4.26343077 20.6117914,3.95077692 C18.2035486,1.45843077 14.5752343,1.58112308 14.5396057,1.58535385 L14.4853343,1.58535385 C14.4803629,1.58493077 14.4439057,1.58366154 14.3801057,1.58366154 M7.43999143,22.0000846 C4.42937714,22.0000846 2.69890571,18.8143154 1.02394857,15.7305077 L0.688791429,15.1149308 C-1.14359429,11.7675462 3.47072,7.13950769 6.52400571,4.07685385 C6.89023429,3.7092 7.23036286,3.3682 7.52864857,3.05893077 C10.2434629,0.250546154 14.1099914,0.300469231 14.5126771,0.316123077 C14.9153629,0.302584615 18.7818914,0.250546154 21.4962914,3.05893077 C21.7945771,3.36777692 22.1347057,3.70877692 22.5009343,4.07600769 C25.55422,7.13908462 30.1689486,11.7671231 28.3365629,15.1149308 L28.0014057,15.7305077 C26.2837771,18.8930077 24.5064914,22.1583154 21.35212,21.9937385 C18.7673914,21.8549692 15.6184057,19.5140846 14.5126771,18.6273154 C13.4069486,19.5140846 10.2579629,21.8549692 7.67323429,21.9937385 C7.59493429,21.9979692 7.51704857,22.0000846 7.43999143,22.0000846" id="Fill-16" fill="#020303" mask="url(#mask-2)"></path>
                    </g>
                    <path d="M17.5,43 C17.2236667,43 17,42.745583 17,42.432105 L17,40.567895 C17,40.254417 17.2236667,40 17.5,40 C17.7763333,40 18,40.254417 18,40.567895 L18,42.432105 C18,42.745583 17.7763333,43 17.5,43" id="Fill-19" fill="#020303"></path>
                    <path d="M26.5,43 C26.2236667,43 26,42.745583 26,42.432105 L26,40.567895 C26,40.254417 26.2236667,40 26.5,40 C26.7763333,40 27,40.254417 27,40.567895 L27,42.432105 C27,42.745583 26.7763333,43 26.5,43" id="Fill-21" fill="#020303"></path>
                    <path d="M3.20644081,54 C2.9978989,54 2.79323483,53.9056675 2.66828203,53.729958 C2.48817766,53.4765152 2.5377279,53.1412906 2.77212212,52.942504 L2.8104697,52.9052568 C3.75881835,51.9821746 5.86879715,50.2048364 8.90084142,49.2137375 C5.25652844,49.2825638 3.04098607,50.6080776 2.72774233,50.8076739 L2.00129262,49.8032146 L2.36020876,50.3080758 L2,49.8040243 C2.47352802,49.5024032 6.79818744,46.9181777 13.5124614,48.5194015 C13.8287213,48.5947056 14.0351088,48.8797275 13.9950377,49.183373 C13.9545358,49.4874233 13.6796396,49.7153599 13.3534697,49.7153599 C8.415249,49.7153599 4.985941,52.5360239 3.74072174,53.7485815 C3.66402657,53.8230759 3.62869509,53.8574891 3.56492608,53.8975703 C3.45462292,53.9668014 3.32967012,54 3.20644081,54" id="Fill-23" fill="#020303"></path>
                    <path d="M40.5448773,54 C40.4240662,54 40.3019923,53.9667997 40.1942305,53.89716 C40.1319307,53.8570767 40.0978342,53.8230667 40.0233271,53.7489733 C38.8067975,52.5359477 35.4569211,49.7151366 30.6316343,49.7151366 C30.3129793,49.7151366 30.0444167,49.4871882 30.0048479,49.183122 C29.9657001,48.8794607 30.1673325,48.594424 30.4763058,48.519116 C37.0371468,46.9186185 41.2609039,49.5021688 41.7209962,49.8021862 C42.0093432,49.9900513 42.087218,50.367806 41.8931625,50.6455549 C41.6986862,50.922494 41.3093125,50.9990166 41.0205446,50.812771 C41.0197027,50.8119612 41.0138095,50.8083173 41.0125466,50.8075075 C40.7069409,50.6083057 38.5411815,49.2827229 34.9820957,49.2134882 C37.9451241,50.2050435 40.0060683,51.9820694 40.9321462,52.9056047 L40.9696103,52.9428538 C41.1981832,53.1416507 41.2465918,53.4768928 41.070216,53.7307536 C40.9481421,53.9056626 40.7486144,54 40.5448773,54" id="Fill-25" fill="#020303"></path>
                    <path d="M22.4308605,52 C22.1166955,52 21.861721,51.7388806 21.861721,51.4162755 L21.861721,49.1405284 C21.7573787,48.9136541 21.0326744,48.4248822 20.3436362,48.1197889 C20.0548927,47.9921478 19.9220935,47.6485286 20.0469248,47.3523857 C20.1713766,47.056632 20.5064101,46.9200405 20.7947741,47.0480707 C21.6185087,47.4127039 23,48.1660977 23,49.110953 L23,51.4162755 C23,51.7388806 22.7454049,52 22.4308605,52 Z" id="Fill-27" fill="#020303"></path>
                    <path d="M22.5691446,49 C22.2545973,49 22,48.7095407 22,48.3516534 C22,47.299603 23.3811242,46.4606424 24.2044867,46.0543452 C24.4928532,45.9104123 24.8275103,46.0625576 24.9527221,46.390621 C25.0779339,46.7191166 24.9458923,47.1007767 24.6575257,47.2438451 C23.9646871,47.5866044 23.2369409,48.1346734 23.1375303,48.3853674 C23.1223531,48.7276944 22.8734472,49 22.5691446,49 Z" id="Fill-29" fill="#020303"></path>
                </g>
            </g>
        </g>
    </g>
</svg>