<?xml version="1.0" encoding="UTF-8"?>
<svg width="100px" height="35px" viewBox="0 0 100 35" version="1.1" xmlns="http://www.w3.org/2000/svg" xmlns:xlink="http://www.w3.org/1999/xlink">
    <!-- Generator: sketchtool 52.3 (67297) - http://www.bohemiancoding.com/sketch -->
    <title>4D0508EC-D94C-439D-8373-93F21EF8F5F3</title>
    <desc>Created with sketchtool.</desc>
    <g id="Page-1" stroke="none" stroke-width="1" fill="none" fill-rule="evenodd">
        <g id="OUR-HISTORU-mobile" transform="translate(-138.000000, -230.000000)" fill="#FFFFFF">
            <g id="Group-29" transform="translate(98.000000, 230.000000)">
                <g id="Group-15" transform="translate(40.000000, 0.000000)">
                    <path d="M22.2736036,7.22902913 C21.3198415,6.71125 21.2428297,6.05539644 21.1761848,5.41004854 C20.9347823,3.08079288 20.0165641,2.12927994 17.8380174,1.92967233 C11.3956801,1.34285599 6.54689568,3.7471521 3.39977689,9.60480987 C2.64150639,11.0155704 1.88323588,12.3332807 1.49225265,13.9466505 C0.514794584,17.9778236 2.90956686,20.3596076 6.01373673,21.488216 C7.87831205,22.1695833 9.51185182,21.9009385 11.7066895,21.0499798 C13.0825358,20.5156917 14.5694568,20.5592152 16.0400869,20.584729 C16.515487,20.5937338 16.8383444,20.9074029 16.8812933,21.3606472 C16.9494191,22.0840372 16.4103362,22.4277225 15.8505193,22.6303317 C14.3547123,23.1676214 12.7182105,23.1496117 11.2505424,23.8219741 C8.95203493,24.8740413 6.60761656,25.8600728 4.95778581,27.9146804 C3.22650023,30.0728439 3.91516387,31.7357403 6.41508694,32.8223261 C9.23638637,34.0484871 11.7052085,33.0924717 14.2303085,32.2084951 C16.3821973,31.455089 18.4555932,30.4765615 20.4460532,29.340449 C20.6682028,29.2128803 20.8799854,29.1858657 21.2191337,29.4365008 C20.7052277,30.4600526 19.6004039,30.8427589 18.7828935,31.392055 C15.7764695,33.4076416 12.475327,34.7208495 8.82170719,34.9894943 C6.75867826,35.1380744 3.6974573,33.8353722 2.97621172,32.0404045 C2.15425835,29.993301 2.68741729,27.8921683 4.6601054,26.1212136 C5.60942453,25.2702549 6.57355362,24.435805 7.77612325,23.3777346 C6.00040776,23.1406068 4.68232036,22.4802508 3.42643484,21.7808738 C0.566629481,20.1840129 -0.526346361,17.0203074 0.236367133,13.5804531 C1.52927758,7.74080502 5.24065625,3.6796157 10.2745653,1.30533576 C13.5890368,-0.258507282 17.532932,-0.64421521 20.9777312,2.1067678 C22.7578897,3.52803398 22.603866,7.38511327 22.2736036,7.22902913" id="Fill-1"></path>
                    <path d="M47.9397581,13.474831 C48.718569,15.166322 48.9412999,16.0196868 47.5974401,17.3606887 C47.7155324,15.9892095 47.8052227,14.8615488 47.9397581,13.474831 M37.6403208,21.5056036 C37.0722822,20.2255563 37.9243402,13.6881722 40.1964947,15.4101405 C41.5119526,16.4768465 39.0155723,20.3931816 37.6403208,21.5056036 M58.5979567,21.9475246 C58.1943503,21.4903649 57.6876,21.9932406 57.3721891,22.3132524 C56.1613699,23.5018677 55.5484861,22.6942189 54.920654,21.6579901 C54.5917895,21.0941598 54.6216863,20.4998522 54.5917895,19.8903059 C54.5469443,19.1436116 54.3825121,18.2445308 53.5155058,18.3207241 C52.7830349,18.3816787 52.9923123,19.3264755 53.0222091,19.8598285 C53.096951,21.7494221 52.4242737,23.1513786 50.8098481,24.0961754 C49.3598547,24.9343015 48.2088291,24.5076191 47.9098614,22.8161281 C47.7155324,21.7037061 47.5809969,20.5150908 48.1191388,19.4179075 C49.2402676,17.1321088 50.7650029,15.120606 49.2253193,12.5909888 C49.2253193,11.8442946 49.2103709,11.4785668 49.2253193,11.1280777 C49.2701644,10.3204289 49.4345966,9.36039343 48.3448594,9.26896149 C47.2072873,9.1927682 46.9531647,10.1528036 46.7588357,11.0976004 C46.2804874,13.5967403 46.2505906,16.1111188 46.2356422,18.6254973 C46.2356422,21.7646607 44.0232813,24.8123923 41.1531913,25.8181437 C40.0769076,26.1838715 39.2696948,25.757189 38.6119659,25.0257335 C37.9093918,24.2638006 38.268153,23.4866291 38.85114,22.7704121 C39.31454,22.2065818 39.7181464,21.5970355 40.1367011,21.0027279 C41.2727784,19.3874302 42.035146,17.6349845 41.6913332,15.5777657 C41.4970042,14.4653437 40.8542236,13.5662629 39.8377334,13.3224444 C38.656811,13.0329099 37.9093918,14.0843773 37.490837,14.8310715 C36.324863,16.9340063 34.7403341,23.3342425 38.1186692,26.8086564 C39.0155723,27.7229759 40.091856,28.0582263 41.5119526,27.5705893 C42.9768943,27.0677136 44.0830748,26.1381555 44.8753392,24.9952562 C46.6691454,22.4351617 47.2237305,25.1324041 47.9397581,25.6200411 C49.5093386,26.7172245 51.7964415,26.1991101 53.0521058,24.0504594 C53.5902477,23.1361399 53.8144735,23.3342425 54.4871508,23.7152089 C55.7577635,24.4314258 57.0732214,24.7819149 58.1196084,23.2732878 C58.3886793,22.8770827 59.076305,22.4961163 58.5979567,21.9475246" id="Fill-4"></path>
                    <path d="M80.286487,17.1262109 C78.7216224,18.7020535 77.1418543,20.2049404 74.8765265,20.8761326 C73.8332834,21.1825464 72.9539786,21.1095907 72.0001563,20.6280833 C70.7631681,20.0152556 69.5112764,19.4024279 68.7661028,21.4305957 C68.3786125,22.5103397 67.4098868,22.218517 66.8435549,21.4014134 C66.3517403,20.6864478 66.0536708,19.8547531 65.6363736,19.081423 C65.397918,18.6290978 65.174366,18.0600435 64.5931305,17.9724967 C63.9075708,17.8557676 63.4902736,17.9870878 62.998459,18.1913637 C62.7749069,18.2935017 62.5364513,18.4831864 62.4023201,18.6728712 C62.0148298,19.1981521 62.7600034,21.1095907 61.8210847,20.9053149 C61.0162972,20.7448124 61.0013937,19.8693443 60.852359,19.1981521 C60.6735173,18.4540042 60.4648687,17.7244474 60.3307374,16.9802995 C60.2711235,16.5863389 60.3009305,16.1340137 60.8821659,16.061058 C61.359077,16.0026935 61.4037874,16.3528807 61.5230152,16.703068 C61.6720499,17.1845754 61.7167604,17.7682208 62.5513548,17.2283488 C64.8017791,15.7692353 65.4724354,15.9735112 66.7988445,18.2935017 C66.9180722,18.4977776 67.067107,18.6874623 67.1416243,18.9063294 C67.290659,19.3440634 67.3502729,19.9277088 67.9464118,19.8693443 C68.7213924,19.7963886 68.5410604,19.0960141 68.5127438,18.6290978 C68.3830836,16.4608551 70.0179945,17.7974031 70.0179945,17.7974031 C70.8838862,18.5094505 73.1030133,18.4102308 74.2207737,17.2575311 C74.8169126,16.6155211 75.2491133,15.8713733 74.6231675,15.083452 C74.0121251,14.3247129 73.1328202,14.1933927 72.2088049,14.54358 C71.2251758,14.9229495 71.0016237,15.7108708 71.105948,16.6592946 C71.1953688,17.4472158 70.3488516,17.693806 69.8734308,17.24294 C69.4009907,16.7949921 70.1372223,15.1418165 70.6141334,14.0766637 C71.4636313,12.2381806 72.7304265,11.8734023 74.4294223,12.9677374 C77.1716613,14.7332647 77.2461786,15.6379151 74.7722022,19.2565166 C76.8288814,18.8041914 78.1254835,17.4180336 79.6605412,16.4112453 C80.003321,16.1923782 80.3013905,15.4920038 80.7783016,16.0026935 C81.2105023,16.4842009 80.5994599,16.8052059 80.286487,17.1262109" id="Fill-6"></path>
                    <path d="M25.7925968,25.8778638 C27.4078077,22.5863216 27.7374121,22.8608602 30.3682818,24.7870111 C30.8574685,23.277049 30.2116824,21.6444207 31.021525,20.2469026 C31.2526955,19.8467772 31.4078035,19.3999219 31.677751,19.0290028 C31.9148872,18.701893 32.3130971,18.345577 32.7217469,18.6376393 C33.2258478,18.9968759 32.9111576,19.5182071 32.6501586,19.8015076 C31.9641042,20.5491871 32.1311435,21.2092479 32.1415835,22.1102601 C32.160972,23.8859989 32.3488912,25.1185018 32.6069074,26.6065593 C32.7053413,27.1775411 32.5547076,27.6477614 32.0148125,27.9456649 C31.3928892,28.2873778 31.0453877,27.8171575 30.6188408,27.5090318 C29.8254039,26.933669 28.7948308,25.395961 28.2459872,25.5069447 C27.7508349,25.6047856 27.4943102,27.2768423 27.091626,28.1384261 C26.6397249,29.1051523 25.8910307,28.9576608 25.2556846,28.2610922 C24.4518078,27.3805244 24.4115393,26.2312592 24.2802941,25.1447874 C24.0595636,23.3120965 24.61139,21.4764849 24.3339854,19.6335717 C24.3071398,19.4554137 24.4637391,19.1575102 24.6263042,19.0625899 C24.939503,18.8815113 25.2228733,19.1078596 25.3362215,19.3765569 C25.6091518,20.0205543 25.817951,20.6806151 25.8015454,21.4049296 C25.7717169,22.738194 25.7925968,24.0743791 25.7925968,25.8778638" id="Fill-8"></path>
                    <path d="M98.148095,11.4855703 C97.8713133,12.3033807 97.0118333,13.0022369 96.1814881,13.373969 C95.4239803,12.9724984 94.4916629,12.5710278 94.2003138,11.7532173 C93.8798297,10.8313219 94.5936351,10.2365507 95.3657104,10.7421062 C95.8173017,11.0394918 95.6570596,11.9167794 96.2251905,11.8573023 C96.8078888,11.7829559 96.7933214,11.1138382 96.8515912,10.7569755 C96.9244285,10.4001127 97.288615,10.1770735 97.8858808,10.4298513 C98.3811744,10.6380212 98.2354998,11.2179232 98.148095,11.4855703 M99.7505155,10.3703742 C99.7796504,9.67151797 99.5028687,9.00240033 98.7744957,8.58606046 C98.1043926,8.21432843 97.5799641,8.42249837 97.0264007,8.85370752 C96.5748095,9.19570098 96.0358135,9.61204085 95.4531152,9.21057026 C94.3751233,8.48197549 93.6321829,8.85370752 93.0057822,9.83508007 C92.3065442,10.9205376 92.3211116,11.9911258 93.3262662,12.8535441 C94.4333931,13.7903088 95.6716271,14.5635114 96.5456746,15.7976618 C96.8807261,16.2437402 97.4634245,16.3032173 97.987853,16.0504395 C98.337472,15.8720082 98.5559839,15.5002761 98.3520394,15.173152 C97.5362618,13.8943938 98.4540117,13.0617141 99.0658449,12.1844265 C99.4445988,11.6193938 99.7068131,11.0246225 99.7505155,10.3703742" id="Fill-10"></path>
                    <path d="M52.2558238,12.305514 C51.9336441,11.9204841 52.0239749,11.3897671 52.4440128,11.120692 C53.0401957,10.7371487 53.1802084,10.8174252 53.8381173,10.8129654 C54.5607633,10.8099922 54.7173366,11.7406052 54.6074342,12.1776662 C54.3966624,13.0250295 52.9393264,13.1201721 52.2558238,12.305514" id="Fill-13"></path>
                </g>
            </g>
        </g>
    </g>
</svg>