<?xml version="1.0" encoding="UTF-8"?>
<svg width="200px" height="70px" viewBox="0 0 200 70" version="1.1" xmlns="http://www.w3.org/2000/svg" xmlns:xlink="http://www.w3.org/1999/xlink">
    <!-- Generator: sketchtool 52.3 (67297) - http://www.bohemiancoding.com/sketch -->
    <title>4C407201-C5AB-434E-9655-E267C4CE7488</title>
    <desc>Created with sketchtool.</desc>
    <defs>
        <polygon id="path-1" points="0.00095191783 0.168418216 44.9606151 0.168418216 44.9606151 70 0.00095191783 70"></polygon>
        <polygon id="path-3" points="0.505255285 0.316223012 14.9672792 0.316223012 14.9672792 15.9280259 0.505255285 15.9280259"></polygon>
    </defs>
    <g id="Page-1" stroke="none" stroke-width="1" fill="none" fill-rule="evenodd">
        <g id="OUR-HISTORY_rozwiniecie" transform="translate(-620.000000, -416.000000)">
            <g id="Group-15" transform="translate(620.000000, 416.000000)">
                <g id="Group-3">
                    <mask id="mask-2" fill="white">
                        <use xlink:href="#path-1"></use>
                    </mask>
                    <g id="Clip-2"></g>
                    <path d="M44.5472073,14.4580583 C42.639683,13.4225 42.4856593,12.1107929 42.3523696,10.8200971 C41.8695645,6.16158576 40.0331282,4.25855987 35.6760348,3.85934466 C22.7913602,2.68571197 13.0937914,7.49430421 6.79955378,19.2096197 C5.28301277,22.0311408 3.76647176,24.6665615 2.98450531,27.893301 C1.02958917,35.9556472 5.81913371,40.7192152 12.0274735,42.976432 C15.7566241,44.3391667 19.0237036,43.801877 23.413379,42.0999595 C26.1650715,41.0313835 29.1389137,41.1184304 32.0801739,41.1694579 C33.030974,41.1874676 33.6766887,41.8148058 33.7625866,42.7212945 C33.8988383,44.1680744 32.8206724,44.855445 31.7010386,45.2606634 C28.7094245,46.3352427 25.436421,46.2992233 22.5010848,47.6439482 C17.9040699,49.7480825 13.2152331,51.7201456 9.91557163,55.8293608 C6.45300046,60.1456877 7.83032774,63.4714806 12.8301739,65.6446521 C18.4727727,68.0969741 23.410417,66.1849434 28.460617,64.4169903 C32.7643945,62.910178 36.9111863,60.953123 40.8921065,58.6808981 C41.3364056,58.4257605 41.7599708,58.3717314 42.4382674,58.8730016 C41.4104555,60.9201052 39.2008078,61.6855178 37.565787,62.78411 C31.5529389,66.8152832 24.9506539,69.441699 17.6434144,69.9789887 C13.5173565,70.2761489 7.3949146,67.6707443 5.95242345,64.0808091 C4.30851669,59.9866019 5.37483459,55.7843366 9.3202108,52.2424272 C11.2188491,50.5405097 13.1471072,48.87161 15.5522465,46.7554693 C12.0008155,46.2812136 9.36464071,44.9605016 6.85286967,43.5617476 C1.13325896,40.3680259 -1.05269272,34.0406149 0.472734267,27.1609061 C3.05855516,15.48161 10.4813125,7.35923139 20.5491306,2.61067152 C27.1780735,-0.517014563 35.065864,-1.28843042 41.9554624,4.2135356 C45.5157794,7.05606796 45.207732,14.7702265 44.5472073,14.4580583" id="Fill-1" fill="#1D1D1B" mask="url(#mask-2)"></path>
                </g>
                <path d="M95.8795163,26.949662 C97.437138,30.332644 97.8825999,32.0393736 95.1948802,34.7213774 C95.4310647,31.978419 95.6104454,29.7230977 95.8795163,26.949662 M75.2806417,43.0112071 C74.1445644,40.4511126 75.8486803,27.3763444 80.3929894,30.820281 C83.0239051,32.9536931 78.0311445,40.7863631 75.2806417,43.0112071 M117.195913,43.8950493 C116.388701,42.9807298 115.3752,43.9864812 114.744378,44.6265048 C112.32274,47.0037354 111.096972,45.3884377 109.841308,43.3159803 C109.183579,42.1883196 109.243373,40.9997043 109.183579,39.7806117 C109.093889,38.2872233 108.765024,36.4890617 107.031012,36.6414482 C105.56607,36.7633575 105.984625,38.652951 106.044418,39.7196571 C106.193902,43.4988442 104.848547,46.3027572 101.619696,48.1923507 C98.7197094,49.8686031 96.4176581,49.0152382 95.8197227,45.6322562 C95.4310647,43.4074122 95.1619938,41.0301816 96.2382775,38.8358149 C98.4805353,34.2642176 101.530006,30.241212 98.4506385,25.1819777 C98.4506385,23.6885893 98.4207417,22.9571337 98.4506385,22.2561554 C98.5403288,20.6408577 98.8691933,18.7207869 96.6897188,18.537923 C94.4145745,18.3855364 93.9063295,20.3056073 93.5176714,22.1952008 C92.5609748,27.1934805 92.5011813,32.2222375 92.4712845,37.2509945 C92.4712845,43.5293215 88.0465625,49.6247845 82.3063826,51.6362873 C80.1538152,52.3677429 78.5393896,51.5143781 77.2239317,50.0514669 C75.8187835,48.5276012 76.536306,46.9732581 77.7022801,45.5408243 C78.6290799,44.4131636 79.4362927,43.194071 80.2734023,42.0054557 C82.5455568,38.7748603 84.0702921,35.269969 83.3826664,31.1555315 C82.9940084,28.9306875 81.7084472,27.1325259 79.6754669,26.6448888 C77.313622,26.0658198 75.8187835,28.1687546 74.981674,29.662143 C72.6497259,33.8680125 69.4806683,46.668485 76.2373383,53.6173128 C78.0311445,55.4459517 80.183712,56.1164527 83.0239051,55.1411786 C85.9537886,54.1354272 88.1661496,52.276311 89.7506784,49.9905123 C93.3382908,44.8703234 94.447461,50.2648081 95.8795163,51.2400822 C99.0186771,53.4344489 103.592883,52.3982202 106.104212,48.1009188 C107.180495,46.2722799 107.628947,46.668485 108.974302,47.4304178 C111.515527,48.8628516 114.146443,49.5638299 116.239217,46.5465757 C116.777359,45.7541655 118.15261,44.9922326 117.195913,43.8950493" id="Fill-4" fill="#1D1D1B"></path>
                <path d="M160.572974,34.2524218 C157.443245,37.4041069 154.283709,40.4098807 149.753053,41.7522652 C147.666567,42.3650928 145.907957,42.2191815 144.000313,41.2561666 C141.526336,40.0305112 139.022553,38.8048559 137.532206,42.8611914 C136.757225,45.0206794 134.819774,44.437034 133.68711,42.8028269 C132.703481,41.3728957 132.107342,39.7095063 131.272747,38.1628459 C130.795836,37.2581956 130.348732,36.120087 129.186261,35.9449934 C127.815142,35.7115353 126.980547,35.9741757 125.996918,36.3827275 C125.549814,36.5870034 125.072903,36.9663729 124.80464,37.3457424 C124.02966,38.3963041 125.520007,42.2191815 123.642169,41.8106297 C122.032594,41.4896247 122.002787,39.7386885 121.704718,38.3963041 C121.347035,36.9080083 120.929737,35.4488948 120.661475,33.9605991 C120.542247,33.1726778 120.601861,32.2680274 121.764332,32.122116 C122.718154,32.005387 122.807575,32.7057614 123.04603,33.4061359 C123.3441,34.3691508 123.433521,35.5364416 125.10271,34.4566976 C129.603558,31.5384706 130.944871,31.9470224 133.597689,36.5870034 C133.836144,36.9955551 134.134214,37.3749247 134.283249,37.8126587 C134.581318,38.6881268 134.700546,39.8554176 135.892824,39.7386885 C137.442785,39.5927772 137.082121,38.1920282 137.025488,37.2581956 C136.766167,32.9217102 140.035989,35.5948062 140.035989,35.5948062 C141.767772,37.018901 146.206027,36.8204615 148.441547,34.5150622 C149.633825,33.2310423 150.498227,31.7427465 149.246335,30.1669039 C148.02425,28.6494259 146.26564,28.3867855 144.41761,29.0871599 C142.450352,29.845899 142.003247,31.4217416 142.211896,33.3185891 C142.390738,34.8944317 140.697703,35.3876121 139.746862,34.4858799 C138.801981,33.5899842 140.274445,30.283633 141.228267,28.1533273 C142.927263,24.4763613 145.460853,23.7468045 148.858845,25.9354748 C154.343323,29.4665295 154.492357,31.2758302 149.544404,38.5130332 C153.657763,37.6083828 156.250967,34.8360672 159.321082,32.8224905 C160.006642,32.3847565 160.602781,30.9840075 161.556603,32.005387 C162.421005,32.9684019 161.19892,33.6104118 160.572974,34.2524218" id="Fill-6" fill="#1D1D1B"></path>
                <path d="M51.5851936,51.7557276 C54.8156153,45.1726433 55.4748242,45.7217204 60.7365636,49.5740222 C61.7149369,46.554098 60.4233648,43.2888414 62.04305,40.4938051 C62.505391,39.6935544 62.8156069,38.7998438 63.355502,38.0580055 C63.8297744,37.4037859 64.6261942,36.6911539 65.4434938,37.2752785 C66.4516956,37.9937518 65.8223152,39.0364142 65.3003172,39.6030151 C63.9282083,41.0983741 64.262287,42.4184957 64.2831669,44.2205202 C64.3219439,47.7719978 64.6977824,50.2370036 65.2138147,53.2131185 C65.4106825,54.3550821 65.1094151,55.2955228 64.0296251,55.8913299 C62.7857785,56.5747557 62.0907755,55.634315 61.2376817,55.0180636 C59.6508079,53.8673381 57.5896616,50.791922 56.4919745,51.0138894 C55.5016698,51.2095711 54.9886203,54.5536845 54.1832521,56.2768521 C53.2794499,58.2103046 51.7820614,57.9153217 50.5113693,56.5221845 C48.9036155,54.7610488 48.8230787,52.4625184 48.5605883,50.2895749 C48.1191272,46.6241929 49.22278,42.9529698 48.6679707,39.2671435 C48.6142795,38.9108274 48.9274783,38.3150203 49.2526084,38.1251798 C49.879006,37.7630226 50.4457466,38.2157192 50.6724429,38.7531138 C51.2183036,40.0411086 51.635902,41.3612302 51.6030907,42.8098592 C51.5434338,45.4763881 51.5851936,48.1487582 51.5851936,51.7557276" id="Fill-8" fill="#1D1D1B"></path>
                <g id="Group-12" transform="translate(184.536082, 16.470588)">
                    <mask id="mask-4" fill="white">
                        <use xlink:href="#path-3"></use>
                    </mask>
                    <g id="Clip-11"></g>
                    <path d="M11.7601076,6.50055229 C11.2065442,8.1361732 9.48758404,9.53388562 7.82689377,10.2773497 C6.31187808,9.4744085 4.44724339,8.67146732 3.86454505,7.03584641 C3.22357687,5.19205556 4.65118781,4.00251307 6.19533841,5.01362418 C7.09852084,5.60839542 6.77803675,7.36297059 7.91429852,7.24401634 C9.0796952,7.09532353 9.05056029,5.75708824 9.16709996,5.04336275 C9.31277454,4.32963725 10.0411475,3.88355882 11.2356791,4.38911438 C12.2262662,4.80545425 11.9349171,5.96525817 11.7601076,6.50055229 M14.9649485,4.27016013 C15.0232183,2.87244771 14.4696549,1.53421242 13.012909,0.70153268 C11.6727028,-0.0419313725 10.6238458,0.374408497 9.51671896,1.2368268 C8.61353653,1.92081373 7.5355446,2.75349346 6.37014792,1.95055229 C4.21416405,0.493362745 2.72828328,1.2368268 1.47548185,3.1995719 C0.077005827,5.37048693 0.106140744,7.5116634 2.11645002,9.2365 C4.33070372,11.1100294 6.80717167,12.6564346 8.5552667,15.1247353 C9.22536979,16.0168922 10.3907665,16.1358464 11.4396235,15.6302908 C12.1388615,15.2734281 12.5758853,14.5299641 12.1679964,13.8757157 C10.5364411,11.3181993 12.3719408,9.65283987 13.5956074,7.89826471 C14.3531152,6.76819935 14.8775437,5.57865686 14.9649485,4.27016013" id="Fill-10" fill="#1D1D1B" mask="url(#mask-4)"></path>
                </g>
                <path d="M104.511648,24.6110281 C103.867288,23.8409681 104.04795,22.7795341 104.888026,22.2413841 C106.080391,21.4742973 106.360417,21.6348504 107.676235,21.6259307 C109.121527,21.6199843 109.434673,23.4812104 109.214868,24.3553325 C108.793325,26.0500591 105.878653,26.2403442 104.511648,24.6110281" id="Fill-13" fill="#1D1D1B"></path>
            </g>
        </g>
    </g>
</svg>