<?xml version="1.0" encoding="UTF-8"?>
<svg width="20px" height="20px" viewBox="0 0 20 20" version="1.1" xmlns="http://www.w3.org/2000/svg" xmlns:xlink="http://www.w3.org/1999/xlink">
    <!-- Generator: sketchtool 52.3 (67297) - http://www.bohemiancoding.com/sketch -->
    <title>B89C32F5-0652-4AC5-92F3-6B5D661E0042</title>
    <desc>Created with sketchtool.</desc>
    <g id="Page-1" stroke="none" stroke-width="1" fill="none" fill-rule="evenodd">
        <g id="burger" transform="translate(-1300.000000, -828.000000)" fill="#FFFFFF">
            <g id="Group-3" transform="translate(1300.000000, 828.000000)">
                <path d="M20,18.8043478 C20,19.4021739 19.5108696,19.8913043 18.9130435,19.8913043 L13.8043478,19.8913043 L13.8043478,12.173913 L16.4130435,12.173913 L16.7934783,9.18478261 L13.8043478,9.18478261 L13.8043478,7.2826087 C13.8043478,6.41304348 14.0217391,5.81521739 15.2717391,5.81521739 L16.8478261,5.81521739 L16.8478261,3.09782609 C16.576087,3.04347826 15.6521739,2.98913043 14.5108696,2.98913043 C12.2282609,2.98913043 10.6521739,4.40217391 10.6521739,6.95652174 L10.6521739,9.18478261 L8.04347826,9.18478261 L8.04347826,12.173913 L10.6521739,12.173913 L10.6521739,19.8913043 L1.08695652,19.8913043 C0.489130435,19.8913043 0,19.4021739 0,18.8043478 L0,1.08695652 C0,0.489130435 0.489130435,-2.66453526e-14 1.08695652,-2.66453526e-14 L18.8586957,-2.66453526e-14 C19.4565217,-2.66453526e-14 19.9456522,0.489130435 19.9456522,1.08695652 L19.9456522,18.8043478 L20,18.8043478 Z" id="Facebook"></path>
            </g>
        </g>
    </g>
</svg>