<?xml version="1.0" encoding="UTF-8"?>
<svg width="20px" height="20px" viewBox="0 0 20 20" version="1.1" xmlns="http://www.w3.org/2000/svg" xmlns:xlink="http://www.w3.org/1999/xlink">
    <!-- Generator: sketchtool 52.3 (67297) - http://www.bohemiancoding.com/sketch -->
    <title>A0E2F5D6-01C0-4E95-A229-1C4CFA6EFDEE</title>
    <desc>Created with sketchtool.</desc>
    <g id="Page-1" stroke="none" stroke-width="1" fill="none" fill-rule="evenodd">
        <g id="home" transform="translate(-1286.000000, -2509.000000)" fill="#000000">
            <g id="Group-11" transform="translate(50.000000, 2509.000000)">
                <path d="M1249.83951,20 L1249.83951,12.2548486 L1252.46652,12.2548486 L1252.86013,9.23676182 L1249.83951,9.23676182 L1249.83951,7.30932665 C1249.83951,6.43549793 1250.08503,5.8400523 1251.3512,5.8400523 L1252.96638,5.83950752 L1252.96638,3.13957289 C1252.68672,3.10307256 1251.72829,3.02081063 1250.61297,3.02081063 C1248.28433,3.02081063 1246.69006,4.42743517 1246.69006,7.01078666 L1246.69006,9.23676182 L1244.05644,9.23676182 L1244.05644,12.2548486 L1246.69006,12.2548486 L1246.69006,20 L1239,20 C1237.34315,20 1236,18.6568542 1236,17 L1236,3 C1236,1.34314575 1237.34315,3.04359188e-16 1239,0 L1253,-1.77635684e-15 C1254.65685,-3.04359188e-16 1256,1.34314575 1256,3 L1256,17 C1256,18.6568542 1254.65685,20 1253,20 L1249.83951,20 Z" id="Combined-Shape"></path>
            </g>
        </g>
    </g>
</svg>