<?xml version="1.0" encoding="UTF-8"?>
<svg width="23px" height="24px" viewBox="0 0 23 24" version="1.1" xmlns="http://www.w3.org/2000/svg" xmlns:xlink="http://www.w3.org/1999/xlink">
    <!-- Generator: sketchtool 52.3 (67297) - http://www.bohemiancoding.com/sketch -->
    <title>2D50D39A-B1CE-42FA-A423-643E871A901B</title>
    <desc>Created with sketchtool.</desc>
    <g id="Page-1" stroke="none" stroke-width="1" fill="none" fill-rule="evenodd">
        <g id="WHERE-YOU-CAN-FIND-US?" transform="translate(-881.000000, -347.000000)" fill="#F8AACE" fill-rule="nonzero">
            <g id="Group-3" transform="translate(438.000000, 265.000000)">
                <path d="M444.632504,86.6532235 C443.508406,88.310199 445.251942,89.4981167 443.948798,91.8001598 C442.645654,94.1022029 442.964174,98.8084256 443.280579,98.8583808 C443.596983,98.9083359 446.380465,99.2974837 446.768793,100.710779 C447.157121,102.124074 443.637194,105.501755 447.440497,105.923529 C451.243799,106.345303 453.823812,104.85469 456.177679,105.507904 C458.531546,106.161118 462.219917,105.143664 462.219917,103.911332 C462.219917,102.679 463.156818,100.702589 462.219917,100.192497 C461.283016,99.6824053 459.387968,98.0828981 459.634752,97.2610288 C459.881536,96.4391595 460.490134,95.9177522 461.62412,95.9177522 C462.758106,95.9177522 466.715106,95.6348184 465.886994,93.2676489 C465.058882,90.9004794 463.66166,88.8261837 463.66166,87.2888885 C463.66166,85.7515932 463.156818,84.5535792 462.219917,84.5535792 C461.595316,84.5535792 460.815856,84.3670395 459.881536,83.9939601 L458.252412,83.9939601 L457.235758,84.5535792 L455.59773,84.5535792 L453.866786,83.9939601 L453.217288,82.2230892 L449.58298,82 L449.264659,83.9939601 L448.746983,85.1683318 C448.749722,85.3189516 448.314226,85.5097563 447.440497,85.740746 C446.129902,86.0872306 445.756601,84.996248 444.632504,86.6532235 Z" id="Path-4"></path>
            </g>
        </g>
    </g>
</svg>