<?xml version="1.0" encoding="UTF-8"?>
<svg width="80px" height="80px" viewBox="0 0 80 80" version="1.1" xmlns="http://www.w3.org/2000/svg" xmlns:xlink="http://www.w3.org/1999/xlink">
    <!-- Generator: sketchtool 52.3 (67297) - http://www.bohemiancoding.com/sketch -->
    <title>92516441-881F-474B-84C6-8063D52D24D2</title>
    <desc>Created with sketchtool.</desc>
    <g id="Page-1" stroke="none" stroke-width="1" fill="none" fill-rule="evenodd">
        <g id="home" transform="translate(-175.000000, -2228.000000)">
            <g id="Group-14" transform="translate(175.000000, 2228.000000)">
                <circle id="Oval-Copy-4" fill="#F5F6FA" fill-rule="nonzero" cx="40" cy="40" r="40"></circle>
                <g id="Group-10" transform="translate(17.000000, 13.000000)" fill="#020303">
                    <path d="M1.49572039,45.303561 C2.25967912,46.1674797 3.96971285,48.2706604 8.11401995,53.4776578 L13.485816,49.0930607 C14.354143,48.3843119 15.4497984,47.9947097 16.5729192,47.9947097 L16.5872857,47.9947097 L29.3193678,48.0332925 L29.3307765,48.0332925 C30.281922,48.0332925 31.2106727,47.6491422 31.8812493,46.977718 L44.0521936,34.7884961 C44.0576867,34.7826248 44.7916448,34.0227118 44.7278407,33.1571156 C44.6923471,32.6622495 44.3889608,32.1946431 43.8274004,31.7668775 C43.2954181,31.3625971 42.7710416,31.2036528 42.2280731,31.2753664 C41.1193188,31.4250844 40.2890208,32.5037246 40.2805699,32.5146285 C40.2607104,32.5406299 40.237893,32.5670507 40.2142306,32.5892778 L35.1221583,37.4850967 C35.3697688,37.9631876 35.5324481,38.6098685 35.5324481,39.484691 C35.5324481,40.3930638 35.2531468,41.1148134 34.70215,41.6306483 C33.8422739,42.4354347 32.6726734,42.3934969 32.5450652,42.3838512 L20.9031454,42.3851094 C20.5532794,42.3851094 20.2693301,42.1032874 20.2693301,41.7560424 C20.2693301,41.4087974 20.5532794,41.1269753 20.9031454,41.1269753 L32.582249,41.1269753 C32.6215456,41.1261366 33.36818,41.155493 33.838471,40.7092748 C34.1211526,40.4408729 34.2648174,40.0290437 34.2648174,39.484691 C34.2648174,38.1061955 33.7957941,37.4070924 32.8716914,37.4070924 L22.3507796,37.4070924 C22.276412,37.4070924 22.2024668,37.3936723 22.1327472,37.3685096 C20.448066,36.7545402 15.7164234,35.2342949 14.0777996,35.5576353 C10.5546315,36.2567385 3.28181196,43.4834604 1.49572039,45.303561 Z M8.01768002,55 C7.99486267,55 7.97246786,54.9987419 7.94965051,54.9962256 C7.78063309,54.9781923 7.62555961,54.893478 7.51992372,54.7609545 C4.94747861,51.5271307 0.741480159,46.2849055 0.248794384,45.7837488 C0.142735954,45.7036476 0.0632977677,45.5908349 0.0252688486,45.459989 C-0.0376901397,45.2452674 0.0189306954,45.0137708 0.173581633,44.8518909 C0.549222845,44.4576755 9.42475002,35.1982284 13.8293439,34.3242446 C16.0198097,33.8889302 21.4427336,35.7815832 22.4627537,36.1489583 L32.8716914,36.1489583 C33.1560632,36.1489583 33.7332577,36.1988643 34.2774938,36.5456899 L39.2998463,31.7165521 C39.5052025,31.4594734 40.5509978,30.2369865 42.0468019,30.0298138 C42.9320307,29.9090329 43.7931744,30.1552078 44.5989649,30.7687578 C45.4647567,31.4276007 45.93378,32.2047081 45.9937812,33.0782725 C46.0918113,34.515481 44.9991137,35.6272521 44.9526339,35.673803 L32.7816896,47.863025 C31.8749112,48.7709784 30.6178441,49.2914265 29.3307765,49.2914265 L29.3151424,49.2914265 L16.5830602,49.2528437 L16.5729192,49.2528437 C15.7426211,49.2528437 14.9330277,49.540537 14.291184,50.0643402 L8.42036402,54.8565727 C8.30585471,54.9496746 8.16345754,55 8.01768002,55 Z" id="Fill-31"></path>
                    <path d="M24,1.25949872 C16.4292812,1.25949872 10.2703969,7.42348545 10.2703969,15.0002099 C10.2703969,22.5765145 16.4292812,28.7405013 24,28.7405013 C31.5707188,28.7405013 37.7296031,22.5765145 37.7296031,15.0002099 C37.7296031,7.42348545 31.5707188,1.25949872 24,1.25949872 M24,30 C15.7292925,30 9,23.271338 9,15.0002099 C9,6.72866199 15.7292925,0 24,0 C32.2707075,0 39,6.72866199 39,15.0002099 C39,23.271338 32.2707075,30 24,30" id="Fill-33"></path>
                    <path d="M21.7661619,23 C21.1063616,23 20.302775,22.0325576 15.2289914,15.6902016 C14.8648463,15.2348357 14.9435458,14.5744712 15.4042575,14.2148834 C15.8662453,13.8548755 16.5345537,13.9334303 16.8982734,14.387956 C19.5162045,17.6612133 20.9072729,19.3394297 21.647049,20.1980716 C22.6633372,18.5786663 24.9345647,15.1272955 30.0487616,7.47177188 C30.3716426,6.98742055 31.0318684,6.85467552 31.5223582,7.17351564 C32.0124227,7.49319592 32.1472755,8.1443187 31.8243945,8.62867004 C24.8988309,18.9949648 23.2214661,21.6280213 22.8926295,22.20479 L22.8279682,22.7282087 L22.1358373,22.9306869 C22.0009845,22.968074 21.8857002,23 21.7661619,23" id="Fill-35"></path>
                </g>
            </g>
        </g>
    </g>
</svg>