<?xml version="1.0" encoding="UTF-8"?>
<svg width="80px" height="80px" viewBox="0 0 80 80" version="1.1" xmlns="http://www.w3.org/2000/svg" xmlns:xlink="http://www.w3.org/1999/xlink">
    <!-- Generator: sketchtool 52.3 (67297) - http://www.bohemiancoding.com/sketch -->
    <title>76D192FB-147A-4563-9680-88307F5393B6</title>
    <desc>Created with sketchtool.</desc>
    <defs>
        <polygon id="path-1" points="0.00745116279 0.000209302326 35.5834884 0.000209302326 35.5834884 35.6925349 0.00745116279 35.6925349"></polygon>
    </defs>
    <g id="Page-1" stroke="none" stroke-width="1" fill="none" fill-rule="evenodd">
        <g id="home" transform="translate(-1185.000000, -2228.000000)">
            <g id="Group-2" transform="translate(1185.000000, 2228.000000)">
                <circle id="Oval-Copy-5" fill="#F5F6FA" fill-rule="nonzero" cx="40" cy="40" r="40"></circle>
                <g id="Group-13" transform="translate(22.000000, 12.000000)">
                    <g id="Group-39">
                        <mask id="mask-2" fill="white">
                            <use xlink:href="#path-1"></use>
                        </mask>
                        <g id="Clip-38"></g>
                        <path d="M13.2357767,31.9280233 C13.4994977,31.9280233 13.758614,31.954814 14.0101953,32.0222093 C14.7502884,32.2206279 15.3802884,32.7832326 15.9893581,33.3278372 C16.5996837,33.8728605 17.2305209,34.4367209 17.7956372,34.4367209 C18.3603349,34.4367209 18.9915907,33.8728605 19.6019163,33.3274186 C20.210986,32.7832326 20.840986,32.2206279 21.5814977,32.0222093 C22.3525674,31.8162558 23.1985674,31.9887209 24.0173581,32.1565814 C24.7993116,32.3164884 25.6063814,32.4814186 26.0626605,32.2168605 C26.5319163,31.9443488 26.7948,31.1498372 27.0484744,30.3816977 C27.3092651,29.5930465 27.5788465,28.7780233 28.1330791,28.2216977 C28.6873116,27.6653721 29.5002419,27.3949535 30.2859628,27.1333256 C31.0520093,26.8783953 31.8427535,26.6155116 32.1148465,26.1441628 C32.3794047,25.6849535 32.2144744,24.8728605 32.054986,24.0879767 C31.8883814,23.2675116 31.7154977,22.4185814 31.9214512,21.6466744 C32.118614,20.9044884 32.6795442,20.272814 33.2216372,19.6616512 C33.7654047,19.048814 34.3280093,18.4150465 34.3280093,17.8461628 C34.3280093,17.2776977 33.7654047,16.6435116 33.2212186,16.0302558 C32.6791256,15.4195116 32.118614,14.7882558 31.9214512,14.0460698 C31.7154977,13.2737442 31.8883814,12.4252326 32.054986,11.6043488 C32.214893,10.8194651 32.3794047,10.0082093 32.1152651,9.549 C31.8435907,9.07765116 31.0524279,8.81434884 30.2868,8.55983721 C29.5006605,8.2982093 28.6877302,8.02737209 28.1334977,7.47062791 C27.5792651,6.91472093 27.3092651,6.09969767 27.048893,5.31104651 C26.7948,4.54290698 26.5323349,3.74839535 26.0626605,3.47546512 C25.6072186,3.21216279 24.798893,3.37667442 24.0181953,3.5365814 C23.1994047,3.70360465 22.3525674,3.87690698 21.5814977,3.67053488 C20.840986,3.47169767 20.210986,2.90951163 19.6019163,2.36532558 C18.9915907,1.81988372 18.3603349,1.25602326 17.7956372,1.25602326 C17.2309395,1.25602326 16.5996837,1.81946512 15.9893581,2.36490698 C15.380707,2.90951163 14.750707,3.47169767 14.010614,3.67053488 C13.2399628,3.87774419 12.392707,3.70402326 11.5734977,3.5365814 C10.7928,3.37667442 9.98489302,3.21090698 9.52903256,3.47588372 C9.05935814,3.74839535 8.79689302,4.54290698 8.5428,5.31104651 C8.2820093,6.09969767 8.01242791,6.91472093 7.45819535,7.47062791 C6.90396279,8.02695349 6.09103256,8.2977907 5.30531163,8.5594186 C4.53968372,8.81393023 3.74852093,9.07723256 3.47684651,9.5485814 C3.21186977,10.0082093 3.3768,10.8198837 3.53628837,11.6047674 C3.70331163,12.4256512 3.87577674,13.2741628 3.66982326,14.0460698 C3.47266047,14.7882558 2.91214884,15.4195116 2.37005581,16.0302558 C1.82586977,16.6435116 1.26326512,17.2776977 1.26326512,17.8461628 C1.26326512,18.4150465 1.82586977,19.048814 2.37005581,19.6620698 C2.91214884,20.272814 3.47266047,20.9044884 3.66982326,21.6462558 C3.87577674,22.4181628 3.70331163,23.267093 3.53628837,24.0879767 C3.3768,24.8728605 3.21186977,25.6845349 3.47684651,26.1437442 C3.74810233,26.615093 4.53968372,26.8783953 5.30489302,27.132907 C6.09103256,27.3945349 6.90396279,27.6649535 7.45819535,28.2216977 C8.01242791,28.7780233 8.2820093,29.5930465 8.5423814,30.3812791 C8.79689302,31.1498372 9.05893953,31.9439302 9.52903256,32.2168605 C9.98489302,32.4818372 10.7919628,32.316907 11.5739163,32.1565814 C12.1260558,32.0431395 12.6903349,31.9280233 13.2357767,31.9280233 M17.7956372,35.6925349 C16.7512186,35.6925349 15.9018698,34.9336047 15.1525674,34.2638372 C14.6531721,33.8180233 14.1361953,33.3563023 13.6845209,33.2353256 C13.2014512,33.1055581 12.5019628,33.2487209 11.8259163,33.3864419 C10.8145674,33.5940698 9.76805581,33.8083953 8.89861395,33.3027209 C8.01619535,32.7907674 7.67796279,31.7660233 7.34977674,30.775186 C7.13545116,30.1255116 6.91317209,29.4540698 6.56866047,29.1083023 C6.22456744,28.7625349 5.5552186,28.5398372 4.90805581,28.3246744 C3.92014884,27.9956512 2.89875349,27.6557442 2.38847442,26.770814 C1.88656744,25.9001163 2.0992186,24.8515116 2.3060093,23.8376512 C2.44373023,23.1586744 2.58647442,22.4566744 2.45670698,21.9694186 C2.33573023,21.5152326 1.87526512,20.997 1.43070698,20.4955116 C0.763451163,19.7441163 0.00745116279,18.8918372 0.00745116279,17.8461628 C0.00745116279,16.8004884 0.763451163,15.9486279 1.43070698,15.196814 C1.87526512,14.6957442 2.33573023,14.1775116 2.45670698,13.7233256 C2.58647442,13.2360698 2.44373023,12.5340698 2.3060093,11.855093 C2.0992186,10.840814 1.88656744,9.7922093 2.38847442,8.92151163 C2.89875349,8.0365814 3.92056744,7.69625581 4.90847442,7.36765116 C5.5552186,7.15206977 6.22456744,6.92937209 6.56866047,6.58444186 C6.91317209,6.23867442 7.13545116,5.56639535 7.35019535,4.91713953 C7.67796279,3.92588372 8.01661395,2.90155814 8.89861395,2.39002326 C9.76763721,1.88518605 10.8141488,2.09909302 11.8250791,2.30588372 C12.500707,2.44444186 13.1989395,2.58886047 13.6849395,2.4574186 C14.136614,2.33644186 14.6535907,1.87472093 15.1525674,1.42890698 C15.9018698,0.759139535 16.7512186,0.000209302326 17.7956372,0.000209302326 C18.8396372,0.000209302326 19.688986,0.759139535 20.438707,1.42890698 C20.9381023,1.87472093 21.4546605,2.33644186 21.9067535,2.4574186 C22.3898233,2.58802326 23.0901488,2.44402326 23.7661953,2.30588372 C24.7775442,2.09951163 25.8228,1.88476744 26.6926605,2.39002326 C27.5750791,2.90155814 27.9133116,3.92588372 28.2414977,4.91713953 C28.4558233,5.56639535 28.6781023,6.23867442 29.0230326,6.58402326 C29.3671256,6.9297907 30.0364744,7.15248837 30.6836372,7.36806977 C31.6715442,7.69709302 32.6929395,8.037 33.2032186,8.92193023 C33.704707,9.79262791 33.4920558,10.840814 33.2856837,11.8546744 C33.1475442,12.5336512 33.0052186,13.2356512 33.1345674,13.7233256 C33.2555442,14.1775116 33.7160093,14.6957442 34.1605674,15.196814 C34.8278233,15.9486279 35.5838233,16.8004884 35.5838233,17.8461628 C35.5838233,18.8918372 34.8278233,19.7441163 34.160986,20.495093 C33.7160093,20.997 33.2555442,21.5156512 33.1345674,21.9698372 C33.0052186,22.457093 33.1475442,23.159093 33.2852651,23.8380698 C33.4920558,24.8519302 33.704707,25.9005349 33.2028,26.7712326 C32.6925209,27.6561628 31.670707,27.9960698 30.6828,28.325093 C30.0360558,28.5402558 29.366707,28.7629535 29.022614,29.1083023 C28.6781023,29.4540698 28.4558233,30.1259302 28.2410791,30.7756047 C27.9133116,31.7664419 27.5746605,32.791186 26.6926605,33.3027209 C25.8236372,33.8079767 24.7771256,33.5936512 23.7653581,33.3864419 C23.0893116,33.2483023 22.3898233,33.1055581 21.9067535,33.2353256 C21.4546605,33.3563023 20.9381023,33.8180233 20.438707,34.2638372 C19.688986,34.9336047 18.8396372,35.6925349 17.7956372,35.6925349" id="Fill-37" fill="#020303" mask="url(#mask-2)"></path>
                    </g>
                    <path d="M20.9671019,53 C20.9385125,53 20.9095087,52.9978519 20.880505,52.9935558 C20.6571763,52.9609051 20.468652,52.8058142 20.3874415,52.5875699 L17.0416537,43.604327 C16.918595,43.2722348 17.0772869,42.8993293 17.3979853,42.7708745 C17.7186837,42.6437085 18.0779157,42.8078213 18.2013887,43.1403431 L21.1452677,51.044394 L23.4344909,47.9094957 C23.5770235,47.7148802 23.8123681,47.6216538 24.0452266,47.6650449 L28.4165036,48.51783 L23.9209249,35.8678258 C23.8020096,35.5340152 23.9669166,35.1632577 24.2892723,35.0403879 C24.6099708,34.9162293 24.9679597,35.0880752 25.086875,35.4223154 L29.9615739,49.1386233 C30.0390553,49.3564379 29.9976214,49.6000294 29.853017,49.7774603 C29.7088271,49.9540319 29.485084,50.0356587 29.2634126,49.9948453 L24.1931457,49.0054427 L21.4626514,52.7443793 C21.3441504,52.9067736 21.1601839,53 20.9671019,53" id="Fill-40" fill="#020303"></path>
                    <path d="M14.0328981,56 C13.8398161,56 13.6558496,55.9067709 13.5373486,55.7443719 L10.8068543,52.0053278 L5.73658742,52.9947588 C5.51533037,53.0355734 5.29117294,52.9539443 5.14698295,52.7773676 C5.00237863,52.5999316 4.96094472,52.3563331 5.03842612,52.1385122 L9.91353934,38.4218096 C10.0324546,38.0875598 10.3908579,37.9169978 10.711142,38.0398712 C11.0334978,38.1627445 11.1984047,38.5335126 11.0794894,38.8673328 L6.58349643,51.5177011 L10.9547734,50.6648914 C11.1884606,50.6214991 11.4229765,50.7142985 11.5655091,50.9093492 L13.8547323,54.0443377 L16.7986113,46.140489 C16.9220843,45.8079577 17.2817306,45.6438402 17.6020147,45.7710098 C17.9227131,45.8994683 18.081405,46.2723845 17.9583463,46.6044862 L14.6125585,55.587558 C14.531348,55.8058086 14.3428237,55.9609039 14.119495,55.9935556 C14.0904913,55.9978519 14.0614875,56 14.0328981,56" id="Fill-42" fill="#020303"></path>
                </g>
            </g>
        </g>
    </g>
</svg>