<?xml version="1.0" encoding="UTF-8"?>
<svg width="20px" height="20px" viewBox="0 0 20 20" version="1.1" xmlns="http://www.w3.org/2000/svg" xmlns:xlink="http://www.w3.org/1999/xlink">
    <!-- Generator: sketchtool 52.3 (67297) - http://www.bohemiancoding.com/sketch -->
    <title>34086262-DD4E-44AB-89FB-0B4E067EC19A</title>
    <desc>Created with sketchtool.</desc>
    <g id="Page-1" stroke="none" stroke-width="1" fill="none" fill-rule="evenodd">
        <g id="burger" transform="translate(-1105.000000, -830.000000)" fill="#FFFFFF" fill-rule="nonzero">
            <g id="Group-4" transform="translate(1105.000000, 830.000000)">
                <path d="M17.6021798,3.37507799e-14 L2.39782016,3.37507799e-14 C1.08991826,3.37507799e-14 0,1.03542234 0,2.34332425 L0,17.6021798 C0,18.9100817 1.08991826,19.9455041 2.39782016,19.9455041 L17.6021798,19.9455041 C18.9100817,19.9455041 20,18.9100817 20,17.6021798 L20,2.34332425 C19.9455041,1.08991826 18.9100817,3.37507799e-14 17.6021798,3.37507799e-14 Z M14.3324251,3.16076294 C14.3324251,2.83378747 14.6049046,2.5613079 14.9318801,2.5613079 L16.7847411,2.5613079 C17.1117166,2.5613079 17.3841962,2.83378747 17.3841962,3.16076294 L17.3841962,5.01362398 C17.3841962,5.34059946 17.1117166,5.61307902 16.7847411,5.61307902 L14.9318801,5.61307902 C14.6049046,5.61307902 14.3324251,5.34059946 14.3324251,5.01362398 L14.3324251,3.16076294 Z M9.97275204,6.21253406 C12.0980926,6.21253406 13.8419619,7.90190736 13.8419619,10.027248 C13.8419619,12.1525886 12.0980926,13.8419619 9.97275204,13.8419619 C7.84741144,13.8419619 6.15803815,12.1525886 6.15803815,10.027248 C6.15803815,7.90190736 7.84741144,6.21253406 9.97275204,6.21253406 Z M18.0926431,17.493188 C18.0926431,17.8201635 17.8201635,18.0926431 17.493188,18.0926431 L2.50681199,18.0926431 C2.17983651,18.0926431 1.90735695,17.8201635 1.90735695,17.493188 L1.90735695,8.11989101 L4.41416894,8.11989101 C4.08719346,8.61035422 3.97820163,9.48228883 3.97820163,10.027248 C3.97820163,13.3514986 6.70299728,16.0762943 10.0817439,16.0762943 C13.4604905,16.0762943 16.1852861,13.3514986 16.1852861,10.027248 C16.1852861,9.48228883 16.1307902,8.61035422 15.6948229,8.11989101 L18.2016349,8.11989101 L18.2016349,17.493188 L18.0926431,17.493188 Z" id="Instagram"></path>
            </g>
        </g>
    </g>
</svg>