<?xml version="1.0" encoding="UTF-8"?>
<svg width="31px" height="29px" viewBox="0 0 31 29" version="1.1" xmlns="http://www.w3.org/2000/svg" xmlns:xlink="http://www.w3.org/1999/xlink">
    <!-- Generator: sketchtool 52.3 (67297) - http://www.bohemiancoding.com/sketch -->
    <title>661CB856-8C33-48B2-BE79-EFFEE3186F7D</title>
    <desc>Created with sketchtool.</desc>
    <g id="Page-1" stroke="none" stroke-width="1" fill="none" fill-rule="evenodd">
        <g id="WHERE-YOU-CAN-FIND-US?" transform="translate(-882.000000, -372.000000)" fill="#F8AACE" fill-rule="nonzero">
            <g id="Group-3" transform="translate(438.000000, 265.000000)">
                <path d="M461.40104,112.259729 C462.17488,111.129245 462.36834,110.408661 461.98142,110.097978 C461.40104,109.631953 460.337445,108.663089 459.338047,108.663089 C458.671782,108.663089 458.02788,108.108726 457.406341,107 L454.807212,107 L453.577339,108.663089 L452.83938,109.629864 L451.822031,110.097978 L450.551385,110.097978 L450.110389,111.054571 L449.57541,111.054571 L447.625774,111.054571 L446.601796,111.054571 L445.341849,112.259729 L444,113.608433 L444,115.424019 L444,116.87546 L444,117.666817 L445.341849,118.169656 L447.625774,116.227077 L449.374034,115.701168 L450.551385,115.980857 L454.243043,121.226603 L460.351609,125.767163 L462.898693,126.576659 L466.814157,129.502939 L468.91098,130.791341 L469.88291,132.059108 L469.88291,136 L472.3471,136 L471.591071,133.169857 L470.994798,130.440125 C471.046126,130.239408 471.69082,130.13905 472.92888,130.13905 C474.166939,130.13905 474.857313,129.927013 475,129.502939 L473.610639,127.443072 L468.1074,125.416248 L463.28592,122.86052 L458.002336,115.424019 L458.404582,113.184074 L460.0716,112.259729 L461.40104,112.259729 Z" id="Path-5"></path>
            </g>
        </g>
    </g>
</svg>