<?xml version="1.0" encoding="UTF-8"?>
<svg width="26px" height="26px" viewBox="0 0 26 26" version="1.1" xmlns="http://www.w3.org/2000/svg" xmlns:xlink="http://www.w3.org/1999/xlink">
    <!-- Generator: sketchtool 52.3 (67297) - http://www.bohemiancoding.com/sketch -->
    <title>406378F2-0FE8-45A9-8F95-54988ED8F60D</title>
    <desc>Created with sketchtool.</desc>
    <g id="Page-1" stroke="none" stroke-width="1" fill="none" fill-rule="evenodd">
        <g id="WHERE-YOU-CAN-FIND-US?" transform="translate(-1255.000000, -393.000000)" fill="#F8AACE">
            <g id="Group-3" transform="translate(438.000000, 265.000000)">
                <g id="mapa-sÌwiata">
                    <g id="Group" transform="translate(769.446594, 114.449653)">
                        <path d="M64.7023717,18.015816 C64.9665938,19.0082465 65.6231455,20.9771007 65.7512532,22.0015451 C65.8313204,22.6338194 65.8073003,23.9223785 65.7512532,24.5546528 C65.6871993,25.355 65.6471657,27.0357292 65.2228091,27.7240278 C64.7744323,28.4603472 63.1971068,29.3407292 62.4524811,29.7649132 C61.2594786,30.4452083 58.1608747,31.6057118 57.3441884,31.8057986 C56.5275021,32.0138889 53.1566695,31.5016667 52.3319765,31.9098437 C51.5152902,32.3180208 48.9611438,33.8546875 48.6488814,34.3589062 C48.3446257,34.8711285 47.6400336,36.2477257 48.0323633,36.7119271 C48.9050967,37.744375 52.1318082,37.0080556 53.4529184,36.7119271 C54.5017998,36.4798264 57.1360135,34.9751736 57.4402691,35.0792187 C57.7445248,35.1832639 60.2025904,36.0636458 60.8991758,36.7119271 C61.4196131,37.1921354 61.6357948,39.2010069 62.3403869,39.1609896 C63.3492347,39.1049653 63.1410597,36.0476389 63.9737595,35.4793924 C64.6543314,35.0231944 66.9362489,35.3753472 67.2485114,35.4793924 C67.5607738,35.5834375 71.4040034,34.4309375 72.356804,33.4385069 C72.917275,32.8542535 72.9733221,31.9098437 72.9733221,30.2691319 C72.9733221,28.6364236 72.8692347,25.8752257 72.356804,25.4670486 C71.8443734,25.0588715 70.7234315,22.8098958 71.0276871,21.9935417 C71.3319428,21.1771875 71.5080908,18.9282118 71.1317746,18.0078125 C70.7314382,17.0393924 69.1781329,15.5187326 68.3694533,14.8384375 C67.9130698,14.4542708 66.9122288,13.4938542 66.3277376,13.6139062 C65.4630109,13.7899826 64.4381497,15.6067708 64.2860219,16.4711458 C64.221968,16.8713194 64.5982843,17.6316493 64.7023717,18.015816 Z" id="Path"></path>
                    </g>
                </g>
            </g>
        </g>
    </g>
</svg>