<?xml version="1.0" encoding="UTF-8"?>
<svg width="20px" height="20px" viewBox="0 0 20 20" version="1.1" xmlns="http://www.w3.org/2000/svg" xmlns:xlink="http://www.w3.org/1999/xlink">
    <!-- Generator: sketchtool 52.3 (67297) - http://www.bohemiancoding.com/sketch -->
    <title>C60CB89B-2987-4DB8-9F4A-368DEE5E99A6</title>
    <desc>Created with sketchtool.</desc>
    <g id="Page-1" stroke="none" stroke-width="1" fill="none" fill-rule="evenodd">
        <g id="home" transform="translate(-1370.000000, -2509.000000)" fill="#000000">
            <path d="M1387.62267,2509 L1372.37733,2509 C1371.06429,2509 1370,2510.06156 1370,2511.37187 L1370,2526.62813 C1370,2527.93789 1371.06429,2529 1372.37733,2529 L1387.62267,2529 C1388.93571,2529 1390,2527.93789 1390,2526.62813 L1390,2511.37187 C1390,2510.06156 1388.93571,2509 1387.62267,2509 L1387.62267,2509 Z M1384.37526,2512.12468 C1384.37526,2511.77991 1384.6551,2511.50007 1384.99986,2511.50007 L1386.87478,2511.50007 C1387.22009,2511.50007 1387.49993,2511.77991 1387.49993,2512.12468 L1387.49993,2514.00014 C1387.49993,2514.3449 1387.22009,2514.62474 1386.87478,2514.62474 L1384.99986,2514.62474 C1384.6551,2514.62474 1384.37526,2514.3449 1384.37526,2514.00014 L1384.37526,2512.12468 L1384.37526,2512.12468 Z M1380.02318,2515.18607 C1382.1474,2515.18607 1383.86957,2516.90443 1383.86957,2519.02318 C1383.86957,2521.14249 1382.1474,2522.8603 1380.02318,2522.8603 C1377.89952,2522.8603 1376.17735,2521.14249 1376.17735,2519.02318 C1376.17735,2516.90443 1377.89952,2515.18607 1380.02318,2515.18607 L1380.02318,2515.18607 Z M1388.12509,2526.49993 C1388.12509,2526.84469 1387.84524,2527.12509 1387.49993,2527.12509 L1372.50007,2527.12509 C1372.15476,2527.12509 1371.87491,2526.84469 1371.87491,2526.49993 L1371.87491,2517.12481 L1374.37498,2517.12481 C1374.04931,2517.5934 1373.93912,2518.46786 1373.93912,2519.02318 C1373.93912,2522.36988 1376.66885,2525.09306 1380.02318,2525.09306 C1383.37807,2525.09306 1386.10779,2522.36988 1386.10779,2519.02318 C1386.10779,2518.46786 1386.02869,2517.60704 1385.62502,2517.12481 L1388.12509,2517.12481 L1388.12509,2526.49993 L1388.12509,2526.49993 Z" id="Instagram"></path>
        </g>
    </g>
</svg>