<?xml version="1.0" encoding="UTF-8"?>
<svg width="22px" height="20px" viewBox="0 0 22 20" version="1.1" xmlns="http://www.w3.org/2000/svg" xmlns:xlink="http://www.w3.org/1999/xlink">
    <!-- Generator: sketchtool 52.3 (67297) - http://www.bohemiancoding.com/sketch -->
    <title>A4E35003-0533-4E46-98E8-190865B92D1D</title>
    <desc>Created with sketchtool.</desc>
    <g id="Page-1" stroke="none" stroke-width="1" fill="none" fill-rule="evenodd">
        <g id="home" transform="translate(-1368.000000, -2509.000000)" fill="#000000">
            <path d="M1368.55463,2515.41341 L1372.84256,2515.41341 L1372.84256,2529 L1368.55463,2529 L1368.55463,2515.41341 Z M1384.55833,2515.2828 C1387.6058,2515.2828 1390.00024,2517.23712 1390.00024,2521.44573 L1390.00024,2529 L1385.138,2529 L1385.138,2521.96935 C1385.138,2520.12894 1384.37762,2518.87297 1382.70479,2518.87297 C1381.42557,2518.87297 1380.7141,2519.72042 1380.38311,2520.53745 C1380.25906,2520.83087 1380.27815,2521.23938 1380.27815,2521.6479 L1380.27815,2529 L1375.46124,2529 C1375.46124,2529 1375.52326,2516.54592 1375.46124,2515.41341 L1380.27815,2515.41341 L1380.27815,2517.54604 C1380.56262,2516.61331 1382.10186,2515.2828 1384.55833,2515.2828 Z M1370.61927,2509 C1372.20146,2509 1373.17414,2510.01443 1373.20515,2511.35508 C1373.20515,2512.67188 1372.20146,2513.71434 1370.58946,2513.71434 L1370.55844,2513.71434 C1369.00668,2513.71434 1368,2512.67545 1368,2511.35866 C1368,2510.01682 1369.0359,2509 1370.61927,2509 Z" id="Fill-88"></path>
        </g>
    </g>
</svg>