<?xml version="1.0" encoding="utf-8"?>
<!-- Generator: Adobe Illustrator 23.0.2, SVG Export Plug-In . SVG Version: 6.00 Build 0)  -->
<svg version="1.1" xmlns="http://www.w3.org/2000/svg" xmlns:xlink="http://www.w3.org/1999/xlink" x="0px" y="0px"
	 viewBox="0 0 1406 766" style="enable-background:new 0 0 1406 766;" xml:space="preserve">
<style type="text/css">
	.st0{fill:none;stroke:#000000;stroke-miterlimit:10;}
</style>
<g id="Warstwa_1">
</g>
<g id="Warstwa_2">
	<path class="st0" d="M94.49,187.21c0.98,1.46,5.34,0.51,7.02,0c2.67-0.81,7.92-2.69,10.47-3.83c1.55-0.69,4.49-2.41,6-3.19
		c0.7-0.36,2.07-1.14,2.81-1.4c0.99-0.35,3.05-0.78,4.09-0.89c0.79-0.09,2.44,0.26,3.19,0c0.8-0.27,2.02-1.52,2.68-2.04
		c0.71-0.56,2.1-1.73,2.81-2.3c0.73-0.58,2.1-1.9,2.94-2.3c0.77-0.37,2.47-0.67,3.32-0.77c0.76-0.09,2.55,0,3.06,0
		s2.68,0.5,3.57,0.64c0.57,0.09,1.72,0.32,2.3,0.26c0.7-0.07,2.05-0.57,2.68-0.89c0.84-0.42,2.25-1.7,3.06-2.17
		c0.79-0.46,2.42-1.39,3.32-1.53c1.3-0.2,3.97,0.28,5.23,0.64c1.18,0.33,3.27,1.76,4.47,2.04c1.46,0.35,4.52,0,6,0.26
		c1.08,0.18,3.21,0.81,4.21,1.28c1.17,0.54,3.25,2.11,4.34,2.81c1.27,0.81,3.82,2.41,5.11,3.19c0.63,0.39,2.02,1.01,2.55,1.53
		c0.48,0.47,1.13,1.69,1.4,2.3c0.3,0.66,0.77,2.43,0.77,2.81c0,0.38-0.8,2.66-0.77,3.57c0.02,0.64,0.77,1.79,0.77,2.43
		c0,0.74-0.61,2.13-0.89,2.81c-0.21,0.5-0.79,1.42-1.02,1.91c-0.32,0.69-1.07,2.05-1.15,2.81c-0.06,0.55,0.27,1.63,0.38,2.17
		c0.16,0.74,0.91,2.19,0.77,2.94c-0.12,0.63-1.39,1.42-1.53,2.04c-0.16,0.69,0.1,2.22,0.51,2.81c0.36,0.52,1.63,0.95,2.17,1.28
		c0.81,0.5,2.53,1.36,3.19,2.04c0.7,0.72,1.56,2.57,2.04,3.45c0.4,0.72,1.59,2.11,1.53,2.94c-0.04,0.64-1.28,1.79-1.4,2.17
		s-1.79,2.17-1.79,2.68s-1.49,2.25-2.3,2.3c-0.49,0.03-1.41-0.6-1.66-1.02c-0.29-0.49,0.29-1.9-0.13-2.3
		c-0.49-0.46-2.07-0.28-2.68,0c-0.45,0.21-0.96,1.14-1.28,1.53c-0.36,0.44-1.14,1.29-1.4,1.79c-0.34,0.65-0.56,2.15-0.89,2.81
		c-0.22,0.43-0.85,1.16-1.15,1.53c-0.33,0.42-1.15,1.4-1.15,1.79s-1,2.57-1.53,3.32c-0.46,0.64-1.65,1.71-2.17,2.3
		c-0.55,0.63-1.79,2.17-2.3,2.43c-0.51,0.26-2.3,2.17-2.55,2.81c-0.26,0.64-0.63,2.09-0.77,2.81c-0.17,0.87-0.38,2.68-0.89,3.45
		c-0.51,0.77-2.62,2.8-3.7,3.45c-0.53,0.31-1.91,0.77-1.91,1.53c0,0.77,1.23,1.84,1.28,2.55c0.04,0.61-0.84,1.64-1.15,2.17
		c-0.33,0.57-1.02,1.66-1.02,2.43s0.62,1.9,1.02,2.43c0.42,0.56,1.77,1.36,1.91,2.04c0.15,0.68-0.77,2.3-0.77,2.68
		c0,0.38,0.98,2.17,1.15,2.94c0.21,0.97-0.06,2.97,0,3.96c0.05,0.83,0,2.58,0.38,3.32c0.35,0.68,1.68,1.58,2.3,2.04
		c0.66,0.5,2.14,1.29,2.81,1.79c0.58,0.43,1.76,1.32,2.17,1.91c0.52,0.76,1.16,2.54,1.28,3.45c0.15,1.21-0.41,3.64-0.51,4.85
		c-0.06,0.7-0.13,1.91,0,2.81c0.13,0.89,1.04,3.45,1.66,4.47c0.37,0.6,1.44,1.56,1.79,2.17c0.23,0.41,0.56,1.32,0.64,1.79
		c0.09,0.5,0.14,1.55,0,2.04c-0.18,0.65-1.31,1.63-1.4,2.3c-0.09,0.69,0.38,2.1,0.77,2.68c0.32,0.47,1.33,1.07,1.79,1.4
		c0.65,0.47,2.16,1.18,2.68,1.79c0.34,0.4,0.75,1.41,0.89,1.91c0.16,0.56,0.28,1.72,0.26,2.3c-0.03,0.62-0.66,1.82-0.51,2.43
		c0.15,0.64,1.26,1.52,1.66,2.04c0.5,0.66,1.47,1.98,1.91,2.68c0.35,0.56,0.8,1.85,1.28,2.3c0.49,0.46,1.83,1.46,2.43,1.15
		c0.37-0.2,0.3-1.24,0.26-1.66c-0.09-0.78-0.83-2.22-1.15-2.94c-0.46-1.04-1.56-3.05-2.04-4.09c-0.48-1.04-1.56-3.09-1.79-4.21
		c-0.18-0.91,0.12-2.78,0-3.7c-0.16-1.24-0.83-3.68-1.28-4.85c-0.43-1.14-1.69-3.23-2.17-4.34c-0.44-1-1.25-3.03-1.53-4.09
		c-0.2-0.75-0.49-2.29-0.51-3.06c-0.03-1.12-0.09-3.51,0.51-4.47c0.22-0.35,0.99-0.85,1.4-0.89c0.47-0.05,1.37,0.42,1.79,0.64
		c0.59,0.31,1.72,1.04,2.17,1.53c0.43,0.46,1.1,1.57,1.28,2.17c0.2,0.67,0.05,2.11,0.13,2.81c0.08,0.74,0.37,2.2,0.51,2.94
		c0.2,1.03,0.77,3.7,0.89,4.09c0.13,0.38,1.28,2.17,1.91,2.81c0.64,0.64,3.21,2.53,3.83,3.7c0.53,1,0.67,3.34,0.77,4.47
		c0.05,0.57-0.23,1.77,0,2.3c0.37,0.85,2.17,2.04,2.68,2.55c0.51,0.51,2.87,2.83,3.57,3.96c0.62,1,1.66,4.09,1.79,4.34
		s0.64,1.91,1.53,2.94c0.89,1.02,1.69,2.29,1.66,3.19c-0.03,1.07-1.38,2.92-1.66,3.96c-0.2,0.74-0.38,2.81,0,3.06
		c0.38,0.26,1.76,2.35,2.43,3.06c1.31,1.41,4.27,3.91,5.87,4.98c1.82,1.21,5.83,2.98,7.79,3.96c2,1,6.04,2.96,8.04,3.96
		c1.4,0.7,4.34,2.17,5.87,2.17c1.53,0,4.17,0.37,5.49,0c0.72-0.2,1.82-1.38,2.55-1.53c0.76-0.16,2.31,0.24,3.06,0.38
		c0.83,0.16,3.06,0.77,3.19,1.15c0.13,0.38,1.54,2.2,2.04,2.94c0.72,1.05,1.82,3.4,2.68,4.34c0.78,0.86,3.19,2.43,3.7,2.81
		c0.51,0.38,6.38,1.66,6.77,1.79c0.38,0.13,2.76-0.23,3.57-0.64c0.41-0.2,0.96-1.05,1.4-1.15c0.26-0.06,0.82,0.09,1.02,0.26
		c0.34,0.27,0.62,1.14,0.77,1.55c0.25,0.71,0.38,2.22,0.64,2.92c0.28,0.75,1.09,2.14,1.53,2.81c0.63,0.95,2.29,2.56,2.81,3.57
		c0.42,0.82,0.55,2.74,1.02,3.53c0.6,0.99,2.44,2.48,3.32,3.23c0.79,0.69,2.44,1.99,3.32,2.55c1.34,0.85,4.21,2.2,5.62,2.94
		c0.54,0.29,1.63,0.86,2.17,1.15c1.02,0.54,3.57,1.91,4.09,2.17c0.51,0.26,1.5,0.35,1.79,0c0.36-0.44-0.13-1.74,0-2.3
		c0.18-0.76,0.83-2.27,1.4-2.81c0.37-0.34,1.31-0.76,1.79-0.89c0.65-0.19,2.03-0.44,2.68-0.26c0.77,0.22,2.09,1.26,2.55,1.91
		c0.37,0.52,0.76,1.79,0.77,2.43c0.01,0.73-0.51,1.79,0,2.94c0.51,1.15,1.75,4.14,1.91,5.62c0.22,1.97-0.37,5.95-0.64,7.91
		c-0.22,1.63-1.15,5.87-1.53,6.38c-0.38,0.51-3.48,3.51-4.6,4.72c-1.18,1.29-3.5,3.91-4.47,5.36c-0.76,1.14-2.16,3.54-2.55,4.85
		c-0.3,1.01-0.52,3.16-0.38,4.21c0.08,0.64,0.46,1.94,0.89,2.43c0.48,0.53,2.33,0.6,2.55,1.28c0.29,0.88-1.16,2.53-1.66,3.32
		c-0.72,1.15-2.68,3.45-2.68,4.72c0,1.28,0.09,4.19,0.77,5.36c0.71,1.23,3.42,2.61,4.34,3.7c1.05,1.25,2.61,4.15,3.32,5.62
		c0.78,1.63,1.72,5.16,2.55,6.77c0.84,1.61,3.08,4.49,4.09,6c1.04,1.55,2.87,4.83,4.09,6.26c0.5,0.59,1.4,1.28,1.53,2.68
		c0.13,1.4,1.47,4.81,2.3,6.26c0.6,1.05,1.92,3.13,2.81,3.96c0.98,0.92,3.44,2.12,4.6,2.81c2.03,1.21,6.21,3.41,8.17,4.72
		c1.47,0.99,4.35,3.1,5.62,4.34c0.94,0.92,2.73,2.91,3.32,4.09c0.92,1.82,1.67,5.91,2.04,7.91c0.35,1.86,0.78,5.64,0.89,7.53
		c0.06,1.08,0.21,3.28,0,4.34c-0.15,0.74-1.07,2.05-1.15,2.81c-0.05,0.52,0.16,1.57,0.38,2.04c0.36,0.76,1.88,1.77,2.17,2.55
		c0.28,0.75,0.29,2.45,0,3.19c-0.26,0.65-1.62,1.41-1.91,2.04c-0.56,1.19-0.6,3.92-0.64,5.23c-0.11,3.9-0.04,11.82,1.02,15.57
		c0.48,1.7,2.82,4.56,3.32,6.26c0.55,1.87,0.68,5.83,0.64,7.79c-0.05,2.35-1.01,6.98-1.15,9.32c-0.05,0.86-0.14,2.6,0,3.45
		c0.15,0.9,0.9,2.57,1.15,3.45c0.37,1.29,1.12,3.9,1.28,5.23c0.13,1.08-0.42,3.34,0,4.34c0.36,0.88,2.07,1.95,2.68,2.68
		c0.82,0.98,2.25,3.13,2.94,4.21c0.31,0.5,1,1.48,1.15,2.04c0.15,0.56-0.07,1.73,0,2.3c0.08,0.63,0.51,1.91,0.77,2.43
		s1.42,1.18,1.79,1.66c0.52,0.68,1.11,2.35,1.28,3.19c0.18,0.91,0.27,2.82,0,3.7c-0.2,0.66-0.97,1.9-1.53,2.3
		c-0.54,0.38-2.32,0.02-2.55,0.64c-0.17,0.43,0.68,1.22,1.02,1.53c0.51,0.46,1.89,0.85,2.43,1.28c0.8,0.63,2.18,2.18,2.68,3.06
		c0.73,1.31,1.24,4.34,1.79,5.74c0.59,1.51,1.9,4.52,2.81,5.87c0.93,1.39,3.3,3.78,4.47,4.98c0.95,0.97,2.7,3.2,3.96,3.7
		c0.65,0.26,2.12-0.12,2.81,0c0.87,0.15,2.45,1,3.32,1.15c0.6,0.1,1.85,0.2,2.43,0c0.73-0.25,1.95-1.31,2.43-1.91
		c0.37-0.47,1.04-1.57,1.02-2.17c-0.02-0.59-0.92-1.5-1.15-2.04c-0.4-0.95-1.25-2.93-1.15-3.96c0.12-1.25,1.76-3.33,2.3-4.47
		c0.48-1.01,1.74-2.97,1.79-4.09c0.05-1.18-0.94-3.45-1.53-4.47c-0.63-1.07-2.94-3.32-3.32-3.7c-0.38-0.38-2.89-3.18-2.68-4.47
		c0.2-1.18,2.95-2.17,3.57-3.19c0.48-0.79,0.91-2.65,0.89-3.57c-0.01-0.7-0.64-2.17-0.26-2.81c0.38-0.64,1.88-1.58,1.79-2.3
		c-0.15-1.11-2.98-1.69-3.7-2.55c-0.6-0.73-1.42-2.51-1.53-3.45c-0.08-0.71-0.04-2.35,0.51-2.81c0.42-0.35,1.64-0.12,2.17,0
		c1.11,0.26,2.95,1.95,4.09,2.04c0.53,0.04,1.68-0.25,2.04-0.64c0.36-0.38,0.45-1.52,0.51-2.04c0.12-0.95,0-2.87,0-3.83
		c0-0.64-0.37-2.03,0-2.55c0.27-0.39,1.32-0.53,1.79-0.64c1.6-0.36,4.93-0.23,6.51-0.64c1.11-0.28,3.28-1.13,4.21-1.79
		c0.89-0.62,2.64-2.15,2.94-3.19c0.37-1.31-0.51-4.09-1.02-5.36c-0.44-1.09-1.75-3.1-2.55-3.96c-0.76-0.82-2.87-1.81-3.57-2.68
		c-0.42-0.51-1.02-2.17-0.64-2.55c0.38-0.38,2.67-0.86,3.57-0.77c1.65,0.18,4.82,1.35,6.26,2.17c0.68,0.39,1.79,1.53,2.81,1.4
		c1.02-0.13,4.42-2.65,5.49-3.96c1.4-1.71,4.09-7.28,4.21-7.79c0.13-0.51,3.63-4.52,4.47-6.26c0.61-1.28,0.96-4.14,1.4-5.49
		c0.37-1.11,1.19-3.33,1.79-4.34c0.49-0.84,2.21-2.11,2.43-3.06c0.28-1.25-0.75-3.76-1.15-4.98c-0.23-0.69-1.12-1.95-1.15-2.68
		c-0.04-0.98,0.67-2.93,1.28-3.7c0.66-0.84,2.68-1.73,3.57-2.3c1.27-0.81,3.72-2.6,5.11-3.19c0.95-0.4,3.57-0.89,3.96-1.15
		c0.38-0.26,1.63-2.7,2.55-3.06c0.93-0.37,2.97,0.48,3.96,0.64c0.57,0.09,1.73,0.49,2.3,0.38c0.87-0.16,2.41-1.19,3.06-1.79
		c0.76-0.69,1.95-2.41,2.43-3.32c0.72-1.38,1.56-4.4,2.04-5.87c0.81-2.48,2.55-7.4,3.06-9.96c0.32-1.6,0.56-4.88,0.64-6.51
		c0.1-1.94,0.13-5.84,0-7.79c-0.1-1.48-0.98-4.41-0.77-5.87c0.14-0.93,1.04-2.64,1.53-3.45c1.6-2.65,5.77-7.26,7.66-9.7
		c1.13-1.46,3.6-4.25,4.47-5.87c0.51-0.95,1.14-3.04,1.4-4.09c0.39-1.57,1.16-4.77,1.02-6.38c-0.11-1.28-0.88-3.83-1.66-4.85
		c-0.66-0.86-2.54-2.11-3.57-2.43c-0.85-0.26-2.71,0.22-3.57,0c-1.12-0.28-3.19-1.44-4.09-2.17s-2.22-2.67-2.94-3.57
		c-0.55-0.69-1.41-2.35-2.17-2.81c-1.11-0.67-3.82-0.71-5.11-0.89c-1.18-0.17-3.54-0.43-4.72-0.51c-0.92-0.07-2.78-0.02-3.7-0.13
		c-0.97-0.11-2.86-0.91-3.83-0.77c-0.4,0.06-1.1,0.51-1.4,0.77c-0.55,0.47-1.07,2.19-1.79,2.3c-0.5,0.08-1.41-0.71-1.66-1.15
		c-0.43-0.75-0.06-2.6-0.26-3.45c-0.12-0.5-0.44-1.52-0.77-1.91c-0.77-0.92-2.99-2.06-4.09-2.55c-0.94-0.42-2.93-1.18-3.96-1.15
		c-0.68,0.02-2.01,0.49-2.55,0.89c-0.68,0.49-1.53,2.04-2.17,2.55c-0.64,0.51-3.21,2.21-4.47,2.3c-0.53,0.04-1.77-0.18-2.04-0.64
		c-0.31-0.53,0.16-1.92,0.51-2.43c0.6-0.87,3.09-1.35,3.57-2.3c0.31-0.6,0.22-2.11-0.13-2.68c-0.5-0.82-2.36-1.96-3.32-1.91
		c-1.1,0.05-2.72,1.86-3.57,2.55c-0.74,0.6-2.3,1.75-2.81,2.55c-0.37,0.59-0.77,2.55-1.15,2.55c-0.38,0-2.47,0.19-2.94-0.38
		c-0.4-0.49-0.05-1.94,0.13-2.55c0.18-0.63,0.85-1.8,1.28-2.3c0.71-0.83,2.61-1.98,3.45-2.68c0.69-0.58,2.24-1.64,2.68-2.43
		c0.41-0.74,0.85-2.5,0.64-3.32c-0.11-0.44-0.93-1.01-1.15-1.4c-0.61-1.12-1.1-3.65-1.53-4.85c-0.46-1.29-1.24-3.99-2.04-5.11
		c-1.12-1.56-4.28-3.9-5.87-4.98c-0.9-0.61-2.79-1.75-3.83-2.04c-1.05-0.29-3.26-0.32-4.34-0.26c-0.91,0.05-2.67,0.68-3.57,0.64
		c-1.12-0.05-3.31-0.7-4.34-1.15c-0.76-0.33-2.17-1.26-2.81-1.79c-1.15-0.95-3.15-3.18-4.09-4.34c-0.63-0.78-1.59-2.6-2.3-3.32
		c-0.91-0.91-3.14-2.24-4.21-2.94c-0.72-0.47-2.21-1.33-2.94-1.79c-0.39-0.25-1.53-0.56-1.53-1.02c0-0.46,1.28-0.64,1.53-1.02
		c0.37-0.55,0.75-1.98,0.51-2.6c-0.2-0.53-1.23-1.44-1.79-1.36c-0.42,0.06-0.81,0.99-1.02,1.36c-0.28,0.49-0.42,1.77-0.89,2.09
		c-0.4,0.26-1.45,0.11-1.91,0c-1.14-0.27-3.04-1.96-4.21-2.09c-0.85-0.09-2.47,0.68-3.32,0.81c-0.6,0.09-1.82,0.16-2.43,0.13
		c-1.36-0.08-4.06-0.53-5.36-0.94c-1.07-0.33-3.09-1.35-4.09-1.87c-0.89-0.46-2.66-1.43-3.45-2.04c-0.57-0.44-1.4-1.72-2.04-2.04
		c-0.58-0.29-1.91-0.47-2.55-0.38c-0.79,0.1-2.3,0.79-2.94,1.28c-0.52,0.4-1.4,1.79-1.79,1.91c-0.38,0.13-1.01,1.79-0.89,2.43
		c0.11,0.64,1.34,1.53,1.4,2.17c0.07,0.68-0.95,1.87-1.02,2.55c-0.05,0.45,0.13,0.77-1.66,0.77s-3.31-0.82-3.57-1.79
		c-0.29-1.08,0.97-3.23,1.15-4.34c0.15-0.92-0.05-2.83,0.26-3.7c0.26-0.73,1.79-1.77,1.79-2.55c0-0.5-0.66-1.52-1.15-1.66
		c-0.77-0.22-2.43,1.02-2.81,1.53c-0.38,0.51-0.27,1.74-0.64,2.17c-0.44,0.5-1.91,0.58-2.55,0.77c-0.95,0.27-2.97,0.54-3.83,1.02
		c-0.89,0.5-2.34,1.99-2.94,2.81c-0.91,1.26-1.58,4.52-2.68,5.62c-0.63,0.63-2.34,1.28-3.19,1.53c-1.11,0.33-3.47,0.91-4.6,0.64
		c-1.4-0.34-3.35-2.88-4.72-3.32c-1.49-0.47-4.73-0.36-6.26,0c-0.83,0.2-2.21,1.47-3.06,1.53c-1.47,0.11-4.36-1.02-5.62-1.79
		c-0.97-0.59-2.65-2.24-3.19-3.23c-0.45-0.82-0.73-2.73-0.83-3.66c-0.13-1.14-0.1-3.45,0-4.6c0.15-1.68,0.97-4.97,1.21-6.64
		c0.18-1.24,0.77-3.75,0.51-4.98c-0.18-0.86-1.06-2.49-1.72-3.06c-0.82-0.7-2.97-1.31-4.02-1.53c-1.44-0.3-4.4-0.27-5.87-0.26
		c-1.18,0.01-4.09,0.26-4.72,0.26c-0.64,0-3.56-1.44-3.83-2.55c-0.15-0.61,0.75-1.73,1.02-2.3c0.76-1.61,2.22-4.88,3.19-6.38
		c0.96-1.49,3.71-3.89,4.47-5.49c0.62-1.32,1.6-4.35,1.15-5.74c-0.21-0.67-1.39-1.65-2.04-1.91c-1.27-0.52-4.13-0.34-5.49-0.13
		c-0.77,0.12-2.3,0.58-2.94,1.02c-0.78,0.54-1.97,2.1-2.43,2.94c-0.46,0.85-0.55,2.94-1.15,3.7c-0.55,0.69-2.31,1.32-3.06,1.79
		c-1.12,0.69-4.09,2.68-4.47,2.81c-0.38,0.13-5.14,1.5-6.89,1.4c-1.3-0.07-3.91-0.79-4.98-1.53c-1.16-0.8-2.8-3.21-3.45-4.47
		c-1.07-2.07-2.4-6.62-2.68-8.94c-0.23-1.9,0.07-5.77,0.38-7.66c0.3-1.8,1.33-5.34,2.04-7.02c0.4-0.95,1.78-2.58,2.04-3.57
		c0.25-0.93-0.1-2.88,0-3.83c0.14-1.34,1.02-4.85,1.28-5.23c0.26-0.38,2.17-2.81,3.19-2.81c1.02,0,4.61-0.17,6-0.77
		c1.11-0.47,2.84-2.24,3.83-2.94c0.94-0.66,3.57-2.3,3.96-2.3s2.68-0.38,4.34,0.38s5.49,3.19,6.26,3.45s3.45,0.99,4.47,0.51
		c1.33-0.62,2.27-3.86,3.45-4.72c0.81-0.6,2.82-1.24,3.83-1.28c1.42-0.05,4.08,1.27,5.49,1.4c0.79,0.07,1.91-0.13,3.06,0.89
		s3.55-0.39,4.72-0.26c1.13,0.13,3.05,1.6,3.83,2.43c1.03,1.09,2.68,4.85,2.43,5.49s-1.66,3.57-1.66,4.34s1.02,3.5,1.53,4.6
		c0.45,0.96,1.79,3.32,2.04,3.7s3.02-0.68,3.7-1.4c0.66-0.7,1.4-3.19,1.4-3.57c0-0.38-0.2-3.65-0.38-4.85
		c-0.13-0.87-0.6-2.58-0.77-3.45c-0.36-1.84-1.46-5.53-1.28-7.4c0.17-1.77,1.49-5.21,2.55-6.64c1.13-1.51,4.43-3.55,6-4.6
		c2.57-1.71,8.15-4.42,10.72-6.13c1.57-1.05,4.83-3.11,6-4.6c0.83-1.05,2.08-3.53,2.3-4.85c0.19-1.14-0.51-3.44-0.51-4.6
		c0-0.93-0.22-2.99,0.38-3.7c0.38-0.46,1.71-0.71,2.3-0.64c0.58,0.07,1.49,1.33,2.04,1.15c0.83-0.28,0.92-2.47,1.4-3.19
		c0.72-1.07,2.47-3.04,3.57-3.7c0.68-0.41,2.33-0.58,3.06-0.89c0.81-0.35,2.41-1.18,3.06-1.79c0.74-0.69,1.51-2.69,2.3-3.32
		c0.62-0.49,2.18-0.91,2.94-1.15c1.31-0.41,4.06-0.82,5.36-1.28c0.93-0.32,2.85-0.99,3.57-1.66c0.67-0.62,1.32-2.4,1.79-3.19
		c0.55-0.94,1.49-2.97,2.3-3.7c1.34-1.22,4.82-2.54,6.51-3.19c1.49-0.58,4.62-1.27,6.13-1.79c1.75-0.59,5.1-2.23,6.89-2.68
		c1.06-0.26,3.38-1.03,4.34-0.51c0.31,0.17,0.7,0.92,0.64,1.28c-0.11,0.67-1.32,1.6-1.91,1.91c-0.56,0.3-1.91,0.38-2.43,0.77
		c-0.51,0.38-3.58,0.99-3.96,2.04c-0.18,0.5,0.44,1.64,0.89,1.91c1.12,0.68,4.01,0.2,5.23-0.26c1.26-0.47,3.01-2.72,4.21-3.32
		c1.21-0.61,3.93-1.05,5.23-1.4c1.31-0.35,4.22-0.51,5.23-1.4c0.44-0.39,1.23-1.69,0.89-2.17c-0.83-1.18-4.31,0.36-5.74,0.26
		c-1.2-0.09-3.66-0.33-4.72-0.89c-0.84-0.44-2.21-1.86-2.68-2.68c-0.32-0.57-0.67-1.9-0.64-2.55c0.03-0.78,0.57-2.3,1.02-2.94
		c0.61-0.87,3-1.66,3.32-2.68c0.2-0.64-0.25-2.13-0.77-2.55c-0.99-0.82-3.84-0.72-5.11-0.51c-1.07,0.18-2.98,1.31-3.96,1.79
		c-1.36,0.66-3.95,2.28-5.36,2.81c-0.89,0.34-2.95,1.48-3.7,0.89c-0.3-0.24-0.18-1.19,0-1.53c0.61-1.18,3.21-2.36,4.34-3.06
		c1.7-1.06,5.25-2.9,7.02-3.83c1.2-0.63,3.54-2.08,4.85-2.43c2.1-0.55,6.51-0.41,8.68-0.38c2.78,0.03,8.33,0.98,11.11,0.77
		c2.28-0.18,6.79-1.25,8.94-2.04c1.79-0.67,5.3-2.34,6.77-3.57c0.96-0.81,2.44-2.88,3.06-3.96c0.5-0.87,1.86-2.76,1.53-3.7
		c-0.38-1.11-2.94-2.06-4.09-2.3c-1.16-0.24-3.58,0.2-4.72,0.51c-0.81,0.22-2.28,1.7-3.06,1.4c-0.81-0.31-1.74-2.39-1.4-3.19
		c0.37-0.89,3.16-0.54,3.57-1.4c0.27-0.57-0.51-1.84-0.77-2.43c-0.28-0.64-1.1-1.79-1.4-2.43c-0.58-1.2-2.04-3.65-1.91-4.98
		c0.04-0.49,0.95-1.18,1.02-1.66c0.14-0.95-1.02-2.74-1.02-3.7c0-0.5,0.47-1.42,0.51-1.91c0.06-0.7,0.25-2.32-0.26-2.81
		c-0.34-0.34-1.44-0.22-1.91-0.13c-0.77,0.15-2.14,0.99-2.81,1.4c-0.72,0.45-2,1.55-2.68,2.04c-1,0.73-2.91,2.42-4.09,2.81
		c-0.82,0.27-2.63,0.4-3.45,0.13c-0.67-0.23-1.77-1.21-2.17-1.79c-0.4-0.58-0.92-1.98-0.89-2.68c0.03-0.73,1.02-1.96,1.15-2.68
		c0.13-0.69,0.13-2.16-0.13-2.81c-0.38-0.94-1.85-2.48-2.68-3.06c-1.01-0.71-3.42-1.43-4.6-1.79c-1.41-0.43-4.28-1.12-5.74-1.28
		c-1.17-0.13-3.59-0.33-4.72,0c-0.97,0.28-3.06,1.91-3.32,2.3c-0.26,0.38-1.66,3.39-2.3,4.47c-0.57,0.97-1.7,2.97-2.55,3.7
		c-0.83,0.72-3.22,1.1-3.96,1.91c-0.57,0.63-1.18,2.34-1.15,3.19c0.04,1.11,1.84,2.97,1.79,4.09c-0.05,1.06-1.37,2.89-2.04,3.7
		c-0.79,0.96-2.84,2.43-3.83,3.19c-0.68,0.52-2.17,1.53-2.94,1.79c-0.77,0.26-5.42,1.35-6.77,2.55c-0.62,0.55-1.26,2.15-1.53,2.94
		c-0.32,0.94-0.64,3.45-1.02,3.83c-0.38,0.38-2.43,4.6-2.55,4.98c-0.13,0.38-2.31,1.5-3.19,1.66c-0.88,0.16-2.83,0.36-3.57-0.13
		c-0.68-0.45-1.19-2.15-1.4-2.94c-0.21-0.77-0.43-2.41-0.26-3.19c0.25-1.12,1.84-2.91,2.3-3.96c0.31-0.7,0.93-2.17,0.89-2.94
		c-0.03-0.66-0.48-2.05-1.02-2.43c-1.1-0.77-4.08,0.15-5.36-0.26c-1.63-0.52-4.28-2.82-5.74-3.7c-0.78-0.47-2.33-1.49-3.19-1.79
		c-1.07-0.36-3.37-0.37-4.47-0.64c-0.85-0.21-2.65-0.59-3.32-1.15c-0.95-0.8-1.7-3.33-2.43-4.34c-0.58-0.81-2.53-1.95-2.68-2.94
		c-0.19-1.26,1.32-3.65,2.17-4.6c1.07-1.19,4.16-2.42,5.49-3.32c1.69-1.15,4.72-3.98,6.51-4.98c1.55-0.87,5.08-1.69,6.64-2.55
		c0.7-0.39,2.1-1.26,2.55-1.91c0.5-0.72,0.89-3.06,1.4-3.19c0.51-0.13,6.04,0.17,8.04,0c1.91-0.16,6.47,0.19,7.53-1.4
		c0.42-0.63-0.27-2.28-0.64-2.94c-0.43-0.77-2.71-1.56-2.55-2.43c0.09-0.48,1.3-0.77,1.79-0.77c0.96,0,3.19,1.4,3.57,1.4
		c0.38,0,3.21-0.92,4.21-1.4c0.77-0.37,2.11-1.56,2.94-1.79c0.86-0.24,2.68,0,3.57,0c1.28,0,3.84,0.17,5.11,0
		c0.95-0.13,2.84-0.6,3.7-1.02c0.68-0.33,1.81-1.35,2.43-1.79c1.16-0.82,3.94-2,4.72-3.19c0.56-0.84,1.26-3.08,0.77-3.96
		c-0.53-0.95-2.99-1.52-4.09-1.53c-0.85-0.01-2.43,0.79-3.19,1.15c-0.67,0.32-1.97,1.07-2.55,1.53c-0.68,0.53-1.73,1.92-2.43,2.43
		c-0.81,0.58-2.63,1.46-3.57,1.79c-1.08,0.37-3.44,1.39-4.47,0.89c-0.64-0.31-1.39-1.85-1.28-2.55c0.17-1.02,3.24-1.94,2.94-2.94
		c-0.24-0.78-2.38-0.56-3.19-0.64c-0.79-0.08-2.55,0.48-3.19,0c-0.72-0.54-1.07-2.55-1.02-3.45c0.04-0.66,0.96-1.77,1.02-2.43
		c0.06-0.72-0.08-2.36-0.64-2.81c-0.5-0.4-1.94-0.18-2.55,0c-1.08,0.31-3.45,2.17-3.7,2.55s-3.15,0.53-3.83,1.28
		c-0.3,0.34-0.44,1.38-0.26,1.79c0.28,0.63,2.01,0.9,2.3,1.53c0.31,0.67,0.03,2.32-0.38,2.94c-0.37,0.54-1.68,1.05-2.3,1.28
		c-0.89,0.33-2.87,0.32-3.7,0.77c-0.83,0.45-1.96,2.07-2.68,2.68c-0.54,0.46-1.62,1.44-2.3,1.66c-0.61,0.2-1.97,0.26-2.55,0
		c-0.52-0.23-1.07-1.33-1.53-1.66c-0.71-0.51-2.34-1.21-3.19-1.4c-0.75-0.17-2.31-0.28-3.06-0.13c-0.66,0.13-1.77,1-2.43,1.15
		c-0.62,0.14-1.92,0.11-2.55,0c-0.9-0.16-2.57-1.01-3.45-1.28c-1.04-0.32-3.13-0.95-4.21-1.02c-1.51-0.1-4.55,0.21-6,0.64
		c-1.16,0.34-3.38,1.42-4.34,2.17c-0.7,0.54-1.63,2.11-2.3,2.68c-0.37,0.32-1.18,1.08-1.66,1.02c-0.72-0.08-1.55-1.51-2.04-2.04
		c-0.7-0.77-1.74-2.75-2.68-3.19c-0.93-0.43-3.07-0.07-4.09,0c-1.41,0.1-4.21,0.93-5.62,0.77c-0.71-0.08-2.39-0.36-2.68-1.02
		c-0.21-0.47,0.91-1.42,0.77-1.91c-0.12-0.42-1-0.87-1.4-1.02c-0.75-0.28-2.42-0.02-3.19-0.26c-1.01-0.3-2.74-1.6-3.7-2.04
		c-0.74-0.34-2.28-0.92-3.06-1.15c-1.1-0.31-3.33-0.86-4.47-0.89c-0.93-0.03-2.89,0.05-3.7,0.51c-0.4,0.22-0.72,1.25-1.15,1.4
		c-0.71,0.25-2.25-0.33-2.94-0.64c-0.94-0.42-2.33-2.15-3.32-2.43c-0.96-0.26-3.03,0.02-3.96,0.38c-0.34,0.13-0.83,0.72-1.15,0.89
		c-0.58,0.32-1.9,0.68-2.55,0.64c-0.86-0.06-2.34-1.18-3.19-1.28c-0.61-0.07-1.84,0.19-2.43,0.38c-0.51,0.17-1.4,0.86-1.91,1.02
		c-0.93,0.29-3.45,0.38-3.83,0.64s-4.42,1.99-6,2.3c-1.72,0.34-5.27,0.42-7.02,0.26c-1.83-0.18-5.37-1.21-7.15-1.66
		c-2.73-0.68-8.09-2.42-10.85-2.94c-2.15-0.4-6.51-0.73-8.68-0.89c-1.43-0.11-4.32-0.06-5.74-0.26c-1.82-0.25-5.33-1.4-7.15-1.66
		c-1.77-0.25-6.77-0.38-7.15-0.38s-6.21,1.12-8.3,1.4c-2.32,0.32-7.03,0.43-9.32,0.89c-1.32,0.27-4.47,1.4-5.11,1.66
		c-0.64,0.26-4.47,1.91-4.98,2.3s-5.62,1.53-6.13,1.53c-0.51,0-3.37-0.23-4.47,0c-0.78,0.16-2.35,0.73-2.94,1.28
		c-0.5,0.47-1.33,1.74-1.28,2.43c0.06,0.75,1.55,1.71,1.79,2.43c0.13,0.39,0.2,1.3,0,1.66c-0.25,0.47-1.31,0.92-1.79,1.15
		c-1.24,0.58-3.87,1.56-5.23,1.66c-1.03,0.08-3.06-0.5-4.09-0.64c-1.08-0.15-3.26-0.69-4.34-0.51c-1.01,0.17-2.85,1.22-3.7,1.79
		c-0.68,0.45-2.49,1.36-2.43,2.17c0.03,0.41,1.03,0.71,1.4,0.89c1.13,0.55,3.47,1.58,4.72,1.66c0.75,0.05,2.25-0.34,2.94-0.64
		c0.57-0.25,1.45-1.24,2.04-1.4c0.49-0.14,1.66-0.22,2.04,0.13c0.43,0.39,0.58,1.75,0.38,2.3c-0.2,0.55-1.29,1.23-1.79,1.53
		c-0.74,0.45-2.81,1.15-3.19,1.4s-5.72,1.47-7.66,1.79c-1.65,0.27-5.02,0.34-6.64,0.77c-1.64,0.44-5.1,1.43-6.26,2.68
		c-0.48,0.52-0.99,1.98-0.89,2.68c0.11,0.8,1.72,1.88,1.79,2.68c0.05,0.56-0.52,1.63-0.89,2.04c-0.74,0.8-2.91,1.47-3.83,2.04
		c-0.47,0.29-1.64,0.75-1.79,1.28c-0.16,0.56,0.47,1.77,0.89,2.17c0.93,0.88,3.58,1.83,4.85,1.66c0.73-0.1,1.76-1.35,2.43-1.66
		c0.45-0.21,1.5-0.79,1.91-0.51c0.4,0.27,0.44,1.47,0.26,1.91c-0.14,0.34-0.85,0.69-1.15,0.89c-0.82,0.54-2.56,1.49-3.45,1.91
		c-2.29,1.08-7.03,2.92-9.45,3.7c-2.04,0.66-6.53,0.96-8.3,2.17C94.9,185.37,94.16,186.73,94.49,187.21z"/>
	<path class="st0" d="M388.2,657.03c-0.28,0.94-0.57,3.35,0,3.93s0.77,0.38,2.01,1.15s3.26,2.3,4.6,2.68s4.31,0.77,4.88,0.77
		s3.16-0.5,4.21-0.67c0.69-0.11,2.51,0.26,2.78-0.38c0.18-0.44-0.8-1.21-1.15-1.53c-0.77-0.72-2.65-1.73-3.54-2.3
		c-0.98-0.63-2.87-2-3.93-2.49c-0.84-0.4-2.71-0.74-3.54-1.15c-0.78-0.38-2.02-1.77-2.87-1.96c-0.68-0.16-2.22,0-2.78,0.43
		C388.54,655.75,388.32,656.63,388.2,657.03z"/>
	<path class="st0" d="M414.72,651.19c0.61,0.5,2.78,0.67,3.06,0.77c0.29,0.1,0.67,1.44,1.34,1.44c0.67,0,2.37-1.27,3.06-1.82
		c0.56-0.44,2.15-1.11,2.2-1.82c0.05-0.74-1.33-1.9-2.01-2.2c-0.85-0.38-2.8-0.05-3.73,0c-0.98,0.05-3.03-0.04-3.93,0.38
		c-0.34,0.16-0.99,0.69-1.05,1.05C413.57,649.59,414.25,650.81,414.72,651.19z"/>
	<path class="st0" d="M315.44,312.83c-0.68-0.4-0.6-2.65,0-3.16c0.44-0.38,1.97-0.1,2.3,0.38c0.25,0.37-0.12,1.37-0.38,1.72
		C317.02,312.21,315.91,313.11,315.44,312.83z"/>
	<path class="st0" d="M314.48,317.23c-0.5,0.55-0.29,2.78,0,2.97c0.29,0.19,1.77-0.15,2.11-0.57c0.45-0.57,1-2.36,0.48-2.87
		C316.59,316.29,314.92,316.75,314.48,317.23z"/>
	<path class="st0" d="M328.17,332.55c0.19-0.5,1.4-1.11,1.91-0.96c0.27,0.08,0.62,0.68,0.57,0.96c-0.09,0.6-1.22,1.76-1.82,1.63
		C328.41,334.08,328.02,332.97,328.17,332.55z"/>
	<path class="st0" d="M337.27,328.05c-0.84-0.21-3,0.76-3.06,1.63c-0.04,0.48,1.07,1.03,1.53,1.15c0.77,0.21,2.83,0.34,3.16-0.38
		C339.19,329.79,337.97,328.23,337.27,328.05z"/>
	<path class="st0" d="M354.79,347.49c-0.12,0.53,0.29,1.91,0.86,2.01c0.57,0.1,1.24,0.38,2.59,0s2.38-0.25,2.59-0.91
		c0.24-0.77-1.02-2.34-1.72-2.73c-0.71-0.39-2.54-0.39-3.26,0C355.41,346.09,354.89,347.02,354.79,347.49z"/>
	<path class="st0" d="M314.35,345.86c0.64,0.06,2.42,1.14,2.71,1.92c0.17,0.46-0.12,1.57-0.48,1.92c-0.41,0.4-1.67,0.55-2.23,0.48
		c-0.58-0.08-1.66-0.64-2.07-1.05c-0.37-0.36-1.12-1.33-0.96-1.82C311.58,346.5,313.52,345.78,314.35,345.86z"/>
	<path class="st0" d="M326.35,347.78c0.92,0.34,2.95,0.15,3.93,0.24c1.27,0.11,4.69,0.53,5.07,0.53c0.38,0,1.53,0.38,2.78,0.67
		s5.15-0.67,6.8-1.2c0.75-0.24,2.19-0.96,2.97-1.1c0.54-0.1,2.3,0,2.11-0.57s-2.59-2.39-2.87-2.59c-0.29-0.19-2.6-1.81-3.54-2.3
		c-0.7-0.36-1.91-0.77-3.06-0.67c-1.15,0.1-4.98,0.48-5.27,0.86c-0.29,0.38-1.63,0.19-2.11,1.24c-0.48,1.05-0.77,1.65-1.15,2.12
		c-0.25,0.31-0.57,0.56-1.34,0.85s-1.91,0.57-3.16,0.67c-1.24,0.1-2.47-0.54-2.68,0.1C324.67,347.08,325.9,347.61,326.35,347.78z"/>
	<path class="st0" d="M313.62,340.31c0.64,0.81,3.1-0.16,4.12,0c0.7,0.11,1.99,0.75,2.68,0.86c0.9,0.14,2.73,0,3.64,0
		c0.67,0,2.06,0.26,2.68,0c0.47-0.19,1.3-0.95,1.44-1.44c0.15-0.57-0.48-1.82-1.05-2.11c-0.57-0.29-1.97-1.09-2.68-1.34
		c-0.85-0.3-2.69-0.46-3.54-0.77c-0.68-0.25-2.01-0.89-2.59-1.34c-0.76-0.6-2.49-2.87-2.87-2.59c-0.38,0.29-3.06-1.36-4.12-1.72
		c-1.4-0.49-4.4-0.71-5.84-1.05c-0.66-0.16-1.92-0.67-2.59-0.77c-1.16-0.17-3.52-0.12-4.69,0c-0.97,0.1-2.9,0.47-3.83,0.77
		c-0.82,0.26-2.78,1.24-3.06,1.53s-0.4,0.94-0.19,1.15c0.45,0.45,1.91,0.42,2.54,0.29c0.57-0.12,1.53-0.91,2.11-1.01
		c0.57-0.1,2.15-0.91,2.63-0.91s2.82,0.1,3.4,0.34c0.57,0.24,1.87,0.67,2.44,0.96s3.5,1.6,4.6,2.25c1.14,0.68,4.16,2.97,4.31,3.11
		c0.14,0.14,0.83,1.58,0.86,2.15C314.02,339.1,313.36,339.98,313.62,340.31z"/>
	<path class="st0" d="M416.64,221.49c0.68,1.14,3.86,0.97,5.17,1.15c2.52,0.34,7.68,1.09,10.15,0.48c0.78-0.19,2.02-1.36,2.78-1.63
		c0.82-0.29,3.26-0.48,3.26-1.24c0-0.77-0.81-3.96-1.63-4.98c-0.42-0.52-2.01-1.34-2.3-1.34c-0.29,0-2.25-0.17-2.97-0.38
		c-0.88-0.26-3.04-0.66-3.35-1.53c-0.32-0.91,2.43-2.79,1.72-3.45c-0.63-0.58-2.59,1.53-2.97,1.72c-0.38,0.19-2.78,1.44-3.54,2.39
		s-4.02,2.49-4.6,3.64C417.79,217.47,415.94,220.32,416.64,221.49z"/>
	<path class="st0" d="M365.51,157.53c0.42,0.4,2.74-0.52,3.64-0.77c0.91-0.25,2.7-0.97,3.64-1.05c1.03-0.09,3.83,0.38,4.02,0.91
		c0.19,0.53,1.72,1.58,1.91,1.29c0.19-0.29,1.05-1.53,1.05-2.2s-0.57-2.2-0.86-2.39c-0.29-0.19-2.33-1.76-3.06-2.39
		c-0.5-0.43-1.44-1.34-2.3-1.34s-2.68-0.86-3.16,0c-0.48,0.86-0.86,1.05-1.82,1.91c-0.96,0.86-2.2,3.35-2.68,3.73
		S365.09,157.13,365.51,157.53z"/>
	<path class="st0" d="M395.1,154.18c0.91-0.29,3.35-1.15,3.64-1.15s3.08-0.07,3.73-0.77c0.37-0.39,0.29-1.91-0.96-1.91
		c-1.24,0-3.86-0.93-5.17-1.15c-1.18-0.19-4.4-0.19-4.69,0.86s-0.19,3.54,0.67,4.12C393.18,154.76,394.43,154.39,395.1,154.18z"/>
	<path class="st0" d="M404.29,152.74c0.02,1.25,1.72,3.54,2.68,4.21c0.96,0.67-0.29,1.53,2.68,2.87c2.97,1.34,0.67,1.05,4.02,2.11
		c3.35,1.05,4.12,1.53,5.07,1.53c0.96,0,2.11-0.77,1.34-1.15s-2.12-2.8-2.68-3.83c-0.24-0.44-0.96-1.82,0-2.01
		c0.96-0.19,3.06-0.57,3.45-0.38c0.38,0.19,1.05,0.48,2.2,1.05c1.15,0.57,2.54,1.15,3.45,1.34c0.29,0.06,1.05,0.1,1.05-0.53
		s0.57-3.64,0-4.38c-0.57-0.74-1.34-2.18-1.44-2.56c-0.1-0.38-0.77-2.97-0.38-2.97c0.38,0,2.3-1.51,3.16-1.82
		c0.93-0.34,2.39-0.29,3.73,1.34c1.34,1.63,2.59,2.39,3.26,2.59c0.67,0.19,2.97-0.48,3.54-0.96c0.57-0.48,1.72-1.63,1.72-2.01
		c0-0.38-0.77-2.01-1.24-2.3c-0.48-0.29-1.66-2.56-2.39-3.26c-0.74-0.69-3.06-1.72-3.45-2.11c-0.38-0.38-1.15-2.39-1.15-2.97
		s-0.25-2.33-0.67-2.97c-0.46-0.7-1.84-1.74-2.59-2.11c-0.64-0.32-2.13-0.36-2.78-0.67c-0.69-0.34-2.2-1.72-2.49-1.82
		s-2.11-1.44-2.78-2.39c-0.67-0.96-0.48-1.53-1.15-1.91c-0.67-0.38-1.34-0.57-1.72-0.38c-0.38,0.19-2.88,1.32-3.35,2.2
		c-0.19,0.36,0,0.67-1.63,0.1s-2.59-1.05-3.45-1.72s-2.25-1.54-2.97-2.11c-0.7-0.55-2.01-1.82-3.06-1.82s0.57-1.24-3.26,0
		c-3.83,1.24-3.95,0.81-4.98,1.63c-0.68,0.54-1.33,2.25-1.82,2.97c-0.32,0.47-0.78,1.78-1.34,1.82c-0.64,0.05-1.75-1.18-1.82-1.82
		c-0.09-0.79,1.27-2.02,1.72-2.68c0.43-0.63,2.16-1.78,1.82-2.47c-0.35-0.69-2.34,0.1-3.11,0c-0.56-0.07-1.39-0.36-2.25,0
		c-0.86,0.36-3.93,1.51-4.21,1.8c-0.29,0.29-0.67,0.86-2.01,1.82c-1.34,0.96-2.78,1.91-3.26,2.39c-0.48,0.48-2.01,1.05-0.86,2.39
		c1.15,1.34,3.53,3.6,5.07,4.12c0.86,0.29,3.26,0.1,3.64-0.1c0.38-0.19,2.77-2.11,3.88-2.01c1.1,0.1-2.63-1.82,1.96,0.38
		c4.6,2.2,4.69,2.11,5.07,2.2c0.38,0.1,4.5-0.19,5.07-0.67c0.57-0.48,2.22-1.49,3.06-1.44c0.77,0.05,2.11,1.15,2.68,1.53
		s3.35,2.84,4.21,4.02c0.62,0.86,1.72,3.35,2.01,3.73c0.29,0.38,1.15,0.53,2.2,1.27c1.05,0.74,3.77,1.4,4.12,2.56
		c0.21,0.69-0.69,2.14-1.24,2.59c-0.38,0.31-1.63,0.38-1.91,0.38s-3.13,0-4.12-0.29c-0.68-0.2-1.78-1.32-2.49-1.34
		c-1.22-0.03-3.43,1.37-4.4,2.11c-0.78,0.6-2.05,2.14-2.59,2.97C404.87,151.27,404.28,152.22,404.29,152.74z"/>
	<path class="st0" d="M368.67,125.07c0.97,0.07,2.97-1.82,3.45-1.82c0.48,0,2.39,0.48,3.06,0c0.67-0.48,2.51-0.64,3.32-0.96
		c0.49-0.19,1.67-0.63,1.76-1.15c0.12-0.71-1.11-1.98-1.76-2.3c-0.57-0.28-1.92-0.1-2.55,0c-1.12,0.18-3.19,1.23-4.31,1.39
		c-0.64,0.09-2.3-0.04-2.59,0c-0.29,0.04-1.72,0.33-1.72,1.1c0,0.77-0.07,2.24,0.29,2.87C367.78,124.51,368.33,125.05,368.67,125.07
		z"/>
	<path class="st0" d="M354.21,128.14c0.96-0.03,2.49-1.72,3.45-1.72s3.73-0.67,4.02-0.77c0.29-0.1,1.72-1.91,1.72-2.49
		c0-0.57,0-2.67,0-2.92s-1.24-0.11-1.63,0c-1.07,0.3-3.01,1.88-4.12,1.72c-0.47-0.07-0.77-0.62-1.91,0
		c-1.15,0.62-2.68,1.29-2.97,1.29c-0.29,0-0.19-0.19-1.44-0.19s-3.16-0.77-3.35-0.29c-0.19,0.48,1.72,2.39,2.3,2.87
		C350.86,126.13,353.05,128.18,354.21,128.14z"/>
	<path class="st0" d="M346.84,135.03c0.46-0.3,1.53-1.44,1.82-1.24c0.29,0.19,2.28,0.67,2.78,1.24c0.28,0.32,0.29,1.05,0,1.72
		c-0.29,0.67-0.29,0.48-1.34,1.34c-1.05,0.86-2.42,1.2-3.26,1.53c-0.35,0.14-0.57,0.29-1.44-0.48c-0.86-0.77-2.57-1.59-2.39-2.42
		C343.22,135.7,345.97,135.61,346.84,135.03z"/>
	<path class="st0" d="M329.8,126.13c0.84-0.17,3.5-1.59,4.02-2.68c0.2-0.42-0.1-1.53,1.15-1.48c1.24,0.05,2.62-0.58,3.16,0
		c0.55,0.59-0.19,1.96-0.86,3.11c-0.67,1.15-1.82,1.92-1.82,2.3s0.24,2.02,0.57,2.58c0.29,0.48,1.45,1,1.63,1.53
		c0.18,0.55-0.03,1.83-0.38,2.28c-0.56,0.72-2.97,1.26-3.3,1.55s-1.01,0.99-2.54,1.41c-1.53,0.41-2.49,0.89-3.54,0.51
		s-3.72-0.7-4.6-1.53c-0.39-0.37-0.67-1.72-1.91-0.96c-1.24,0.77-4.02,1.85-4.21,1.98s-1.82,1.13-2.49,1.37
		c-0.97,0.35-3.73,0.77-4.02,0.96s-2.2,0.1-3.35,0.1c-1.15,0-3.18-0.72-4.21-1.05c-0.72-0.23-1.15-0.35-2.68-1.37
		c-1.53-1.02-4.15-1.84-3.73-2.96c0.37-0.99,3.16-0.09,4.21,0c0.26,0.02,0.48,0.08,1.05,0c0.57-0.08,4.18,0.38,5.17-0.46
		c0.22-0.19,0.19-0.77,0-1.15s-1.05-2.2-1.82-2.2s-1.91,0-3.54,0s-2.2,0.38-2.3,0s1.97-1.2,2.39-1.82c0.11-0.16,0.1-0.67,0-0.77
		s-2.11-1.63-2.59-1.44s-1.92-0.71-2.59-0.86c-0.96-0.23-3.16,0-3.93,0.48s-3.45,1.05-4.12,1.82c-0.67,0.77-1.15,1.15-2.59,1.44
		c-1.44,0.29-3.42,0.78-4.4,0.29c-0.71-0.36-1.63-2.2-0.48-3.16c1.15-0.96,1.44-2.11,3.16-2.49c1.72-0.38,3.74-1.36,4.88-2.01
		c1.25-0.71,3.51-2.61,4.88-3.06c0.91-0.3,2.88-0.15,3.83-0.29c0.87-0.13,2.57-0.63,3.45-0.77c1.26-0.2,3.06-0.29,5.07,0.57
		c2.01,0.86,4.12,1.15,4.21,1.44c0.1,0.29-0.29,1.73,0,2.2c0.47,0.76,1.72,0.77,3.35,1.24s4.21,0.57,4.6,0.67
		c0.38,0.1,0.77,0.61,2.01,0.69s1.72,0.31,2.68,0s2.16-1.12,2.78-1.65c0.14-0.12,0.29-0.29,0.67,0.29c0.38,0.57,1.24,2.68,1.34,2.97
		C328.17,126.03,329.37,126.22,329.8,126.13z"/>
	<path class="st0" d="M385.14,115.98c0.37,0.44,1.72-0.38,8.14,0.1c6.41,0.48,5.84-0.67,8.81,0.57c2.97,1.24,4.31,0.96,5.55,1.34
		c1.24,0.38,3.73,1.53,4.88,0.86c1.15-0.67,2.66-1.22,3.16-2.01c0.36-0.57,0.76-2.12,0.38-2.68c-0.59-0.88-3.07-0.88-4.12-1.05
		c-1.23-0.2-2.78-0.19-4.98,0.19c-2.2,0.38-3.28,0.65-4.12,1.34c-0.44,0.36-0.67,0.86-2.25-0.29c-1.58-1.15-2.73-1.72-3.69-2.3
		c-0.96-0.57-2.78-1.82-3.93-1.82c-1.15,0-2.3-0.67-3.45,0c-1.15,0.67-3.93,2.3-3.93,2.59
		C385.62,113.11,384.62,115.37,385.14,115.98z"/>
	<path class="st0" d="M397.11,101.43c1.09,1.15,5.94,0.29,6.32,0.57c0.38,0.29-1.24,2.97,2.2,1.34c3.45-1.63,3.22-1.53,4.2-1.91
		c0.98-0.38,2.42-1.57,2.32-2.39c-0.14-1.16-2.36-2.74-3.45-3.16c-1.32-0.51-4.27-0.31-5.65,0c-1.6,0.36-5.06,1.39-5.94,2.78
		C396.73,99.23,396.63,100.92,397.11,101.43z"/>
	<path class="st0" d="M411.47,109.47c1.15-0.08,3.83,0,4.6,0c0.77,0,3.54,0.29,4.4,0.86s0.77,1.34,2.78,1.15
		c2.01-0.19,2.87-1.05,5.65-2.01c2.78-0.96,7.95-3.16,9-3.93c1.05-0.77,1.82-2.78,5.36-3.35c3.54-0.57,8.71-1.34,9.57-1.44
		c0.86-0.1,7.66-1.15,8.04-1.34c0.38-0.19,4.3-1.52,5.65-2.2c1.5-0.75,5.07-3.26,5.74-3.45c0.67-0.19,5.64-1.86,5.07-3.26
		c-0.57-1.42-4.54,0.64-6.03,0.96c-1.42,0.3-3.26,0.86-5.74,0.86c-2.49,0-6.25,0.09-8.33,0.1c-1.82,0-5.46-0.18-7.28-0.1
		c-1.99,0.09-6.61,0.67-7.95,0.77c-1.34,0.1-11.78,0-12.54,0s-4.36,0.08-5.65,0.67c-0.19,0.09-0.86,0.77-0.38,0.77
		c0.48,0,11.97,1.34,12.54,1.34s4.02-0.57,4.5,0c0.48,0.57,0.76,1.2,0.67,1.63c-0.16,0.78-1.53,2.34-2.11,2.37
		c-0.57,0.03-5.94,0.26-6.61,0c-0.67-0.26-5.04-0.22-6.7-0.45c-1.05-0.15-2.68-0.67-4.21-0.38s-3.46,1.05-3.26,1.98
		c0.14,0.65,1.96,0.5,2.49,0.89c0.35,0.25,0.96,1.24,0.77,1.53c-0.19,0.29-2.53,1.22-3.45,1.24c-0.93,0.03-3.18-1.63-3.64-0.82
		c-0.29,0.51,1.56,1.1,1.63,1.68c0.05,0.49-0.77,1.24-1.53,1.24s-5.74,0.57-6.03,0.57s-3.45,0.57-3.88,0.57s-2.52-0.93-2.82-0.29
		c-0.35,0.75,1.63,1.98,2.39,2.29c0.89,0.36,2.87,0.06,3.83,0C408.89,109.88,410.6,109.53,411.47,109.47z"/>
	<path class="st0" d="M450.15,109.94c0.47,0.21,2.55,1.32,4.47,1.57c1.91,0.26,4.98,1.28,6.51,0.9c1.53-0.38,6-1.53,6.38-1.53
		c0.38,0,3.88,0.91,4.98,1.62c1.24,0.8,3.25,3.04,4.09,4.26c0.55,0.8,1.25,2.62,1.66,3.5c0.35,0.75,1.63,2.21,1.4,3.01
		c-0.08,0.28-0.38,0.26,0,1.15c0.38,0.89-0.61,1.91,1.04,2.04s1.64-0.89,2.28,0c0.64,0.89,1.02,2.68,1.02,3.32
		c0,0.64,1.7,2.21,2.04,3.06c0.33,0.84,0.13,2.17-1.4,3.32c-1.53,1.15-1.63,1.66-3.94,2.43c-2.31,0.77-7.42,5.74-7.42,6.13
		s-1.4,2.55-1.4,3.57s2.2,2.42,2.3,3.45c0.08,0.83-1.5,2.03-1.79,2.81c-0.35,0.96-0.51,3.7-0.26,4.09s1.34,3.81,2.17,4.85
		c0.42,0.53,1.4,1.02,2.3,1.4s4.12,0.51,4.1,1.02s0.75,1.28,1.39,2.43c0.64,1.15,2.18,2.55,3.96,2.04c1.78-0.51,3.32,0.26,4.59-1.28
		c1.28-1.53,2.93-4.18,3.83-5.62c0.98-1.56,2.81-4.47,3.7-6.38c0.89-1.91,3.06-4.72,4.85-5.23c1.79-0.51,6.38-2.55,7.15-2.68
		s6-1.02,6.64-1.02s4.27-1.09,5.62-1.66c1.25-0.53,3.96-2.04,4.72-2.68c0.77-0.64,2.68-3.3,3.45-3.63c0.77-0.33,4.98-1.99,6-1.99
		s3.84-0.14,5.11,0c1.12,0.12,3.45,0.77,4.47,0.64c1.02-0.13,6.77-2.3,7.28-2.68s-1.02-0.77,1.91-0.51
		c2.94,0.26,3.84,0.93,4.85,0.26c0.63-0.42,1.48-2.13,1.15-2.81c-0.36-0.74-2.36-0.92-3.19-0.89c-0.78,0.02-2.17,0.89-2.94,1.02
		c-0.5,0.09-1.67,0.35-2.04,0c-0.4-0.37-0.43-1.72-0.13-2.17c0.45-0.67,2.59-0.37,3.06-1.02c0.3-0.41-0.13-1.55,0-2.04
		c0.1-0.39,0.39-1.28,0.77-1.4c1.17-0.39,3.91,0.95,4.47,2.04c0.27,0.52-0.13,0.64,1.79,1.53c1.91,0.89,3.35,1.17,3.96,0.38
		c0.49-0.62,0.43-2.5,0-3.16c-0.57-0.88-2.95-1.12-3.83-1.69c-0.83-0.54-2.43-1.82-2.94-2.68c-0.36-0.61-1.1-2.22-0.64-2.76
		c0.57-0.65,2.58,0.34,3.45,0.33c2.01-0.02,7.4-0.89,7.91-1.4c0.51-0.51,5.54-3.14,6.89-4.72c0.38-0.45,0.64-1.4,0.89-2.17
		s1.55-3.09,1.79-4.21c0.1-0.47,0-1.44,0-1.91c0-0.45-0.13-1.36,0-1.79c0.3-0.97,1.47-2.76,2.3-3.35c0.54-0.39,1.92-0.52,2.55-0.73
		c1.16-0.39,4.21-1.66,4.6-1.66s3.27,0.19,4.34,0c1.44-0.26,4.93-0.69,5.49-2.04c0.17-0.42-0.36-1.44-0.77-1.66
		c-1.39-0.75-4.68,0.78-6.26,0.89c-1.11,0.08-3.36,0.13-4.47,0c-0.98-0.11-2.94-0.49-3.83-0.89c-1.04-0.47-2.63-2.27-3.7-2.68
		c-1.35-0.51-4.98-0.51-5.74-0.51c-0.77,0-3.86,0.83-5.11,0.51c-1.19-0.31-2.3-1.66-4.6-1.72c-2.3-0.06-3.06-0.32-4.85,0
		c-1.79,0.32-3.42,1.39-4.6,1.72c-0.8,0.23-2.68,0.26-3.32,0.13c-0.64-0.13-3.96-1.02-5.36-1.02c-1.4,0-3.83-0.64-5.49,0.13
		c-1.66,0.77-3.86,1.81-5.23,2.17c-1.93,0.51-7.15,1.02-7.91,1.02c-0.77,0-3.06-0.13-4.6-0.13s-3.55-0.15-4.72,0
		c-1.37,0.18-4,1.17-5.36,1.4c-1.26,0.22-4.34,0.38-5.11,0.38s-5.74-1.18-7.66-1.53c-1.59-0.29-4.77-0.87-6.38-0.89
		c-2.31-0.03-6.96,0.42-9.19,1.02c-2.19,0.6-6.06,3.29-8.3,3.7c-1.33,0.24-2.17-0.13-5.23,1.28c-3.06,1.4-5.74,3.57-7.53,3.83
		s-6.53-0.07-8.68,0.26c-1.49,0.23-4.85,0.58-5.74,1.79C449.53,106.61,449.2,109.51,450.15,109.94z"/>
	<path class="st0" d="M564.47,155.23c0.49,0.01,2.87,2.21,4.02,2.49c1.22,0.3,3.76-0.29,4.98-0.57c1.43-0.34,4.79-1.72,5.55-1.91
		c0.77-0.19,4.09-0.73,5.17-1.53c0.61-0.45,1.53-2.3,1.44-2.68c-0.1-0.38-1.63-1.93-2.39-2.2c-1.18-0.41-3.77-0.3-4.98,0
		c-0.88,0.22-2.31,1.55-3.21,1.72c-0.6,0.12-1.9,0-2.44-0.29c-0.8-0.42-1.72-1.91-3.06-1.91c-1.34,0-3.54,0.29-5.07,1.44
		s-2.39,1.82-3.45,2.49c-1.05,0.67-1.82-1.72-1.44,0.77c0.38,2.49,0.19,2.68,1.05,2.68S563.5,155.22,564.47,155.23z"/>
	<path class="st0" d="M610.71,132.64c-0.35-0.17-2.68,0.1-2.68,0.96c0,0.86,0.82,1.72,1.34,1.63c0.67-0.12,1.72-1.43,1.72-2.11
		C611.1,132.96,610.85,132.7,610.71,132.64z"/>
	<path class="st0" d="M595.11,193.34c-2.22,1.38-3.26-0.19-3.16,1.53c0.1,1.72,2.39,1.24,1.58,2.87c-0.81,1.63-1.96,2.68-2.34,3.64
		s-3.26-0.86-1.05,2.3c2.2,3.16,2.41,4.35,3.45,3.64c1.18-0.81,0-2.78,4.4-3.64c4.4-0.86,5.09-0.6,6.13-1.82
		c0.97-1.14,1.43-4.27,2.01-5.65c0.38-0.9,1.82-3.73,0.77-3.83c-1.05-0.1-1.53-1.34-3.83-1.24c-2.3,0.1-4.88-0.48-5.84,0.38
		C596.26,192.38,595.7,192.97,595.11,193.34z"/>
	<path class="st0" d="M613.68,198.41c-0.84,0.25-2.94,1.25-2.78,2.11c0.08,0.45,2.01,0.57,0,1.82c-2.01,1.24-2.3,1.05-2.3,1.44
		s2.39,1.53,3.26,1.91c0.86,0.38,1.67,1.72,1.34,2.3c-0.67,1.17-4.6,1.34-5.07,1.82c-0.48,0.48,3.45,1.34,3.73,1.34
		s4.97-1.25,6.61-1.72c0.79-0.23,2.78-0.86,3.16-0.86c0.38,0,4.02,0.33,5.07-0.38c1.11-0.75,1.84-3.57,2.39-4.79
		c0.26-0.57,1.26-1.75,0.96-2.3c-0.67-1.21-4.44,0.07-5.46-0.86c-0.77-0.71-0.86-3.54-1.15-4.02c-0.29-0.48-2.49-4.02-2.87-4.31
		s-3.05-2.23-3.73-3.26c-0.37-0.55-0.91-1.83-0.86-2.49c0.07-0.86,1.79-2.21,1.63-3.06c-0.11-0.58-1.35-1.17-1.82-1.53
		c-0.65-0.49-2.12-1.23-2.68-1.82c-0.25-0.26-0.4-1.23-0.77-1.24c-1.53-0.08-3.33,3.4-3.73,4.88c-0.37,1.35-0.11,4.39,0.67,5.55
		c0.51,0.76,2.2,1.24,2.97,2.1c0.77,0.87,2.04,1.7,2.39,2.49c0.51,1.14,1.18,4.11,0.29,4.98
		C614.7,198.73,613.98,198.33,613.68,198.41z"/>
	<path class="st0" d="M677.3,104.25c-0.65,0.16-2.44-0.19-2.63-0.34c-0.19-0.14,0.77-1.15-1.2-1.15s-4.6-0.1-6.13-0.1
		c-1.24,0-4.84,0.14-4.93,0.38c-0.1,0.24,0.03,1.74,0.34,2.2c0.39,0.59,1.87,1.34,2.25,1.68c0.38,0.34,2.82,2.06,3.54,1.91
		c0.72-0.14,2.63-1.24,2.82-1.24c0.19,0,1.44-0.57,1.24,0.19c-0.19,0.77-2.59,1.87-2.75,2.11c-0.17,0.24-1.32,1.1-0.22,1.58
		s2.87,1.15,3.4,1.53c0.53,0.38,1.82,1.1,2.25,1.48s2.54,0.19,2.78,0s2.73-2.11,3.06-2.54c0.34-0.43,1.29-1.58,1.58-2.35
		s0.48-1.48,0.48-2.59s-0.24-3.16-0.57-3.35c-0.34-0.19-1.22-1.28-1.77-1.34c-0.64-0.07-1.74,0.84-2.3,1.15
		C678.23,103.66,677.66,104.16,677.3,104.25z"/>
	<path class="st0" d="M685.82,106.84c0.12,0.08,2.92,1.96,2.92,2.11s-1.1,0.14,0,1.58c1.1,1.44,1.44,1.68,1.77,1.53
		c0.34-0.14,1.87-2.35,2.54-1.77c0.67,0.57,1.91,1.75,2.11,1.81c0.19,0.06,2.84-0.32,2.87-1.09c0.05-1.32-3.54-1.81-4.69-2.47
		c-0.59-0.34-2.23-0.78-2.3-1.45c-0.08-0.78,1.49-2.01,2.25-2.2c0.44-0.11,1.01,0.29,1.77,0.43c0.77,0.14,2.7,0.5,3.59,0.34
		c1.11-0.2,3.58-0.88,4.12-1.87c0.29-0.53-0.34-2.3-0.77-2.3s-4.5-0.05-4.84,0c-0.34,0.05-5.12,0.24-5.36,0.19
		c-0.24-0.05-3.69-1.05-3.88-1.05s-1.44,0.14-1.72,0.53s-1.64,2.35-1.63,3.26C684.59,105.08,685.24,106.48,685.82,106.84z"/>
	<path class="st0" d="M612.91,277.6c-1.64,0.53-8.62-1.15-9.19-1.53c-0.57-0.38-3.26-1.53-4.21-0.77s-2.96,3-3.64,4.21
		c-0.7,1.25-1.15,3.06-3.45,4.6s-5.74,1.53-6.51,3.45c-0.77,1.91-3.83,4.21-3.83,7.09s0,3.64-0.96,5.74
		c-0.96,2.11-2.3,2.11-6.13,4.79c-3.83,2.68-9.77,7.47-11.11,9.19c-1.34,1.72-3.26,9.38-4.21,11.3s-5.94,3.26-4.6,7.28
		c1.34,4.02,2.52,12.32,2.3,16.47c-0.12,2.29-1.41,7.66-2.53,8.81c-1.11,1.15,0.54,4.4,0,5.55c-0.54,1.15-0.63,5.94-0.39,6.89
		c0.24,0.96-1.64-0.77-0.12,1.91s3.04,3.26,4.19,4.21s0.77-4.6,4.21,3.64c3.45,8.23,3.25,7.52,5.17,9.38c1.95,1.9,5.55,7.85,6.13,9
		c0.57,1.15,1.53,4.6,4.6,5.74s7.47,1.72,8.43,1.72s9.52-2.43,10.53,0c0.46,1.11-0.19,0.19,4.79,0c4.98-0.19,6.1,0.62,8.04,0.09
		c1.77-0.49,4.24-3.61,5.94-4.3c2.24-0.9,7.27-0.61,9.57-1.34c2.11-0.67,7.47-3.83,8.43-2.68c0.96,1.15,3.26,2.11,4.02,3.83
		c0.77,1.72,1.57,5.4,3.06,6.32c1.75,1.08,6.19,0.25,8.23,0c2.38-0.29,8.62-2.11,9.57,0.77c0.96,2.87-0.22,9.81-0.77,13.02
		c-0.5,2.91-1.91,11.11-1.72,11.68c0.19,0.57,1.92,3.83,2.78,5.36c0.86,1.53,4.11,4.79,5.07,6.51c0.96,1.72,3.64,7.85,3.64,8.81
		s1.72,4.02,3.64,6.13s-0.1,5.17,0,6.89c0.08,1.52,2.63,3.86,2.87,5.36c0.33,2.01-1.64,6.03-1.34,8.04c0.18,1.2,1.53,3.06-0.77,4.79
		c-2.3,1.72-5.17,7.09-5.17,8.04c0,0.96-0.23,6.83,0.38,9c0.97,3.47,5.38,9.37,6.89,12.64c1.31,2.82,3.64,9.38,3.64,11.87
		s-0.09,10.64,0.19,14.17c0.24,2.97,1.15,7.85,3.83,11.3c2.68,3.45,6.92,6.31,8.43,9c0.76,1.37,1.25,4.56,1.34,6.13
		c0.09,1.58-0.57,5.74,0,6.32s2.49,3.64,3.26,3.64c0.77,0,5.71,0.39,7.55,0c1.62-0.34,4.4-2.49,6.04-2.68
		c1.31-0.15,3.86,1.09,5.17,0.96c1.8-0.18,5.02-2.04,6.7-2.68c2.24-0.85,7.31-1.57,9-3.26c1.88-1.87,2.12-7.79,3.64-9.96
		c1.58-2.25,6.28-5.37,8.43-7.09c1.49-1.19,4.79-3.64,4.79-5.94c0-2.3,0.57-6.32,0-7.09c-0.57-0.77,0.57-4.79,1.91-5.36
		c1.34-0.57,6.76-2.27,7.85-4.21c1.24-2.21-0.38-9.19,0-10.15s0-2.68,0-4.79s1.08-3.94,1.91-4.98c1.38-1.71,4.29-5.11,6.13-6.32
		c1.58-1.04,5.43-1.75,7.09-2.68c1.22-0.69,3.56-2.33,4.4-3.45c1.51-1.98,3.51-6.72,3.83-9.19c0.22-1.67-0.77-5.55-0.77-6.7
		s0.57-6.51,0.77-8.43s-1.15-3.26-2.87-5.94c-1.72-2.68-2.87-4.6-3.06-6.32c-0.19-1.72-0.95-8.58-0.19-11.3
		c0.67-2.42,3.84-6.49,5.17-8.62c1.21-1.94,3.4-6.01,4.98-7.66c1.26-1.31,4.77-2.81,5.94-4.21c1.15-1.39,2.3-4.98,3.83-6.13
		c1.53-1.15,5.27-3.95,7.09-5.17c0.91-0.62,1.53-0.96,3.64-2.49c2.11-1.53,6.49-4.35,7.85-6.51c1.72-2.73,2.28-9.44,3.45-12.45
		c1.03-2.65,4.51-7.38,5.17-10.15c0.54-2.23,1.38-7.36,0-9.19c-0.5-0.66-2.68-0.77-3.26-0.57s-5.01,2.04-6.7,2.68
		c-2.67,1.01-10.34,3.62-10.91,3.34s-5.97-0.43-7.47-1.62c-1.36-1.08-2.16-4.74-2.87-6.32c-0.73-1.62-1.76-5.12-2.87-6.51
		c-0.86-1.07-3.28-2.47-4.4-3.26c-0.88-0.62-2.87-1.91-3.64-2.3c-0.77-0.38-3.7-2.86-4.4-4.21c-0.51-0.98-0.77-3.64-1.34-4.21
		s-4.57-5.28-5.74-7.28c-0.55-0.94-1.42-2.97-1.72-4.02c-0.44-1.54-0.45-4.81-0.96-6.32c-1.12-3.31-4.95-9.23-6.7-12.26
		c-1.15-1.99-3.71-5.82-4.79-7.85c-1.13-2.14-2.94-6.64-4.02-8.81c-0.94-1.9-4.38-5.38-4.02-7.47c0.11-0.63,1.27-1.74,1.91-1.72
		c1.05,0.03,2.3,2.3,2.68,3.26s1.75,4.69,3.06,4.4c1.01-0.22,0.2-3.32,0.96-4.02c0.46-0.43,1.95-0.71,2.49-0.38
		c1,0.6,1.44,3.24,1.53,4.4c0.06,0.76-0.38,2.11,0,3.06c0.38,0.96,4.4,7.32,6.13,9.57c2.17,2.83,9.03,7.18,9.38,10.72
		c0.12,1.19-0.77,1.34,0,4.79c0.77,3.45,2.68,4.98,3.45,6.51c0.77,1.53,2.11,1.91,3.26,4.02s9.14,5.25,10.72,8.23
		c0.85,1.61-0.34,5.46-0.19,7.28c0.17,1.99,0.45,6.17,1.53,7.85c0.67,1.04,2.84,2.53,4.02,2.87c1.7,0.5,5.4,0.16,7.09-0.38
		c3.24-1.03,8.42-5.82,11.49-7.28c1.5-0.71,4.91-1.22,6.32-2.11c1.83-1.16,5.55-5.74,5.94-6.32c0.38-0.57,2.3-1.72,2.87-1.91
		s6.68-0.82,8.43-2.11c1.78-1.32,4.21-7.09,4.79-7.47c0.57-0.38,5.41-6.06,6.7-8.43c0.81-1.48,2.7-4.69,2.3-6.32
		c-0.31-1.25-2.77-2.72-3.83-3.45c-1.77-1.21-6.13-2.33-7.66-3.83c-0.81-0.79-1.3-3.23-2.11-4.02c-0.46-0.45-1.66-1.22-2.3-1.15
		c-1.56,0.17-4.02,3.26-4.98,3.83c-0.96,0.57-4.16,2.63-5.74,2.68c-1.79,0.05-5.83-0.93-6.7-2.49c-0.48-0.85,1.47-3.15,0.77-3.83
		c-0.92-0.89-3.81,1.66-4.98,1.15c-1.51-0.66-2.76-4.17-3.26-5.74c-0.32-1.01,0.07-3.26-0.38-4.21c-0.66-1.41-3.83-2.96-4.4-4.4
		c-0.53-1.34-0.53-4.5,0.19-5.74c0.51-0.87,2.44-2.09,3.45-2.11c1.37-0.03,3.68,1.87,4.79,2.68c1.15,0.85,3.45,3.26,3.64,4.4
		c0.19,1.15-0.96,0.77,1.72,3.45s5.39,3.61,7.47,4.02c2.51,0.49,7.74,0.3,10.15,1.15c1.01,0.36,2.72,1.73,3.64,2.3
		c1.4,0.87,3.45,2.11,5.94,2.87c2.49,0.77,8.13,2.36,10.91,2.3c1.72-0.04,4.98-1.55,6.7-1.53c0.99,0.01,2.85,0.81,3.83,0.96
		c0.95,0.14,2.87,0.26,3.83,0.19c0.97-0.07,2.85-0.76,3.83-0.77c1.38-0.01,4.98,0.96,5.17,1.91c0.19,0.96,2.68,3.06,4.21,4.98
		c1.53,1.91,5.05,2.22,6.13,3.64c0.44,0.57,0.19,2.11,0,2.87c-0.19,0.77-0.38,2.59,0.09,3.26c0.9,1.3,4.12,3.27,5.66,2.87
		c1-0.26,1.83-2.53,2.3-3.45c0.42-0.81,1.15-3.06,2.49-2.68c1.34,0.38,2.8,3.41,3.26,4.79c0.27,0.82,0.57,2.49,0,3.45
		s-0.28,5.26,0.26,6.89c0.46,1.4,2.29,3.79,2.81,5.17c1.23,3.26,1.5,10.48,3.06,13.6c1.25,2.49,6.7,7.85,7.09,8.62
		c0.38,0.77,2.3,3.45,2.3,6.51c0,3.06-0.17,6.75,1.15,8.43c1.01,1.29,5.17,2.49,6.13,2.3c0.96-0.19,4.86-3.76,5.74-5.55
		c1.19-2.4,1.91-9.96,1.91-10.53s-0.58-5.74-0.77-7.66c-0.13-1.29-0.38-4.21-0.38-5.17c0-0.96,3.37-4.94,4.79-6.32
		c2.02-1.97,6.53-5.38,8.62-7.28c1.86-1.68,6.89-6.7,7.47-6.7c0.57,0,4.98-0.96,4.98-1.91c0-0.96-1.15-5.55,0-5.94
		s5.17-2.49,6.13-2.49c0.96,0,5.05-0.2,6.51-0.96c0.73-0.38,2.49-2.49,3.26,0.57c0.77,3.06,1.91,5.55,3.45,6.7
		c1.53,1.15,0.77,0,3.64,1.72c2.87,1.72,5.58,6.34,6.89,8.81c0.6,1.12,1.34,2.68,0.96,4.98s1.48,5.47,3.06,5.55
		c1.41,0.07,4.02-3.06,4.6-3.26c0.57-0.19,2.82-1,3.64-0.57c1.48,0.78,2.68,5.17,2.68,6.13c0,0.96,2.3,5.74,2.3,7.47
		c0,1.72,2.11,4.02,2.11,5.36s-1.15,5.74-1.15,6.89c0,1.15,0.19,3.45,0,4.4c-0.19,0.96-1.53,4.21-1.53,5.17
		c0,0.96,3.45,2.87,4.02,3.45c0.57,0.57,4.6,2.11,5.36,4.21c0.77,2.11,3.06,8.81,3.26,10.15c0.19,1.34,3.45,5.94,4.4,7.47
		c0.96,1.53,2.53,2.74,3.64,3.26c1.18,0.55,3.99,2.38,4.98,1.53c1.07-0.91-0.34-4.22-0.77-5.55c-0.52-1.62-2.49-4.79-2.49-6.32
		s-1.1-7.81-2.87-9.57c-1.33-1.32-5.57-1.38-7.09-2.49c-1.25-0.92-2.87-3.83-3.45-5.17s-1.91-4.21-1.91-4.98s-0.19-5.9-0.38-7.85
		c-0.1-1.01-0.5-3.01-0.57-4.02c-0.06-0.86-0.37-2.67,0-3.45c0.4-0.83,1.97-2.14,2.87-2.3c1.25-0.21,3.26,1.15,4.4,2.49
		s2.68,2.3,5.17,4.02c2.49,1.72,2.72,5.11,4.02,6.51c0.56,0.6,2.24,1.19,3.06,1.23c0.79,0.04,2.4-1.29,3.06-0.85
		c1.21,0.8,0.21,4.41,0.77,5.74c0.24,0.57,1.91,2.49,2.3,0.96c0.38-1.53,1.78-5.06,3.26-5.85c1.01-0.54,3.52,0.41,4.6,0
		c1.85-0.7,5.12-3.45,5.94-5.26c0.67-1.48,0.34-4.92,0-6.51c-0.42-1.95-2.2-5.59-3.26-7.28c-1.5-2.39-5.37-6.54-7.28-8.62
		c-1.56-1.69-5.31-4.54-6.51-6.51c-1.23-2.02-3.59-6.75-2.87-9c0.67-2.12,4.97-4.68,7.09-5.36c1.82-0.59,5.85-0.44,7.66,0.19
		c0.9,0.31,2.11,2.26,3.06,2.3c1.77,0.06,4.32-3.13,5.94-3.83c1.63-0.71,5.19-1.24,6.89-1.72c2.85-0.82,8.8-2.04,11.3-3.64
		c2.91-1.86,7.73-7.11,9.38-10.15c1.27-2.34,2.49-9.77,2.49-10.34c0-0.57-0.02-7.71-1.72-9.38c-0.59-0.58-2.82,0.13-3.26-0.57
		c-0.6-0.98,1.56-3.27,1.34-4.4c-0.25-1.27-2.25-3.2-3.26-4.02c-1.04-0.85-4.07-1.35-4.79-2.49c-0.89-1.42,0.79-5.35-0.19-6.7
		c-0.84-1.15-4.62-0.7-5.36-1.91c-0.61-0.99,0.04-3.57,0.57-4.6c0.74-1.45,4.44-2.82,4.79-4.4c0.19-0.86-0.7-2.65-1.34-3.26
		c-0.74-0.7-2.84-1.55-3.83-1.34c-1.09,0.23-2.15,2.88-3.26,3.06c-1.82,0.3-5.33-1.84-6.7-3.06c-1.17-1.04-3.5-3.81-3.26-5.36
		c0.14-0.87,2.06-1.67,2.68-2.3c1-1.02,2.42-3.66,3.64-4.4c1.13-0.69,3.95-1.67,5.17-1.15c1.03,0.44,1.62,2.94,2.3,3.83
		c0.67,0.89,1.96,3.09,3.06,3.26c1.25,0.19,3.14-2.37,4.4-2.49c1.61-0.15,5.04,0.91,6.13,2.11c0.69,0.77,0.37,3.17,0.96,4.02
		c0.82,1.19,3.67,2.33,4.79,3.26c1.28,1.06,4.21,4.21,4.4,4.98c0.19,0.77,2.53,6.38,4.4,7.47c0.95,0.55,3.34,0.49,4.4,0.19
		c1.33-0.37,4.17-1.75,4.6-3.06c0.65-1.99-1.61-6.18-2.87-7.85c-1.71-2.27-6.94-4.97-9.19-6.7c-1.27-0.97-5.04-2.42-4.98-4.02
		c0.05-1.27,3.53-1.79,4.21-2.87c0.51-0.82,0.63-2.86,0.57-3.83c-0.05-0.94-1.15-2.72-0.96-3.64c0.19-0.9,1.65-2.22,2.3-2.87
		s1.97-2.12,2.87-2.3c1.13-0.22,3.28,1.59,4.4,1.34c1.45-0.33,3.43-2.89,4.4-4.02c1.01-1.18,3-3.68,3.45-5.17c0.65-2.15,0-8.04,0-9
		c0-0.96-1.15-3.64-1.15-4.6s1.94-3.65,1.91-4.98c-0.02-0.92-1.12-2.56-1.72-3.26c-0.74-0.86-2.78-1.94-3.64-2.68
		c-0.62-0.53-1.82-1.64-2.3-2.3c-0.94-1.3-1.75-4.59-2.87-5.74c-0.98-1.01-3.75-1.98-4.98-2.68c-0.97-0.55-2.72-2.18-3.83-2.3
		c-1.05-0.12-2.98,1.17-4.02,1.34c-1.13,0.18-3.5,0.36-4.6,0c-1.47-0.48-3.51-3.16-4.98-3.64c-0.77-0.25-2.79,0.67-3.26,0
		c-0.88-1.25,1.64-4.29,2.11-5.74c0.44-1.37,0.92-4.25,1.53-5.55c0.78-1.69,2.67-5.09,4.21-6.13c1.51-1.01,5.28-1.34,7.09-1.53
		c1.62-0.17,4.89,0.14,6.51,0c2.47-0.22,7.3-2.01,9.77-1.72c1.09,0.13,2.97,1.41,4.02,1.72c1.35,0.4,4.34,1.67,5.55,0.96
		c0.61-0.36,0.84-1.98,0.96-2.68c0.21-1.23-0.62-3.9,0-4.98c0.91-1.58,4.5-3.53,6.32-3.64c1.09-0.06,3.06,1.2,4.02,1.72
		c1.06,0.58,2.81,2.65,4.02,2.68c0.94,0.03,2.79-1.1,3.26-1.91c0.31-0.54-0.36-1.98,0-2.49c0.53-0.74,2.55-1.29,3.45-1.15
		c1.42,0.23,4.23,2.06,4.6,3.45c0.57,2.18-3.17,6.03-3.64,8.23c-0.27,1.26,0.49,3.98,0,5.17c-0.26,0.63-1.66,1.29-1.91,1.91
		c-0.35,0.84-0.44,2.84,0,3.64c0.85,1.52,5.94,3.64,5.55,4.21s6.66,8.96,9.19,11.68c1.11,1.19,3.2,3.77,4.6,4.6
		c1.2,0.71,4.25,2.37,5.36,1.53c1.03-0.78,0.19-3.89,0-5.17c-0.19-1.29-1.56-3.68-1.53-4.98c0.03-1.12,1.46-3.09,1.53-4.21
		c0.08-1.12-0.53-3.36-0.96-4.4c-0.41-1-1.59-2.83-2.3-3.64c-0.85-0.97-3.45-2.87-4.02-3.26c-0.57-0.38-2.91-1.97-3.64-2.87
		c-0.8-1-2.54-3.33-2.3-4.6c0.25-1.33,2.86-2.94,4.02-3.64c1.21-0.72,4.79-1.72,5.36-1.72s4.61,0.51,6.13,0.77
		c0.96,0.16,2.91,1.1,3.83,0.77c1.09-0.4,2.14-2.74,2.87-3.64c0.8-0.97,2.11-3.3,3.26-3.83c1.65-0.76,6.17,1.44,7.28,0
		c0.45-0.59-0.2-2.39-0.77-2.87c-1.68-1.44-6.86,0.09-8.81-0.96c-0.99-0.53-2.13-2.6-2.87-3.45c-1.07-1.22-5.35-3.46-4.4-4.79
		c0.7-0.98,3.22,2.14,4.4,1.91c0.67-0.13,1.73-1.26,1.91-1.91c0.23-0.83-0.96-3.83,0-3.45c0.96,0.38,5.74,0.77,6.13,1.34
		c0.38,0.57,2.68,1.72,4.4,2.11c1.72,0.38,8.81,2.3,9.38,2.3s3.74,0.94,4.21,0c0.54-1.07-2-3.01-2.87-3.83
		c-1.21-1.14-3.96-3.16-5.55-3.64c-2.06-0.62-6.56,0.64-8.62,0c-1.78-0.55-4.35-3.66-6.13-4.21c-2.65-0.82-8.39,0.57-11.11,0
		c-1.64-0.34-4.52-2.24-6.13-2.68c-4.37-1.21-13.53-1.52-18-2.3c-2.17-0.38-6.42-1.67-8.62-1.91c-1.48-0.16-4.76-0.9-5.94,0
		c-0.59,0.45-0.28,2.31-0.77,2.87c-0.54,0.63-2.23,1.36-3.06,1.34c-1.73-0.04-5.74-2.87-6.32-2.87c-0.57,0-10.91-1.91-12.06-1.34
		c-1.15,0.57-8.43-0.22-9.19-0.11s-7.29-2.19-9.77-2.76c-2.16-0.5-7.85-1.15-8.81-1.15c-0.96,0-8.75,1.16-11.68,1.15
		c-2.51-0.01-7.63-0.21-9.96-1.15c-1.62-0.65-3.9-3.66-5.55-4.21c-0.68-0.23-2.18-0.18-2.87,0c-0.69,0.17-1.78,1.31-2.49,1.34
		c-0.84,0.03-2.28-1.06-3.06-1.34c-1.22-0.43-3.7-1.17-4.98-1.34c-1.42-0.19-4.31,0-5.74,0c-0.96,0-2.95-0.37-3.83,0
		c-0.5,0.21-1.48,0.99-1.53,1.53c-0.05,0.52,1.28,1.22,1.15,1.72c-0.22,0.83-2.28,1.18-3.06,1.53c-1.27,0.58-3.79,2.31-5.17,2.11
		c-1.33-0.19-3.83-3.06-4.4-3.06c-0.57,0-4.36,0.15-5.74,0.57c-0.98,0.3-2.61,1.84-3.64,1.91c-1.31,0.1-3.75-1.25-4.98-1.72
		c-2.08-0.8-6.35-2.25-8.23-3.45c-1.39-0.88-4.21-3.83-5.36-3.83c-1.15,0-8.9,1.06-11.87,1.34c-2.15,0.21-6.5,0.98-8.62,0.57
		c-1.09-0.21-3.07-1.33-4.02-1.91c-0.77-0.48-1.72-1.34-3.45-1.15s-3.43,0.82-4.6,0.96c-1.57,0.18-4.74-0.05-6.32-0.19
		c-1.35-0.12-4.01-0.69-5.36-0.78c-0.91-0.07-2.73-0.11-3.64,0c-1.66,0.2-4.86,1.85-6.51,1.55c-0.68-0.12-2.31-0.86-2.3-1.55
		c0.03-1.98,5.59-2.56,6.7-4.19c0.58-0.84,1.33-3.16,0.77-4.02c-0.94-1.44-4.99-1.34-6.7-1.53c-1.9-0.21-5.74,0-7.66,0
		c-1.68,0-5.07,0.4-6.7,0c-1.52-0.37-4.11-2.26-5.55-2.87c-1.67-0.71-5.16-1.75-6.89-2.3c-2.24-0.71-6.7-2.23-9-2.68
		c-2.5-0.49-7.69-0.27-10.15-0.96c-1.38-0.38-3.81-2.03-5.17-2.49c-1.39-0.46-4.29-1-5.74-1.15c-0.86-0.08-2.59-0.09-3.45,0
		c-1.12,0.12-3.56,0.21-4.4,0.96c-0.53,0.47-1.32,2.07-0.96,2.68c1.55,2.57,8.94,1.11,11.87,1.72c1.6,0.33,4.69,1.56,6.32,1.72
		c1.38,0.14,4.28-0.94,5.55-0.38c0.84,0.37,1.52,2.39,2.3,2.87c0.96,0.59,3.28,0.93,4.4,0.96c1.16,0.03,3.44-0.59,4.6-0.77
		c0.72-0.11,2.47-0.98,2.87-0.38c0.43,0.64-0.98,2.15-1.53,2.68c-0.89,0.86-3.23,1.9-4.4,2.3c-1.32,0.44-2.3,0.38-5.55,0.38
		s-6.44-1.16-8.62-1.15c-1.95,0.01-5.94,1.34-7.47,2.3c-1.53,0.96-3.91,0.48-4.4,1.53c-0.3,0.64,1.36,1.78,1.34,2.49
		c-0.03,0.9-1.1,2.67-1.91,3.06c-1.34,0.65-5.36-0.57-5.94-0.57s-4.6,2.58-6.13,3.45c-1.36,0.77-4.06,2.41-5.55,2.87
		c-1.06,0.33-3.29,0.53-4.4,0.57c-0.91,0.04-2.95-0.78-3.64-0.19c-0.46,0.4-0.39,1.83-0.26,2.43c0.23,0.99,1.44,2.73,2.17,3.45
		c1.01,0.99,3.9,1.88,4.85,2.94c0.75,0.84,1.72,2.97,1.91,4.09c0.14,0.76,0.07,2.37-0.26,3.06c-0.4,0.86-1.89,2.16-2.68,2.68
		c-0.75,0.48-2.46,1.05-3.32,1.28c-0.78,0.21-2.62,1.09-3.19,0.51c-0.66-0.67,0.22-2.86,0.64-3.7c0.23-0.47,1.28-1.03,1.4-1.53
		c0.3-1.22-0.78-3.7-1.28-4.85c-0.53-1.24-2.07-3.47-2.81-4.6c-0.88-1.34-2.67-4.01-3.7-5.23c-0.64-0.76-1.91-2.39-2.81-2.81
		c-1.25-0.59-4.15-0.83-5.49-0.51c-0.77,0.18-2.13,1.09-2.68,1.66c-0.55,0.56-1.4,2.43-1.4,2.81s1.66,3.32,2.04,4.09
		c0.38,0.77,2.81,2.68,3.57,2.94c0.77,0.26,3.81,1.38,4.09,2.55c0.16,0.68-1.15,2.04-1.79,2.17c-0.64,0.13-3.03,0.1-3.96-0.26
		c-1.59-0.61-4.85-3.45-5.87-3.45s-5.74-0.77-6.26-0.77s-5.02-1.22-6.64-1.79c-0.99-0.35-3.45-1.4-3.96-1.4s-4.19-1.41-4.85-0.38
		c-0.32,0.49,0.68,1.69,1.15,2.04c0.89,0.67,3.54,0.24,4.34,1.02c0.36,0.35,0.71,1.46,0.51,1.91c-0.28,0.63-2.04,1.02-2.55,1.02
		s-5.05,1.15-6.77,1.28c-1.31,0.1-3.99,0.16-5.23-0.26c-0.91-0.31-2.43-1.66-3.32-1.91c-0.89-0.26-5.23,0.38-5.87,0.64
		c-0.64,0.26-3.67,1.31-4.72,2.04c-1.09,0.76-2.5,3.27-3.7,3.83c-1.25,0.58-4.26,1-5.49,0.38c-1.05-0.53-1.6-3.26-2.55-3.96
		c-0.59-0.43-2.1-0.93-2.81-0.77c-0.66,0.15-2.08,1.11-2.04,1.79c0.02,0.48,0.89,0.64,1.15,1.53s0.13,3.19-0.77,3.45
		c-0.89,0.26-4.55-0.27-5.87,0.38c-0.77,0.38-1.96,1.84-2.17,2.68c-0.18,0.72,0.51,2.55-0.89,2.81c-1.4,0.26-4.11-0.81-5.49-1.02
		c-0.91-0.14-3.41-0.88-3.7,0c-0.4,1.21,3.99,1.79,4.09,3.06c0.07,0.95-1.77,2.41-2.68,2.68c-1.09,0.33-3.4-0.49-4.47-0.89
		c-1.42-0.54-4.34-1.84-5.23-3.06c-0.76-1.05-1.02-4.72-1.4-4.98c-0.38-0.26-3.69-1.52-3.96-2.68c-0.16-0.68,0.78-2.12,1.4-2.43
		c1.5-0.74,5,0.52,6.64,0.89c1.73,0.39,5.01,1.93,6.77,2.17c1.65,0.23,5.33,0.77,6.64-0.26c0.91-0.72,1.73-3.4,1.28-4.47
		c-0.4-0.93-2.63-1.55-3.57-1.91c-1.81-0.7-7.15-1.79-7.53-1.79c-0.38,0-5.87-1.66-6.38-1.66c-0.51,0-2.98,0.31-3.96,0.51
		c-0.57,0.12-1.91,0.51-2.3,0.38c-0.38-0.13-5.48-2.54-7.28-3.45c-1.29-0.65-3.7-2.38-5.11-2.68c-2.09-0.45-6.42,0.7-8.55,0.51
		c-0.9-0.08-2.68-0.64-3.57-0.64s-5.91,0.7-7.84,1.15c-1.26,0.29-3.78,1.15-4.8,1.91c-1.02,0.77-4.34,1.91-5.68,1.91
		c-1.34,0-5.19,0.68-6.45,1.79c-0.77,0.68-1.28,2.55-2.04,3.57c-0.77,1.02-4.09,4.21-4.85,4.6c-0.77,0.38-2.94,3.06-2.94,3.83
		c0,0.77-0.93,2.91-1.66,3.57c-1.23,1.11-4.56,2-6,2.81c-1.3,0.73-3.59,2.76-4.98,3.32c-1.29,0.53-4.25,0.37-5.49,1.02
		c-1.08,0.57-2.73,2.46-3.45,3.45c-0.54,0.74-1.66,3.19-1.28,3.45c0.38,0.26,2.55,2.9,2.3,3.04s-1.45,2.02-1.91,2.7
		c-0.42,0.62-0.64,0.89,1.79,2.43c2.43,1.53,5.87,3.26,7.15,2.9c1.28-0.35,4.34-2.78,4.72-2.9c0.38-0.13,2.1-1.1,2.81-0.89
		c1.15,0.34,2.55,3.13,2.94,3.8s3.82,4.14,3.45,5.78c-0.33,1.46-3.5,3.12-4.98,3.32c-1,0.13-3.33-0.4-3.83-1.28
		c-0.71-1.25,2.45-4.79,1.28-5.62c-1.17-0.83-4.03,1.89-4.85,3.06c-0.79,1.12-1.02,4.6-1.02,5.36c0,0.77,1.02,2.81,1.02,3.57
		c0,0.77-0.21,2.87-0.89,3.45c-0.8,0.67-3.45,0.51-4.09,0.89s-3.03,1.51-3.96,2.14c-1.49,1-4.16,3.42-5.49,4.63
		c-1.59,1.44-4.39,4.74-6.13,6c-1.75,1.26-5.74,2.98-7.66,3.96c-1.15,0.58-3.32,2.19-4.6,2.3c-0.76,0.07-2.11-0.64-3.04-0.38
		c-0.92,0.26-1.69,1.15-2.58,1.53s-2.1,0.48-2.81,0.51c-1.4,0.06-4.62-0.87-5.59,0.13c-0.45,0.46-0.39,2.05,0,2.55
		c1.13,1.44,6.61,1.66,7,2.17c0.38,0.51,3.61,4.04,3.99,5.74c0.25,1.14-0.8,3.43-0.79,4.6c0.01,1.12,0.64,3.45-0.51,4.47
		c-1.15,1.02-0.64,2.81-6.13,3.32c-5.49,0.51-10.01-1.45-13.38-1.53c-1.41-0.03-4.38,0.32-5.51,1.15c-0.68,0.5-1.38,2.14-1.66,2.94
		c-0.4,1.16-0.57,3.64-0.77,4.85c-0.25,1.53-0.53,4.65-1.01,6.13c-0.32,0.99-1.67,3.32-1.67,3.83c0,0.51,1.4,2.14,1.67,2.94
		c0.31,0.94,0.13,3.45,0,3.96c-0.13,0.51,2.2,1.8,3.06,2.17c1.83,0.8,6.1,1.29,7.53,2.68c0.57,0.55,0.4,2.68,1.15,2.94
		c0.7,0.24,1.94-1.11,2.55-1.53c0.91-0.62,3.19-2.43,3.57-2.55c0.38-0.13,3.32-0.13,3.83-0.38c0.51-0.26,2.7-1.2,3.57-1.66
		c1.42-0.75,4.54-2.03,5.49-3.32c0.85-1.16,0.89-3.7,1.79-5.49s2.58-5.74,4.09-7.15c0.97-0.91,3.68-1.6,4.72-2.43
		c0.74-0.58,2.17-2.55,2.17-3.06s0-3.83,0.77-4.34c0.77-0.51,4.47-1.4,4.72-1.02c0.26,0.38,4.23,3.32,5.74,2.81
		c0.78-0.26,1.28-2.3,1.91-2.68c0.64-0.38,4.43-2.15,5.87-2.94c0.93-0.51,3.32-2.04,3.7-2.04c0.38,0,2.28,1.74,2.94,2.43
		c0.71,0.74,1.79,2.04,2.55,3.19c0.77,1.15,4.17,5,6,6.13c1.38,0.85,5.36,1.91,6,2.43s2.94,1.66,3.96,2.81s4.09,2.81,4.09,3.7
		c0,0.89-0.38,4.85,0.26,5.11c0.64,0.26,3.06-0.13,3.06-0.64s-2.55-5.09-1.66-6.51c0.67-1.07,4.48,0.27,4.98-0.89
		c0.36-0.85-1.32-2.49-2.04-3.06c-1.25-1-4.54-1.62-6-2.3c-1.75-0.81-5.34-2.4-6.77-3.7c-1.02-0.93-2.22-3.5-3.06-4.6
		c-0.47-0.61-1.66-1.63-2.04-2.3c-0.48-0.84-1.24-2.74-1.15-3.7c0.05-0.54,0.58-1.6,1.02-1.91c0.79-0.57,2.88-0.84,3.83-0.64
		c1.38,0.29,3.63,2.18,4.72,3.06c0.67,0.54,2.04,2.04,2.43,2.43c0.38,0.38,2.3,0.51,2.3,2.17s3.18,2.79,4.47,3.32
		c1.81,0.74,5.85,1.73,7.15,3.19c1.08,1.23,2.72,4.83,1.91,6.26c-0.28,0.5-0.51,0.13-0.26,2.3c0.26,2.17,1.02,3.45,1.53,3.96
		c0.51,0.51,3.35,2.13,4.6,2.55c0.64,0.22,2.07,0.16,2.64,0.51c0.3,0.18,0.6,0.77,0,1.4c-0.6,0.64-2.64,1.66-2.77,2.3
		c-0.13,0.64,0.26,2.04,1.4,2.43c1.15,0.38,2.36,1.91,3.32,2.17c0.8,0.22,3.19-0.51,3.19-0.89c0-0.38,0.77-2.04,0.51-3.57
		c-0.26-1.53-1.15-3.83-1.15-4.21c0-0.38-1.68-2.38-1.79-3.32c-0.1-0.83,0.33-2.72,1.02-3.19c0.5-0.34,1.91,0.13,2.43,0
		c0.51-0.13,1.7-2.14,2.43-2.68c0.85-0.63,3.57-1.28,4.09-1.15s3.96,0.89,4.34,1.02c0.38,0.13,3.43,0.7,4.21,0
		c0.5-0.45,0.56-2.03,0.38-2.68c-0.2-0.73-1.66-2.04-1.66-2.55c0-0.51,0.68-2.2,0.89-2.94c0.38-1.29,0.6-4.01,1.15-5.23
		c0.62-1.4,2.65-3.76,3.57-4.98c1.26-1.66,3.57-5.25,5.23-6.51c0.53-0.4,1.77-1.07,2.43-1.02c0.79,0.06,2.11,1.12,2.68,1.66
		c0.73,0.7,2.09,2.33,2.3,3.32c0.16,0.8-0.51,2.55,0.64,3.19c1.15,0.64,5.2,1.57,6.77,0.89c0.82-0.35,2.43-2.81,2.04-2.94
		c-0.38-0.13-2.06-0.76-2.55-1.28c-0.41-0.43-1.19-1.59-1.02-2.17c0.26-0.87,2.26-1.5,3.06-1.91c1.07-0.55,4.09-1.66,4.47-1.79
		c0.38-0.13,3.23-1.47,4.34-1.28c0.65,0.12,1.91,1.4,1.53,2.17c-0.38,0.77-1.85,2.56-2.04,3.57c-0.13,0.69,0.38,2.43,0,2.81
		c-0.38,0.38-1.66,1.28-1.66,1.66c0,0.38,0.74,2.55,1.4,3.06c1.1,0.86,2.68,0.64,5.23,1.91c2.55,1.28,4.6,2.43,5.62,3.32
		c1.02,0.89,6.13,2.17,6.13,3.45s-1.91,4.72-2.55,5.11s-1.91,2.55-3.7,2.81c-1.79,0.26-6.11,0.82-8.04,0.26
		c-1.42-0.42-3.8-2.3-4.98-3.19c-0.71-0.54-2.43-2.17-2.81-2.17c-0.38,0-4.03-0.55-5.36-0.77c-0.85-0.14-2.17-0.38-3.45-0.13
		c-1.28,0.26-2.94,1-3.83,1.53c-1,0.6-2.93,3.43-3.83,2.68c-0.52-0.43,0.64-1.4-2.68-0.13s-3.19,0.77-4.09,1.53
		c-0.89,0.77-2.68,3.18-3.96,3.57c-1.05,0.32-3.25-0.73-4.34-0.64c-0.63,0.05-2.12,0.21-2.43,0.77c-0.3,0.54,0.38,1.53,1.15,2.17
		c0.77,0.64,1.4-0.13,1.4,1.28c0,1.4-0.25,2.25,0,2.94c0.43,1.17,2.17,2.55,3.06,3.96c0.89,1.4-1.4,1.02,2.43,2.81
		s3.46,1.87,4.72,1.79c1.38-0.09,5.11-0.64,5.49-0.77c0.38-0.13-1.28-3.32,1.91-0.51c3.19,2.81,2.88,3.18,4.21,3.32
		c1.44,0.15,3.83-1.02,5.62-1.4c1.79-0.38,5.36-2.3,5.74-2.3c0.38,0,2.43,2.17,2.43,3.06s-0.64,0.64-0.89,1.66
		c-0.26,1.02,0.05,4.13-0.13,5.49c-0.15,1.16-1.02,3.45-1.4,4.47c-0.38,1.02-1.15,1.28-1.15,3.32s2.43,2.3,0,4.21
		s-1.4,1.02-2.43,1.91c-1.02,0.89-5.23,1.4-5.62,1.4s-3.15-1.89-4.34-2.04c-1.04-0.14-3.07,0.64-4.09,0.89
		c-1.13,0.28-3.31,1.32-4.47,1.28c-1.29-0.05-3.58-1.56-4.85-1.79c-1.7-0.3-5.19,0.23-6.89,0c-1.57-0.21-4.61-1.21-6.13-1.66
		c-0.88-0.26-2.81-0.89-3.45-1.28c-0.64-0.38-3.32-2.25-4.47-2.94c-0.92-0.55-2.89-1.53-4-1.53s-3.4,0.38-4.04,1.15
		s-1,2.27-0.89,3.06c0.09,0.64,0.51,1.28,0.38,2.55c-0.13,1.28-0.4,2.09-0.89,2.55c-1.18,1.12-4.12,3.19-5.74,3.06
		c-1.55-0.12-3.6-2.99-4.98-3.7c-0.79-0.41-1.91-0.64-3.45-0.89c-1.53-0.26-2.83-0.13-3.45-0.77c-1.05-1.08-0.35-4.79-1.4-5.87
		c-1.13-1.16-6.33-0.04-6.26-1.66c0.04-0.77,0.77-0.13-3.06-0.38c-3.83-0.26-3.57,0.26-4.72-0.64c-1.15-0.89-3.44-3.26-3.83-4.72
		c-0.19-0.71,0.31-2.2,0.26-2.94c-0.08-1.08-1.03-3.13-1.02-4.21c0.01-0.85,0.77-2.94,0.77-3.32c0-0.38-1.91-2.43-2.94-2.3
		c-1.02,0.13-2.81-0.26-3.45,0.38c-0.64,0.64-2.53,2.13-3.57,2.3c-0.67,0.11-2-0.48-2.68-0.51c-1.47-0.07-4.4,0.56-5.87,0.51
		c-1.03-0.04-3.13-0.25-4.09-0.64c-0.8-0.32-1.79-1.28-3.32-0.89c-1.53,0.38-4.55,0.67-6,1.15c-1.69,0.56-6,3.06-6.38,3.19
		c-0.38,0.13-3.69,1.82-4.85,2.55C616.31,275.03,614.26,277.16,612.91,277.6z"/>
	<path class="st0" d="M631.54,254.86c-0.29-0.01-1.09,1.1-1.2,1.58c-0.09,0.4,0.14,1.24,0.86,1.39s1.63,0.1,2.06-0.19
		c0.49-0.34,1.55-1.41,1.34-1.96C634.32,254.93,632.33,254.89,631.54,254.86z"/>
	<path class="st0" d="M653.65,251.03c-1.16,0.98-2.35,0.05-1.53,1.58c0.81,1.53,0.38,0.14,1.34,1.82s0.96,3.42,1.05,3.43
		c0.1,0.01,1.64,1.01,2.2,0.83c0.66-0.21,1.31-1.67,1.53-2.33c0.18-0.55,0.14-2.12,0.05-2.32c-0.1-0.19-1.59-1.94-2.06-2.63
		c-0.26-0.39-0.45-1.53-0.91-1.63C654.82,249.67,654.05,250.69,653.65,251.03z"/>
	<path class="st0" d="M654.04,244.9c0.02,0.2,1.17,1.6,1.77,1.77c0.21,0.06,0.65-0.12,0.86-0.19c0.43-0.14,1.41-0.32,1.66-0.69
		c0.37-0.55,0.4-2.13,0-2.66c-0.39-0.52-1.86-0.93-2.47-0.72C655.13,242.66,653.98,244.13,654.04,244.9z"/>
	<path class="st0" d="M669.31,264.24c0.44,0.46,1.39,0,2.3,1.1s0.57,0.29,1.58,1.58c1.01,1.29,0.72,1.24,2.15,1.68
		c1.44,0.43,2.11,0.12,2.35-0.43c0.32-0.74,0.36-2.49,0-3.21c-0.3-0.62-1.82-1.39-2.25-1.58s-1.4-1.09-1.94-1.34
		c-0.65-0.3-2.09-0.56-2.8-0.62c-0.27-0.02-0.86,0.05-1.05,0.29C669.45,261.94,668.87,263.77,669.31,264.24z"/>
	<path class="st0" d="M709.81,274.98c0.59,0.99,2.87,1.02,3.45,1.85c0.57,0.83,0.85,1.13,1.28,1.28c1.07,0.38,3.38,0.38,4.53,0
		s3.01-1.28,2.87-2.17c-0.24-1.53-3.77-2.04-5.81-2.17c-2.04-0.13-5.17-1.21-5.81-0.7C709.68,273.57,709.56,274.55,709.81,274.98z"
		/>
	<path class="st0" d="M746.64,278.28c-0.44,0.32-1.6,1.43-2.11,0.6c-0.51-0.83-0.87-2.06-0.57-2.68c0.3-0.63,1.59-1.39,2.23-1.66
		c1.03-0.42,3.71-1.51,4.4-0.64c0.44,0.55-0.57,2.08-1.02,2.62C749.02,277.17,747.33,277.77,746.64,278.28z"/>
	<path class="st0" d="M806.7,239.49c0.98,1.39,3.26,2.39,4.6,3.83c1.34,1.44,5.32,4.32,6.8,3.16c0.34-0.26-0.19-2.97,1.05-1.34
		c1.24,1.63,2.2,3.45,2.2,4.4s-3.82,4.09-3.83,5.84c0,1.33,2.28,3.31,3.26,4.21c0.59,0.55,1.15,0.77,1.05,3.06
		c-0.1,2.3-1.24,6.99-1.82,7.47s-3.34,1.36-4.5,1.24c-1.36-0.13-3.73-1.53-4.98-2.3s-3.16-1.63-4.4-1.91
		c-1.24-0.29-3.26-2.59-3.26-3.26c0-0.67-0.16-3.42-0.48-4.5c-0.25-0.84-1.93-2.38-1.53-3.16c0.36-0.71,2.78-0.48,3.06-0.81
		c0.29-0.34-0.29-3.11-0.48-3.49c-0.19-0.38,0.1-2.49-2.2-4.4c-2.3-1.91-4.31-3.64-4.69-3.93c-0.38-0.29-1.63-0.38-1.91-1.63
		c-0.29-1.24-0.29-2.68-0.57-3.06c-0.29-0.38-1.15-1.05-1.53-1.34c-0.38-0.29-0.93-0.7-1.05-1.05c-0.3-0.83,0.1-3.26,0-3.54
		c-0.1-0.29,3.83-3.54,4.12-3.73c0.29-0.19,5.27-3.83,6.03-4.02c0.77-0.19,7.18-1.44,7.56-1.15c0.38,0.29,1.63,1.53,2.59,2.49
		s3.26,2.78,3.26,3.54s-2.43,2.15-3.45,2.39c-0.89,0.21-2.81-0.27-3.64,0.1c-0.57,0.26-1.34,1.32-1.72,1.82
		c-0.39,0.51-1.35,1.56-1.34,2.2C804.89,237.47,806.21,238.8,806.7,239.49z"/>
	<path class="st0" d="M663.28,195.45c1.22,0.19,3.56-1.11,4.79-1.15c0.85-0.03,2.58,0.22,3.35,0.57c0.45,0.21,1.24,1.05,1.63,1.15
		c0.38,0.1,2.3,0.19,3.83-0.86c1.53-1.05,3.54-2.01,4.12-2.01s2.49-1.15,4.02-0.67c1.53,0.48,4.25,1.59,5.74,1.74
		c1.06,0.1,4.21-0.4,4.21-0.69c0-0.29,0.77-2.97,0.86-4.21c0.1-1.24-1.3-4.68-0.77-6.13c0.38-1.03,2.87-2.39,3.73-2.3
		s3.1,1.42,4.2,1.34c0.69-0.05,2.22-0.68,2.4-1.34c0.34-1.19-2.48-3.08-2.4-4.31c0.05-0.86,1.24-2.42,2.02-2.78
		c1-0.46,3.93,0.29,4.4,0c0.48-0.29,3.73,0.48,4.5,0.48c0.77,0,6.12-0.02,6.8-1.63c0.39-0.94-1.16-2.98-2.01-3.54
		c-1.29-0.85-4.59-0.82-6.13-0.67c-1.25,0.12-3.64,1.15-4.88,1.24c-1.24,0.1-6.13,0.1-6.89-0.1c-0.77-0.19-5.07-1.15-5.17-2.2
		s-0.38-3.89-0.19-5.17c0.21-1.46,1.72-5.36,2.01-5.55c0.29-0.19,3.46-2.32,4.02-3.54c0.51-1.12,0.1-4.69-0.57-4.88
		c-0.67-0.19-3.3-0.37-4.31,0c-1.13,0.41-2.01,1.53-3.35,3.45c-1.34,1.91-3.26,4.88-4.4,5.94c-1.15,1.05-1.82,0.77-4.21,1.82
		s-4.88,4.12-4.88,4.6c0,0.48-0.67,2.39,1.63,4.4c2.3,2.01,5.27,2.84,5.36,3.67c0.1,0.83,0.1,3.8-2.3,4.47
		c-2.39,0.67-4.4,1.05-4.88,1.91c-0.48,0.86-0.74,3.03-1.05,4.02c-0.48,1.51-1.37,4.85-2.68,5.74c-1.31,0.89-4.74,0.54-6.32,0.38
		c-0.37-0.04-1.07-0.36-1.44-0.38c-0.73-0.05-2.39,0.29-2.78,0.86c-0.38,0.57-1.34,2.11-1.63,2.11c-0.29,0-2.93-0.45-3.54,0.19
		c-0.36,0.38-0.26,1.65,0,2.11C660.57,194.34,662.36,195.3,663.28,195.45z"/>
	<path class="st0" d="M790.74,132.7c-1.13,0.6-6-0.89-6.26-1.02c-0.26-0.13-1.53-1.91-1.72-1.91c-0.19,0-1.75-0.44-2.11-0.89
		c-0.56-0.72-1.01-2.72-0.7-3.57c0.36-0.99,2.87-2.36,3.32-2.62c0.45-0.26,3.52-3.56,4.21-5.04c0.46-0.98,0.64-3,2.68-3.38
		s1.85-0.57,4.21-0.57s1.85,0,3.64,0s4.2,0.3,5.55,0c1.32-0.29,3.77-1.72,5.04-1.91c1.28-0.19,3.89-0.13,4.15,0.19
		c0.26,0.32,2.36,0.96,0.19,2.04s-4.15,1.53-5.49,1.85c-1.34,0.32-4.15,0.38-6.89,1.09c-2.74,0.7-4.53,1.4-6.45,2.94
		c-1.91,1.53-4.28,2.55-4.47,3.32c-0.19,0.77-0.96,4.21-0.32,4.98c0.64,0.77,1.6,2.04,2.04,2.49
		C791.83,131.11,791.22,132.45,790.74,132.7z"/>
	<path class="st0" d="M814.11,481.34c1.78-0.33,3.57,5.11,3.83,6.13s0.52,5.44,0,7.15c-0.77,2.55-3.57,5.87-4.98,9.45
		c-1.4,3.57-2.68,8.3-3.06,10.72s-1.4,6.64-2.43,10.47c-1.02,3.83-1.02,9.32-3.83,10.72c-2.81,1.4-5.49,1.91-6.77,1.91
		c-1.28,0-3.38,0.01-4.34-0.51c-1.98-1.07-5.74-6.26-5.62-7.02c0.13-0.77,1.88-5.51,2.68-7.28c0.78-1.72,3.06-5.87,3.57-6.64
		c0.51-0.77,3.45-5.11,2.55-6.83c-0.89-1.72-3.83-6.32-3.83-6.83s6.13-5.23,6.89-5.62c0.77-0.38,5.58-1.04,7.02-2.17
		c1.32-1.03,3.06-5.36,3.45-5.74c0.38-0.38,3.27-3.04,3.96-4.34C813.65,484.1,813.2,481.51,814.11,481.34z"/>
	<path class="st0" d="M937.55,390.13c-0.29,0.79-0.13,4.6,0,5.55c0.13,0.96,1.66,1.98,1.79,3.06c0.13,1.09,3.19,0.7,3.38,0.57
		c0.19-0.13,2.81-5.04,2.17-5.68c-0.64-0.64-3.38-3.06-3.67-3.06c-0.29,0-1.89-2.12-2.71-1.98
		C938.07,388.67,937.71,389.7,937.55,390.13z"/>
	<path class="st0" d="M1045.17,346.66c-0.01,0.4,1.66,3.32,2.3,3.19c0.64-0.13,3.94-1.31,4.85-2.3c0.61-0.66,1.45-2.42,1.4-3.32
		c-0.04-0.78-1.4-2.55-1.79-2.55s-3.4-0.55-4.34,0c-0.73,0.42-1.3,2.17-1.66,2.94C1045.71,345.11,1045.18,346.11,1045.17,346.66z"/>
	<path class="st0" d="M1090.11,318.32c-1.06,0.28-1.58,4.51-2.55,5.74c-0.57,0.73-2.55,1.79-1.66,3.32c0.89,1.53,3.9,3.98,5.49,3.57
		c1.84-0.47,4.34-5.74,4.21-6.32c-0.13-0.57-2.13-4.28-3.32-5.3C1091.82,318.95,1090.69,318.17,1090.11,318.32z"/>
	<path class="st0" d="M1093.81,348.32c-0.91,0.7,1.15,5.11,0,6.38c-1.15,1.28-3.25,2.9-3.16,4.21c0.1,1.42,3.67,3.96,3.67,4.34
		c0,0.38,3.96,6.8,6.26,7.79c1.17,0.51,4.6-0.26,5.11,0c0.51,0.26,4.63,1.91,5.36,0.77c0.6-0.94-1.38-3.19-2.3-3.83
		c-1.12-0.78-4.15-0.39-5.36-1.02c-1.06-0.55-3-2.21-3.45-3.32c-0.29-0.72,0.13-2.68,0.38-3.06c0.26-0.38,1.28-2.81,1.28-3.45
		s-1.14-3.46-1.79-4.47c-0.64-0.99-2.07-2.95-3.06-3.57C1096.1,348.68,1094.41,347.86,1093.81,348.32z"/>
	<path class="st0" d="M1095.6,371.17c-0.74,0.84,1.58,3.35,2.68,3.57c0.5,0.1,1.79-0.51,1.79-1.02
		C1100.06,372.44,1096.45,370.21,1095.6,371.17z"/>
	<path class="st0" d="M1103.13,378.19c-0.55,0.31-1.52,1.59-1.28,2.17c0.27,0.63,2.04,0.89,2.68,0.64c0.79-0.31,2.31-2.06,1.91-2.81
		C1106.06,377.46,1103.85,377.78,1103.13,378.19z"/>
	<path class="st0" d="M1105.04,384.57c-0.33,0.98-0.33,3.71,0.64,4.09c0.57,0.22,1.65-0.98,1.91-1.53c0.54-1.12,1.14-4.49,0-4.98
		C1106.79,381.8,1105.33,383.74,1105.04,384.57z"/>
	<path class="st0" d="M1111.55,380.49c-1.2,0.34,0.26,4.98,0.77,4.91c0.51-0.06,1.17-1,1.15-1.47
		C1113.43,382.95,1112.5,380.22,1111.55,380.49z"/>
	<path class="st0" d="M1112.51,376.4c-0.03,1.05,2.23,2.81,2.74,3.19c0.51,0.38,3.9-0.36,3.96-1.4c0.08-1.56-3.68-3.65-5.23-3.45
		C1113.43,374.82,1112.53,375.85,1112.51,376.4z"/>
	<path class="st0" d="M1089.85,388.66c-0.56,0.46-1.91,1.66-2.3,1.79c-0.38,0.13-1.72-0.4-1.85-0.89c-0.16-0.61,0.72-1.78,1.08-2.3
		c1.35-1.94,4.44-7.66,6.64-6.77c0.57,0.23,0.07,1.85,0,2.46c-0.11,0.94-0.38,2.88-0.89,3.67
		C1092.07,387.32,1090.5,388.13,1089.85,388.66z"/>
	<path class="st0" d="M1106.45,395.43c1.29,0.81,5.21-0.62,6.06,0.64c0.41,0.61-0.57,2.04,0,2.94s1.51,2.84,2.36,3.45
		c0.78,0.55,2.88,1.51,3.7,1.02c0.62-0.37,0.68-2.09,0.64-2.81c-0.04-0.75-0.89-2.55-0.64-2.94c0.26-0.38,2.5,0.7,3.32,0.51
		c0.37-0.08,1.08-0.64,1.15-1.02c0.16-0.84-1.32-2.23-1.53-3.06c-0.23-0.89,0.17-2.82-0.13-3.69c-0.18-0.52-1.02-1.31-1.28-1.8
		c-0.31-0.6-0.34-2.16-0.89-2.55c-0.26-0.18-1.02-0.19-1.28,0c-0.55,0.4-0.64,1.91-0.89,2.55c-0.26,0.64-0.13,0.79-1.66,1.8
		c-1.53,1.01-2.81,1.37-3.83,1.39c-0.8,0.02-2.4-0.52-3.19-0.38c-0.91,0.16-3.06,0.77-3.32,1.66
		C1104.86,393.77,1105.88,395.07,1106.45,395.43z"/>
	<path class="st0" d="M1060.11,421.98c-0.27,0.3-2.56-0.85-3.45-0.89c-1.04-0.05-3.56,0-4.09,0.9c-0.69,1.2,1.53,4.84,1.4,5.35
		c-0.13,0.51,1.15,4.47,1.15,5.49c0,1.02,0.26,3.83,0.26,4.98c0,1.15-1.02,1.02,3.32,2.43s5.23,1.91,8.55,1.79
		c3.32-0.13,6-0.51,6.51-0.51s1.53,2.17,1.66,2.55c0.13,0.38,2.43-1.02,3.45-1.02c1.02,0,3.06-2.17,3.45-2.94
		c0.38-0.77,3.58-3.57,3.38-4.98c-0.19-1.4,0.96-1.53,0.96-3.96c0-2.43-0.13-3.06,0.13-3.96s2.24-3.19,2.78-3.7
		c0.54-0.51,0.1-3.45,0-3.83c-0.1-0.38-2.39-4.47-2.39-4.85c0-0.38,2.11-4.34,2.39-4.85c0.29-0.51,2.41-2.81,2.33-3.96
		c-0.1-1.44-3.45-4.34-3.83-4.34s-2.81-2.17-3.19-1.79c-0.38,0.38-3.19,4.21-3.57,4.47c-0.38,0.26-1.91,2.17-4.6,2.3
		c-2.68,0.13-3.57-1.28-4.47,0.13c-0.89,1.4-2.81,3.96-2.81,5.74s-4.74,2.86-6.38,3.7c-0.6,0.31-1.66,1.28-1.91,1.91
		C1060.87,418.79,1060.78,421.25,1060.11,421.98z"/>
	<path class="st0" d="M1097.83,447.51c0.1,0.91,2.87,4.21,1.08,4.6s-2.49,0.67-3.32,0.51c-0.87-0.17-2.81-1.4-2.17-2.81
		c0.64-1.4,2.55-1.79,1.53-3.57c-1.02-1.79-2.84-2.11-3.06-3.19c-0.35-1.7,3.3-4.18,3.7-5.87c0.34-1.4-0.45-4.3-0.51-5.74
		c-0.06-1.38,0-3.83,1.79-5.23c1.79-1.4,7.02-4.45,8.68-4.2c1.66,0.24,3.96-0.39,4.85,0.88c0.89,1.28,2.81,0.26,3.64-0.13
		c0.83-0.38,3.26-2.81,3.26-1.53c0,1.28,0.32,4.72-1.44,5.11c-1.76,0.38-4.56,1.15-5.59,1.15s-3.57-1.79-3.83-1.79
		c-0.26,0-4.98,1.23-6.38,2.17c-0.52,0.35-1.02,1.15-1.02,2.3c0,1.15,1.79,4.47,3.45,4.47s3.26-2.68,4.6-2.94
		c0.48-0.09,1.68,0.29,1.79,0.77c0.25,1.08-2.81,3.32-2.43,3.7c0.38,0.38-1.91,2.3-1.4,2.94c0.51,0.64,2.34,2.4,2.55,3.45
		c0.29,1.4-1.15,5.11-1.15,5.62c0,0.51-2.47-0.8-3.06-1.4c-0.86-0.88-1.61-3.41-2.54-4.21c-0.62-0.54-2.33-1.73-3.02-1.28
		c-0.72,0.48,0,2.59,0,3.45C1097.83,445.4,1097.76,446.81,1097.83,447.51z"/>
	<path class="st0" d="M1126.74,420.84c0.02,0.79,0.51,1.52,0,2.67c-0.51,1.15-2.68-1.28-1.02,2.55c1.66,3.83,2.81,4.21,3.19,3.83
		c0.38-0.38,3.57-3.83,3.19-4.47c-0.38-0.64-3.24-3.7-3.19-5.24c0.03-0.94,2.73-2.31,2.17-3.06s-2.92,0.48-3.57,1.15
		C1127.04,418.76,1126.73,420.18,1126.74,420.84z"/>
	<path class="st0" d="M1128.62,440.62c-0.12,0.73,1.8,1.31,2.46,1.66c1.12,0.59,3.58,2.41,4.72,1.85c0.81-0.39,1.15-3.77,0.77-3.51
		c-0.38,0.26-3.91-0.81-5.23-0.77C1130.64,439.87,1128.74,439.92,1128.62,440.62z"/>
	<path class="st0" d="M1151.64,444.7c0.8,0.42,2.81,2.33,3.96,2.68c1.83,0.56,5.87,0.26,7.53,1.4s3.45,2.68,4.21,3.83
		c0.77,1.15,4.98,2.04,3.19,3.7s-3.45,4.09-3.32,5.11s0.7,1.34,1.15,1.4c1.29,0.19,4.21-0.26,5.23,0c1.02,0.26,2.68,1.4,3.19,2.43
		s2.17,1.79,4.21,2.3s7.15,1.4,7.79,0.13c0.64-1.28,0.49-5.35,1.79-6.38c1.08-0.86,4.72,0,5.43,1.02s4.91,2.68,5.04,3.96
		c0.13,1.28-0.26,4.47,2.68,6c2.94,1.53,12.71,6.49,14.3,3.19c0.91-1.89-4.61-4.29-6.13-5.74c-1.63-1.56-5.11-4.98-6.26-6.51
		s-2.64-4.65-2.68-6.38c-0.02-0.87,0.77-2.94,0.38-3.45c-0.38-0.51,0.64-0.64-3.32-3.32c-3.96-2.68-8.04-5.36-8.43-5.36
		c-0.38,0-4.91-3.32-6.77-3.96c-1.52-0.53-5.74-0.64-6.38-0.89c-0.64-0.26-3.83-2.92-4.98-3.12c-1.15-0.2-6-2.37-6.77-1.48
		s-5.49,4.05-7.66,4.6c-1.05,0.26-3.46,0.64-4.34,0c-1.02-0.74-0.97-3.68-1.53-4.81c-0.47-0.95-1.53-2.92-2.43-3.49
		c-1.01-0.64-3.54-0.92-4.72-0.77c-1.32,0.17-4.64,0.86-4.85,2.17c-0.22,1.37,2.79,3.27,4.09,3.77c0.89,0.35,3.32-0.81,3.83,0
		c0.35,0.56-0.89,1.75-1.15,2.35c-0.22,0.52-0.51,1.4-0.64,2.17s0.73,2.44,1.4,2.87C1149.33,444.53,1150.98,444.35,1151.64,444.7z"
		/>
	<path class="st0" d="M1219.94,450.57c-1.14,0.9-3.56,3.37-5.11,3.57c-1.15,0.15-4.34-1.15-4.6,0.51c-0.26,1.66,0.51,3.32,3.57,3.32
		s7.77-1.58,8.94-3.7c0.6-1.09,1.05-4.3,0-4.98C1222.1,448.88,1220.54,450.1,1219.94,450.57z"/>
	<path class="st0" d="M1226.96,447c-0.16,0.35-5.06-2.52-6.51-3.7c-1.02-0.83-3.83-4.09-3.32-4.09s4.09,0.38,4.09,0.64
		C1221.21,440.11,1227.93,444.92,1226.96,447z"/>
	<path class="st0" d="M1230.91,453.64c-0.25,0.38,1.83,6.62,3.7,6.51c0.87-0.05,1.54-2.42,1.28-3.26
		C1235.44,455.48,1231.73,452.4,1230.91,453.64z"/>
	<path class="st0" d="M1239.6,463.6c-0.63,0.85,2.01,3.09,3.06,2.94c0.25-0.04,0.58-0.65,0.51-0.89
		C1242.9,464.65,1240.21,462.77,1239.6,463.6z"/>
	<path class="st0" d="M1241.89,461.3c-1.34,0.47-4.37-3.23-3.57-4.4c0.52-0.78,3.02,0.33,3.57,1.09
		C1242.39,458.65,1242.68,461.02,1241.89,461.3z"/>
	<path class="st0" d="M1246.11,462.83c-0.67,1.15,2.74,4.46,3.83,3.7c0.66-0.46-0.68-2.4-1.28-2.94
		C1248.16,463.15,1246.44,462.25,1246.11,462.83z"/>
	<path class="st0" d="M1249.94,470.36c-0.19,0.54,1.24,1.54,1.79,1.4c0.37-0.09,0.85-1.08,0.64-1.4
		C1252.03,469.85,1250.13,469.79,1249.94,470.36z"/>
	<path class="st0" d="M1254.28,465.06c-1.13,0.88,0.74,5.23,2.17,5.3c0.75,0.04,1.57-1.92,1.4-2.65
		C1257.61,466.63,1255.15,464.38,1254.28,465.06z"/>
	<path class="st0" d="M1260.02,510.96c-0.97-0.09-3.06,1.66-0.77,3.83c2.3,2.17,3.57,2.43,4.6,4.34c1.02,1.91,3.16,5.89,5.11,5.87
		c0.59,0,1.59-1.08,1.66-1.66c0.13-1.04-1.58-2.71-2.17-3.57c-0.91-1.33-2.82-3.95-3.94-5.11
		C1263.5,513.61,1261.47,511.1,1260.02,510.96z"/>
	<path class="st0" d="M1275.47,493.21c-0.56,0.45-0.93,2.15-0.64,2.81c0.3,0.66,1.9,1.73,2.55,1.4c0.96-0.47,1.33-3.41,0.64-4.21
		C1277.61,492.73,1275.97,492.81,1275.47,493.21z"/>
	<path class="st0" d="M1235.57,621.96c-1.82,0.87-6.13,4.47-6.57,4.66c-0.45,0.19-2.87,3.19-4.47,2.81c-1.6-0.38-3.49-0.56-4.6-0.96
		c-0.68-0.25-2.43-1.34-2.43-1.6c0-0.26,1.43-2.56,2.11-3.26c0.64-0.65,2.49-1.85,3.06-1.98c0.57-0.13,7.22-2.53,9.51-3.64
		c1.53-0.73,4.45-2.47,5.87-3.38c0.97-0.62,2.88-1.93,3.77-2.68c1.1-0.93,3.13-3.13,4.28-3.89c1.15-0.77,5.87-4.28,6.26-4.15
		s2.43,0.57,3,2.11s1.02,3.7,0.19,4.6c-0.83,0.89-4.53,3.19-5.23,3.57c-0.7,0.38-4.26,1.42-5.62,2.04
		c-1.15,0.53-4.09,2.43-4.15,2.94s-1.02,1.66-1.6,1.85S1236.37,621.58,1235.57,621.96z"/>
	<path class="st0" d="M1263.85,598.98c0.28,0.3,1.02,1.72,0.83,2.36c-0.19,0.64-0.32,1.15-1.15,2.11c-0.83,0.96-2.02,1.89-2.23,2.74
		c-0.1,0.38,0.26,1.47,0.57,1.47c0.32,0,1.4,0.7,3.57-0.57c2.17-1.28,7.13-5.05,9.32-6.96c1.15-1,3.23-3.24,4.4-4.21
		c0.86-0.72,3.64-2.62,3.51-2.81c-0.13-0.19-3.19-1.53-4.28-1.09c-1.09,0.45-2.52-2.35-3.13-3.32c-0.49-0.78-1.91-2.68-1.85-3.19
		c0.06-0.51,1.21-3.19,1.21-3.38c0-0.19-1.53-2.81-1.72-2.81c-0.19,0-1.34,0.64-1.4,1.02c-0.06,0.38-0.14,4.08,0.48,5.23
		c0.18,0.33,0.92,0.77,0.86,1.21c-0.06,0.45-1.05,4.16-1.79,5.36c-0.61,0.99-2.55,2.68-3.45,3.13c-0.89,0.45-4.64,1.37-4.79,2.74
		C1262.79,598.37,1263.61,598.72,1263.85,598.98z"/>
	<path class="st0" d="M1150.81,607.53c-0.46,3.42-0.06,5.74-0.32,6c-0.26,0.26-1.59,1.5-1.6,2.17c-0.01,0.74,1.09,1.6,2.49,1.6
		c1.4,0,6.13-1.21,6.77-2.87c0.64-1.66,0.92-2.92,1.66-3.57c0.79-0.7,3.36-0.66,3.96-1.53c0.53-0.77,0-3.7-0.77-3.64
		s-2.56,0.49-3.32,0.89c-0.31,0.17-0.83,0.64-1.15,0.83c-0.32,0.19-1.96-0.41-2.55-0.7c-0.68-0.33-1.89-1.33-2.62-1.53
		c-0.45-0.12-1.48-0.28-1.85,0C1151.02,605.54,1150.89,606.92,1150.81,607.53z"/>
	<path class="st0" d="M1108.74,471c0.16,0.63,1.79,0.89,2.43,0.89s1.71-1.55,2.3-2.04c1.45-1.2,4.81-3.11,6.64-3.57
		c0.87-0.22,3.28,0.84,3.57,0c0.39-1.12-2.57-2.6-3.7-2.94c-1.12-0.33-3.96,0.38-4.6,0.89c-0.64,0.51-3.28,2.4-4.21,3.38
		C1110.45,468.37,1108.49,469.99,1108.74,471z"/>
	<path class="st0" d="M1096.62,471.89c-0.95,0.69-3.97-1.38-3.96-2.55c0.01-0.82,2.04-2.03,2.81-1.72
		C1096.5,468.03,1097.51,471.24,1096.62,471.89z"/>
	<path class="st0" d="M1096.62,465.13c0.42,1.48,5.23,2.68,5.62,2.49c0.38-0.19,3.21-0.37,3.57-1.24c0.45-1.07-1.06-3.57-2.04-4.19
		c-1.14-0.71-4.19-0.66-5.36,0C1097.66,462.61,1096.38,464.3,1096.62,465.13z"/>
	<path class="st0" d="M1087.04,467.63c-0.95,0.2-3.06-0.11-3.83-0.71c-0.55-0.43-1.38-1.89-1.15-2.55c0.22-0.64,1.91-1.02,2.49-1.02
		s2.59,0.3,3.38,0.64c0.63,0.27,2.29,0.82,2.3,1.5C1090.24,466.44,1087.98,467.43,1087.04,467.63z"/>
	<path class="st0" d="M1070.96,464.91c-2.43-0.37-8.3-1.19-9.7-1.57c-1.4-0.38-4.72-0.77-5.36-1.15c-0.64-0.38-2.17,0.38-3.32,0
		c-1.15-0.38-2.3,0.38-4.09,0c-1.79-0.38-4.88-1.03-6.26-1.91c-0.78-0.5-2.62-1.76-2.55-2.68c0.07-0.97,2.14-2.1,3.06-2.43
		c1.12-0.39,3.83,0,4.72,0c0.89,0,4.72,1.02,5.11,1.91s1.91,1.91,2.74,1.91c0.83,0,4.15-1.79,5.3-1.91s4.85,0.26,5.49,1.02
		c0.64,0.77,1.79,0.93,2.94,1.93s4.45,1,5.87,1.51c0.62,0.22,1.91,1.28,1.91,1.79s-1.53,1.96-2.3,2.14
		C1073.65,465.69,1071.85,465.04,1070.96,464.91z"/>
	<path class="st0" d="M1001.64,409.09c0.48,1.11,8.17,9.32,8.55,9.7c0.38,0.38,3.7,4.21,3.96,5.23s1.43,2.74,2.3,3.19
		c1.44,0.75,5.36,0.77,5.49,3.45c0.13,2.68-1.02,5.87-0.64,7.79c0.32,1.61,1.91,3.2,3.32,5.68c1.4,2.49,3.32,5.21,5.11,6.06
		c1.65,0.79,5.51,1.37,7.28,0.89c1.08-0.29,3.13-1.66,3.57-2.68c0.82-1.89-0.24-6.22-0.89-8.17c-0.79-2.35-4.85-8.17-5.23-8.43
		c-0.38-0.26-4.13-2.26-5.11-3.45c-0.73-0.88-1.02-3.37-1.79-4.21c-1.23-1.35-4.94-2.41-6.45-3.45c-1.55-1.07-4.49-3.51-5.68-4.98
		c-1.46-1.8-4.21-7.53-4.6-8.04c-0.38-0.51-6.64-2.81-7.02-2.81c-0.38,0-3.9-0.96-4.47,0
		C998.73,405.9,1001.16,407.99,1001.64,409.09z"/>
	<path class="st0" d="M1085,573.89c-2.01,0.38-7.02,0.64-7.53,0.89c-0.51,0.26-5.23,0.51-6.51,1.02c-1.28,0.51-4.47,1.52-6,1.85
		c-1.74,0.38-5.42,1.85-7.02,1.09c-1.21-0.58-2.55-4.34-2.3-4.85s3.45-2.3,3.7-2.81c0.26-0.51,1.51-7.53,1.53-10.09
		c0.01-1.61-0.64-5.36-0.89-6.38c-0.26-1.02-0.61-6.38-0.13-8.43c0.37-1.58,2.71-4.25,2.81-5.87c0.11-1.74-1.91-5.74-2.17-6.64
		c-0.26-0.89,0.98-7.04,2.43-8.81c1.19-1.46,4.79-3.04,6.51-3.83c2.7-1.24,8.41-2.91,11.23-3.83c2.35-0.77,7.19-1.92,9.45-2.94
		c1.74-0.78,5.19-2.59,6.51-3.96c1.27-1.32,2.67-4.8,3.57-6.38c0.44-0.77,0.93-2.82,1.79-3.06c1.04-0.3,2.84,2.49,3.83,2.04
		c1.11-0.5,0.49-3.7,1.15-4.72c0.31-0.48,1.29-1.14,1.79-1.4c0.74-0.39,2.54-0.5,3.19-1.02c1.07-0.87,2.43-4.21,3.06-4.6
		c0.64-0.38,2.73-2.81,3.96-3.06c1.2-0.25,3.66,0.66,4.72,1.28c1.06,0.61,2.81,2.81,3.57,3.32c0.77,0.51,3.96,1.66,3.96,1.02
		c0-0.64,0.51-6,1.79-6.51s6.89-2.68,8.17-3.7c1.28-1.02,4.34-4.34,5.11-4.6c0.77-0.26,5.23,0,5.62,0c0.38,0,4.85,3.06,4.98,3.45
		c0.13,0.38,0.36,3.41,0,4.47c-0.3,0.89-1.91,2.16-2.17,3.06c-0.38,1.32,0.26,4.21,1.15,5.36c0.89,1.15,3.83,3.32,5.23,4.6
		c1.4,1.28,8.04,3.06,9.06,4.34c1.02,1.28,3.83,0.89,4.34-0.13c0.51-1.02,2.3-4.47,3.19-6.26c0.89-1.79,1.79-2.04,1.4-5.74
		c-0.38-3.7,0.89-8.9,2.43-11.36c0.63-1.01,2.16-3.76,3.32-3.45c1.65,0.44,1.16,5,1.66,6.64c0.5,1.63,1.66,4.6,3.45,5.87
		c1.79,1.28,3.57,4.34,3.57,4.72c0,0.38-0.57,3.87,0,4.98c0.22,0.43,1.28,0.89,1.02,1.66c-0.26,0.77-1.75,2.18-1.91,3.06
		c-0.24,1.29,1.28,4.72,1.28,5.11c0,0.38,2.77,2.79,3.57,3.83c1.75,2.27,4.85,8.68,5.23,10.21c0.38,1.53,1.71,6.19,2.94,7.91
		c0.87,1.23,3.76,2.67,4.55,3.96c0.72,1.18,1.22,3.98,1.32,5.36c0.13,1.69-0.32,5.1-0.64,6.77c-0.43,2.22-1.62,6.62-2.55,8.68
		c-0.67,1.48-2.78,4.01-3.45,5.49c-0.69,1.52-1.79,6-1.91,6.38c-0.13,0.38-4.17,2.3-5.62,2.94c-1.07,0.47-3.4,1.09-4.34,1.79
		c-2.1,1.55-5.05,5.97-6.64,8.04c-0.74,0.96-1.96,3.09-2.81,3.96c-0.96,0.99-4.09,3.06-4.21,3.57c-0.13,0.51-0.84,2.95-1.66,3.45
		c-0.93,0.56-3.26-0.11-4.34,0c-1.65,0.17-5.62,1.15-6.38,1.79c-0.77,0.64-2.17,2.64-3.19,3.06c-0.77,0.32-2.55,0.32-3.32,0
		c-0.79-0.33-1.65-2.07-2.43-2.43c-0.76-0.35-2.51-0.46-3.32-0.26c-0.7,0.17-1.72,1.41-2.43,1.53c-1.51,0.27-4.62-0.61-6-1.28
		c-1.23-0.59-3.81-2.15-4.21-3.45c-0.33-1.08,0.94-3.26,1.28-4.34c0.22-0.69,0.77-2.3,0.64-2.81c-0.13-0.51-0.99-2.76-1.66-3.45
		c-0.51-0.52-1.92-1.04-2.55-1.4c-0.39-0.23-1.47-0.51-1.53-0.96c-0.18-1.35,2.92-2.9,3.7-4.02c0.52-0.74,2.15-2.44,1.66-3.19
		c-0.79-1.2-4.56-0.43-5.74,0.38c-0.79,0.54-0.89,1.91-2.3,3.06c-1.4,1.15-2.65,4.15-3.96,3.77c-1.33-0.39-0.58-4.16-1.15-5.43
		c-0.4-0.87-1.63-2.38-2.3-3.06c-1.36-1.38-4.26-4.21-6.13-4.72c-2.76-0.75-8.51,1.19-11.36,1.4c-2.55,0.19-7.8-0.58-10.21,0.26
		c-1.47,0.51-3.62,2.95-4.98,3.7C1093.01,571.17,1087.76,573.37,1085,573.89z"/>
	<path class="st0" d="M1107.09,198.7c-1.03,1.27,1.15,5.62,2.3,6.13s5.36,4.85,5.62,5.23s2.03,4.35,2.81,5.74
		c1.32,2.36,3.95,7.17,5.87,9.06c1.53,1.51,5.31,5.46,7.28,4.6c1.31-0.58,0.64-3.57-1.15-5.62c-1.79-2.04-4.13-3.3-4.85-4.85
		c-0.34-0.72-0.34-2.42-0.13-3.19c0.14-0.5,1.22-1.21,1.15-1.72c-0.25-1.89-4.27-3.83-5.74-5.04c-1.58-1.3-4.99-3.61-6.51-4.98
		c-1.38-1.24-3.41-4.63-5.11-5.36C1108.27,198.55,1107.33,198.41,1107.09,198.7z"/>
	<path class="st0" d="M1130.06,234.32c-0.28,0.53,0.9,1.58,1,2.17c0.16,0.91-0.24,2.94-1,3.57c-0.77,0.64-1.4,3.32-1.15,3.96
		c0.26,0.64,3.49,3.69,4.85,3.19c0.93-0.34,0.55-3.2,1.4-3.7c0.8-0.48,2.84,0.15,3.7,0.51c0.63,0.26,1.5,1.79,2.17,1.66
		c0.69-0.14,0.89-1.95,1.4-2.43c0.6-0.55,2.57-0.68,2.94-1.4c0.36-0.71-0.51-2.68-1.28-2.94c-0.77-0.26-5.46-1.06-6.99-2.04
		c-0.92-0.59-1.81-2.95-2.84-3.32C1133.27,233.19,1130.56,233.37,1130.06,234.32z"/>
	<path class="st0" d="M1135.81,255.51c0.33,1.24,1.15,3.7,1.31,4.98c0.1,0.79,0.07,2.4,0,3.19c-0.08,1-0.13,3.1-0.66,3.96
		c-0.56,0.92-2.53,2.02-3.46,2.55c-1.49,0.85-5.36,2.3-6.38,2.55c-1.02,0.26-5.23-0.38-6.26,0.13c-1.02,0.51-4.21,2.43-4.6,3.06
		c-0.38,0.64-1.26,2.36-0.77,2.94c1.09,1.29,5.12,0.37,6.77,0c1.31-0.29,4.6-2.17,4.98-2.04c0.38,0.13,3.45,1.23,4.32,2.04
		c0.65,0.6,0.92,3.11,1.8,3.06c1.26-0.07,1-3.89,2.04-4.6c0.85-0.57,3.7-0.13,4.09,0s5.19-1.31,6.38-2.55
		c0.7-0.73,0.77-1.91,0.77-3.96c0-2.04-0.13-5.49-0.77-6c-0.64-0.51-2.04-3.32-1.66-4.34c0.38-1.02,0.6-3.83,0.13-4.98
		c-0.5-1.21-2.44-3.11-3.45-3.96c-0.57-0.48-1.82-1.68-2.55-1.53c-1.08,0.22-2.36,2.49-2.55,3.57
		C1135.21,254.08,1135.68,255.03,1135.81,255.51z"/>
	<path class="st0" d="M1122.91,283.34c-0.08,0.31,0.13,2.3,0.45,2.3c0.32,0,1.74-0.44,2.23-0.77c0.69-0.45,2.52-1.49,2.36-2.3
		c-0.2-1.01-2.86-1.89-3.83-1.53C1123.52,281.27,1123.07,282.71,1122.91,283.34z"/>
	<path class="st0" d="M1116.91,283.72c0.46,0.74,1.65,2.03,2.04,2.81c0.45,0.9,0.96,3.13,0.7,3.96c-0.26,0.83-0.7,1.21-1.15,1.6
		c-0.45,0.38-2.41,0.51-2.94,0c-0.96-0.93-0.83-4.53-1.34-5.17s-1.3-1.33-1.4-1.91c-0.14-0.78,0.14-2.58,0.77-3.06
		c0.47-0.36,1.86-0.3,2.36,0C1116.39,282.2,1116.65,283.29,1116.91,283.72z"/>
</g>
</svg>
