<?xml version="1.0" encoding="UTF-8"?>
<svg width="80px" height="80px" viewBox="0 0 80 80" version="1.1" xmlns="http://www.w3.org/2000/svg" xmlns:xlink="http://www.w3.org/1999/xlink">
    <!-- Generator: sketchtool 52.3 (67297) - http://www.bohemiancoding.com/sketch -->
    <title>2D3D8AC2-15E2-4EA1-8FDA-2B58BC3C7A19</title>
    <desc>Created with sketchtool.</desc>
    <defs>
        <polygon id="path-1" points="0 0.42075 32.6253602 0.42075 32.6253602 33.6866475 0 33.6866475"></polygon>
    </defs>
    <g id="Page-1" stroke="none" stroke-width="1" fill="none" fill-rule="evenodd">
        <g id="home" transform="translate(-932.000000, -2228.000000)">
            <g id="Group-17" transform="translate(932.000000, 2228.000000)">
                <circle id="Oval-Copy-6" fill="#F5F6FA" fill-rule="nonzero" cx="40" cy="40" r="40"></circle>
                <g id="Group-6" transform="translate(15.000000, 12.000000)">
                    <g id="Group-3">
                        <mask id="mask-2" fill="white">
                            <use xlink:href="#path-1"></use>
                        </mask>
                        <g id="Clip-2"></g>
                        <path d="M22.4157577,1.7028475 C21.4651038,1.7028475 19.6611038,2.1439975 17.1086808,4.6642475 C13.4439885,8.2826975 10.3322577,16.0810225 10.3013731,16.1596475 C10.2188731,16.3687475 10.0322962,16.5183475 9.81145,16.5536225 C4.73579615,17.3657975 0.996642308,23.3706225 1.28433462,27.8003975 C1.47175769,30.6848725 3.30114231,32.3211225 6.43571923,32.4082475 C7.24548846,32.4311975 8.14875769,32.3504475 9.12014231,32.1698225 C13.66145,31.3223725 16.7088731,29.5743475 18.17695,26.9724975 C19.9767192,23.7841475 18.7523346,20.3798975 18.7396423,20.3458975 C18.67745,20.1775975 18.6888731,19.9901725 18.7713731,19.8303725 C18.8437192,19.6905475 18.9647192,19.5830225 19.1098346,19.5277725 C20.1539885,18.9629475 31.3722962,9.6881725 31.3566423,5.9944975 C31.3545269,5.5571725 31.1764115,5.2821975 30.76095,5.0747975 C29.0242192,4.2090725 25.6742962,5.9643225 21.3263346,10.0234975 C20.5140269,10.7816975 19.7321808,11.5594475 19.0108346,12.3061725 C17.8232577,13.7124975 16.4516423,15.2471725 14.8942962,16.9127475 C14.6603346,17.1630725 14.2715269,17.1821975 14.0142962,16.9569475 C13.7570654,16.7308475 13.7236423,16.3411225 13.9389885,16.0746475 C14.3756038,15.5344725 16.0391423,13.5101975 18.2357577,11.2449475 C23.3575269,5.1228225 23.6930269,2.9395975 23.5364885,2.2302725 C23.4776808,1.9642225 23.34145,1.8902725 23.1696808,1.8209975 C23.0956423,1.7912475 22.84095,1.7028475 22.4157577,1.7028475 Z M6.70437308,33.6866475 C6.60198846,33.6866475 6.50087308,33.6853725 6.40060385,33.6823975 C2.57683462,33.5765725 0.250334615,31.4634725 0.0176423077,27.8836975 C-0.142703846,25.4106225 0.788488462,22.4904475 2.50871923,20.0717725 C4.31018077,17.5396225 6.69421923,15.8778725 9.25552692,15.3593725 C9.90410385,13.7877225 12.7615654,7.1687725 16.21895,3.7551725 C20.2940269,-0.2695775 22.9230269,0.3483725 23.6325269,0.6339725 C24.2552962,0.8838725 24.6373346,1.3271475 24.7756808,1.9544475 C25.0126038,3.0279975 24.4905269,4.6072975 23.1925269,6.7169975 C26.1540654,4.4105225 29.2048731,2.8724475 31.3261808,3.9332475 C32.2620269,4.4007475 32.7176808,5.2452225 32.6097962,6.3106975 C32.1892577,10.4535975 22.7169885,18.6543975 20.0858731,20.4109225 C20.4031808,21.5958225 20.9510654,24.6430725 19.2811808,27.6014975 C17.6193346,30.5454725 14.2787192,32.5047225 9.35156538,33.4231475 C8.41021923,33.5982475 7.52133462,33.6866475 6.70437308,33.6866475 Z" id="Fill-1" fill="#020303" mask="url(#mask-2)"></path>
                    </g>
                    <path d="M11.7675415,56 C10.3607628,56 9.37883623,55.6587609 8.83419651,54.9779742 C8.43877314,54.4836638 8.10303633,53.5863785 8.74881159,52.1186699 C9.16537393,51.1727569 10.2811807,50.5405978 11.3600979,49.9291583 C12.4547658,49.3084161 13.5871522,48.6665315 13.6227983,47.9172432 C13.6476677,47.3937562 13.184268,46.4228952 10.8357682,44.7682874 C6.84588847,41.9576107 5.54770612,38.7765184 5.16140153,36.6026522 C4.73696388,34.2177844 5.28118911,32.5052463 5.30440055,32.4337849 C5.4129969,32.1014256 5.76489882,31.9234062 6.09068788,32.0316556 C6.41606245,32.142442 6.59222066,32.500595 6.48486777,32.8325314 C6.40487122,33.0837036 4.66194121,38.8775793 11.5424735,43.7242735 C13.8694198,45.3636587 14.9251255,46.7155066 14.8650245,47.9785563 C14.7953902,49.4327337 13.3558668,50.2484092 11.9640097,51.0378681 C11.0624942,51.5490924 10.1303064,52.0772307 9.88327043,52.6383512 C9.67022263,53.1220904 9.4824587,53.7817346 9.79747103,54.1758298 C10.002229,54.4316534 10.967576,55.199547 14.7987061,54.3234041 C17.1720753,53.7813118 19.0057786,52.4015558 19.9632502,50.4382684 C21.3103424,47.6753736 20.9455913,43.801232 18.90713,39.2340409 C18.7649599,38.9152129 18.9029851,38.5393002 19.2155105,38.3938402 C19.5276213,38.2483801 19.8965174,38.3896117 20.0391019,38.7084398 C22.8165987,44.9327756 22.1364208,48.830174 21.0765701,51.0031945 C19.9491576,53.3153323 17.8161926,54.9339979 15.0706115,55.5615057 C13.7902522,55.8536943 12.6881236,56 11.7675415,56" id="Fill-4" fill="#020303"></path>
                    <path d="M33.816858,56 C31.8975983,56 29.7357496,55.5991175 27.3354373,54.622598 C24.5737167,53.4995374 22.8330984,51.7595725 22.1618526,49.4515503 C20.794607,44.7504448 24.3983759,39.4585428 24.5522632,39.2353624 C24.7494701,38.950281 25.1348072,38.8820636 25.4141148,39.0833471 C25.6938349,39.2842094 25.7606707,39.6779334 25.564289,39.9630147 C25.5296334,40.0127039 22.1507133,44.9849947 23.3496317,49.095725 C23.9082468,51.0121287 25.4033881,52.4771185 27.7933862,53.449006 C31.8142599,55.0849604 35.418854,55.1843388 38.5065021,53.7433514 C41.3816785,52.4013214 42.7736781,50.1821503 43.0232809,49.7505278 C43.727532,48.5344052 44.7597735,46.1105819 43.7559991,43.5444284 C42.5570806,40.4792773 38.8860634,38.0348203 32.8452637,36.279696 C28.4675199,35.0075677 26.7269016,33.9139838 27.0255998,32.6212219 C27.408049,30.9663182 31.4120075,30.74398 32.444249,30.9423158 C32.5964861,30.9717924 32.6996277,30.9625283 32.7586248,30.9486322 C32.614639,30.5153254 31.1533283,29.0482301 25.5853299,28.0397074 C21.2884492,27.2615236 20.8820711,25.5375604 21.0223437,24.5791479 C21.3552849,22.3022868 25.3278884,20.6014837 29.1923994,21.0815321 C33.2966116,21.5906361 42.9077622,22.7819141 49.9391342,37.7623718 C50.086833,38.0769298 49.956462,38.4546521 49.6482747,38.6049831 C49.3400875,38.7569984 48.9700153,38.6230902 48.822729,38.3085321 C42.0846919,23.9529795 32.94593,22.8193916 29.0434629,22.3359744 C25.5531497,21.9009832 22.4320837,23.4965125 22.2464287,24.7656931 C22.1507133,25.4183904 23.0344309,26.2946893 25.8015148,26.7957925 C30.4218477,27.6325084 33.3820128,28.9960143 33.9241253,30.5368012 C34.0821383,30.9861097 34.0153025,31.4316283 33.7413583,31.7600824 C33.4133679,32.1525431 32.8580533,32.3066639 32.2160997,32.1841252 C31.1161973,31.9714722 28.6061423,32.431308 28.247622,32.8940915 C28.3466379,33.0663194 29.0088073,33.8516617 33.1839809,35.0648367 C39.6130056,36.9328145 43.5567294,39.627823 44.9054095,43.0761707 C46.1055657,46.1438484 44.9087101,48.9773972 44.0889403,50.3939611 C42.670949,52.8413658 39.2033271,55.9995789 33.816858,56" id="Fill-6" fill="#020303"></path>
                    <path d="M1.61054785,31 C1.53484146,31 1.45791399,30.9846549 1.38342867,30.9517082 C1.07042749,30.8122486 0.918607676,30.4177901 1.04397095,30.0707207 C1.08548737,29.956084 2.08432336,27.2643785 4.32539549,27.0030611 C4.65834082,26.968309 4.96116641,27.2332371 4.99657746,27.6055806 C5.03198852,27.9774729 4.78858839,28.3105511 4.45320091,28.3498165 C2.93540978,28.5267361 2.1848582,30.554993 2.17753178,30.5753027 C2.08188122,30.8397794 1.85272692,31 1.61054785,31" id="Fill-8" fill="#020303"></path>
                    <path d="M8.58792307,24 C8.51460489,24 8.44050255,23.9870689 8.36836059,23.9589249 C8.06803049,23.841024 7.92178619,23.5109016 8.04215348,23.2188117 C8.06842256,23.154917 8.70358545,21.6469269 10.1154506,21.1547858 C10.9211665,20.8737254 11.7888304,20.9760329 12.6941335,21.4567642 C12.9791727,21.6077534 13.0834648,21.9546101 12.9278107,22.2311067 C12.7713725,22.5072229 12.4145834,22.6083894 12.1295443,22.4570199 C11.5253554,22.1364056 10.9980134,22.0599602 10.5185046,22.2265428 C9.60653615,22.5406915 9.13839757,23.632986 9.13369266,23.6440154 C9.04077069,23.8653648 8.82003198,24 8.58792307,24" id="Fill-10" fill="#020303"></path>
                    <path d="M25.3190334,56 C22.6146186,56 19.8767037,55.6009004 19.2220029,54.0846707 C18.8361306,53.1923608 19.0247241,52.5035219 19.2505401,52.0835088 C20.1331247,50.441798 23.119189,50.0400842 23.4566722,50 L23.5968766,51.2983807 C22.5633344,51.4238617 20.7617698,51.9227362 20.3299899,52.7279065 C20.2514093,52.8747368 20.1674521,53.1187278 20.3510826,53.5435335 C20.9214126,54.8641348 26.2322231,54.9412534 30.8258818,54.2567715 L31,55.5512308 C30.1707675,55.6749691 27.7583418,56 25.3190334,56" id="Fill-12" fill="#020303"></path>
                </g>
            </g>
        </g>
    </g>
</svg>