<?xml version="1.0" encoding="UTF-8"?>
<svg width="24px" height="20px" viewBox="0 0 24 20" version="1.1" xmlns="http://www.w3.org/2000/svg" xmlns:xlink="http://www.w3.org/1999/xlink">
    <!-- Generator: sketchtool 52.3 (67297) - http://www.bohemiancoding.com/sketch -->
    <title>52F694C4-54DC-4844-8749-5F5B595EF430</title>
    <desc>Created with sketchtool.</desc>
    <g id="Page-1" stroke="none" stroke-width="1" fill="none" fill-rule="evenodd">
        <g id="home" transform="translate(-1366.000000, -2509.000000)" fill="#000000">
            <g id="Group-11" transform="translate(50.000000, 2509.000000)">
                <path d="M1339.33805,0.369741437 C1338.38582,0.947742783 1337.33362,1.3681074 1336.20901,1.5930281 C1335.31317,0.61260453 1334.03284,0 1332.61538,0 C1329.89838,0 1327.69338,2.26074141 1327.69338,5.04886098 C1327.69338,5.4448752 1327.73567,5.82871424 1327.82025,6.19845567 C1323.72809,5.98763257 1320.1005,3.98000705 1317.67057,0.921469995 C1317.24636,1.66992407 1317.00414,2.53820768 1317.00414,3.46288168 C1317.00414,5.21354651 1317.87307,6.75915543 1319.19504,7.66460543 C1318.38891,7.64025504 1317.62828,7.41084874 1316.96313,7.0353401 L1316.96313,7.09685688 C1316.96313,9.544071 1318.66061,11.5856589 1320.91496,12.0476755 C1320.50228,12.1662234 1320.06654,12.2258178 1319.61733,12.2258178 C1319.30014,12.2258178 1318.99063,12.1950594 1318.69073,12.1361059 C1319.31744,14.1411682 1321.13476,15.6015507 1323.28978,15.6406395 C1321.60511,16.9952901 1319.48084,17.8026978 1317.17459,17.8026978 C1316.77729,17.8026978 1316.38448,17.779629 1316,17.7334914 C1318.17873,19.1637564 1320.76822,20 1323.54802,20 C1332.60577,20 1337.55726,12.3078402 1337.55726,5.63519272 C1337.55726,5.41539842 1337.55341,5.19624491 1337.54508,4.98093621 C1338.50693,4.26900772 1339.34254,3.38021851 1340,2.36775496 C1339.11825,2.76889558 1338.16858,3.04059466 1337.17278,3.16234661 C1338.18973,2.53820768 1338.97023,1.54881292 1339.33805,0.369741437" id="Twitter"></path>
            </g>
        </g>
    </g>
</svg>