<?xml version="1.0" encoding="UTF-8"?>
<svg width="80px" height="80px" viewBox="0 0 80 80" version="1.1" xmlns="http://www.w3.org/2000/svg" xmlns:xlink="http://www.w3.org/1999/xlink">
    <!-- Generator: sketchtool 52.3 (67297) - http://www.bohemiancoding.com/sketch -->
    <title>EF6BA2F5-FCC4-44A6-9CED-C96BEC8BB300</title>
    <desc>Created with sketchtool.</desc>
    <g id="Page-1" stroke="none" stroke-width="1" fill="none" fill-rule="evenodd">
        <g id="home" transform="translate(-680.000000, -2228.000000)">
            <g id="Group-15" transform="translate(680.000000, 2228.000000)">
                <circle id="Oval-Copy-3" fill="#F5F6FA" fill-rule="nonzero" cx="40" cy="40" r="40"></circle>
                <g id="Group-9" transform="translate(12.000000, 19.000000)" fill="#020303">
                    <path d="M26.9003923,43 C26.8393019,43 26.7777873,42.9912238 26.716697,42.9736715 C26.3807,42.8737905 26.1897927,42.5252517 26.2903372,42.1942653 C26.2907615,42.1921757 26.2933069,42.1838175 26.2979735,42.1679368 C30.4966624,28.4608346 14.4146277,16.2477685 14.2517201,16.126156 C13.9717226,15.916782 13.9169958,15.5235266 14.1295394,15.2481225 C14.3420829,14.9714646 14.7421398,14.9188077 15.0208645,15.1273459 C15.1939539,15.2564807 19.3035526,18.3532101 22.9329134,23.2716188 C26.3111249,27.849847 28.1048055,32.4732096 28.2549859,36.8968102 C28.7700115,35.6719096 29.3817635,34.3149487 30.0864237,32.9149428 C33.40906,26.3119301 37.1058747,21.9468371 41.0725051,19.9404407 C41.3864416,19.7812161 41.7686805,19.9036644 41.9294669,20.2116657 C42.0902533,20.519667 41.9667999,20.8974596 41.6541361,21.0554304 C32.8838527,25.4911505 27.7395361,41.8093681 27.5168109,42.528595 C27.5142654,42.5377891 27.5112958,42.5461474 27.5091746,42.5553414 C27.4255996,42.8257306 27.1736019,43 26.9003923,43" id="Fill-44"></path>
                    <path d="M1.35262389,1.30324322 C2.9312547,11.0629859 7.17431637,18.0173285 13.6514613,21.4451324 C17.6474869,23.5593892 21.3728901,23.743944 22.7429679,23.7472768 C22.9395208,17.5444848 21.2694412,12.4736013 17.7745222,8.6675225 C12.321108,2.72760657 3.89415742,1.5327911 1.35262389,1.30324322 Z M22.617174,25 C21.0248879,25 17.2063807,24.7379571 13.0738025,22.5512115 C8.18480561,19.9636945 1.94890358,14.0754373 0.00654630177,0.717083754 C-0.0199366266,0.534611936 0.0346844131,0.349640504 0.156754161,0.211745135 C0.278410113,0.0734331634 0.453859513,-0.0153031316 0.637584828,0.00219416604 C1.09317395,0.0146922357 11.8663464,0.398382976 18.6794935,7.81182133 C22.5207595,11.9915924 24.2971847,17.5669813 23.9595274,24.383012 C23.9442169,24.6950471 23.7017326,24.9479247 23.3922134,24.9741707 C23.3471097,24.9783367 23.0735907,25 22.617174,25 Z" id="Fill-46"></path>
                    <path d="M54.7766384,7.24149222 C49.0136961,7.24149222 44.2727679,8.91447986 40.6667626,12.2252822 C34.7263325,17.6783199 33.5314136,26.1057416 33.3014292,28.6472925 C43.0620167,27.0682371 50.0169614,22.8255603 53.4450621,16.3483712 C55.5599185,12.3527322 55.7561552,8.61902767 55.7474058,7.25680277 C55.4207613,7.2468716 55.0970333,7.24149222 54.7766384,7.24149222 M32.6248084,30 C32.4727354,30 32.3248288,29.9449648 32.2098366,29.8431703 C32.0719293,29.7215136 31.9948512,29.5452354 32.0002675,29.3619226 C32.0127666,28.9067442 32.3969072,18.1330845 39.8109874,11.319891 C43.9907037,7.4790126 49.5615756,5.70216152 56.383196,6.04064876 C56.6952581,6.05595931 56.9481576,6.29844527 56.9744059,6.6079666 C56.9919047,6.80948651 57.3660459,11.6078948 54.551237,16.926034 C51.9639126,21.815478 46.0751456,28.0510087 32.715219,29.9933792 C32.685221,29.997931 32.6548064,30 32.6248084,30" id="Fill-48"></path>
                </g>
            </g>
        </g>
    </g>
</svg>